{
.appVersion = "1271";
DisplayStrings = (
"\012ABCDEFGHIJKLMNOPQRSTUVWXYZ\012abcdefghijklmn\012opqrstuvwxyz\0120123456789\012",
"/A.full/B.full/C.full/D.full/E.full/F.full/G.full \012/H.full/I.full/J.full/K.full/L.full/M.full/N.full \012/O.full/P.full/Q.full/R.full/S.full/T.full/U.full \012/V.full/W.full/X.full/Y.full/Z.full \012",
"/uni56F2"
);
classes = (
{
automatic = 1;
code = "A B C D E F G H I J K L M N O P Q R S T U V W X Y Z A.full B.full C.full D.full E.full F.full G.full H.full I.full J.full K.full L.full M.full N.full O.full P.full Q.full R.full S.full T.full U.full V.full W.full X.full Y.full Z.full Adieresis.half Ccedilla.half Ntilde.half Odieresis.half Udieresis.half";
name = Uppercase;
},
{
automatic = 1;

glyphs = (
{
glyphname = A;
lastChange = "2020-01-09 18:17:42 +0000";
layers = (
{
guideLines = (
{
position = "{400, 28}";
},
{
position = "{412, 62}";
},
{
position = "{4452, 322}";
}
);
layerId = "CA066C67-EDFC-49EB-AE27-EC7C0259E992";
paths = (
{
closed = 1;
nodes = (
"40 1 OFFCURVE",
"91 1 OFFCURVE",
"169 1 CURVE SMOOTH",
"247 1 OFFCURVE",
"318 1 OFFCURVE",
"322 1 CURVE SMOOTH",
"352 1 OFFCURVE",
"348 30 OFFCURVE",
"320 28 CURVE SMOOTH",
"228 20 OFFCURVE",
"184 20 OFFCURVE",
"187 52 CURVE SMOOTH",
"190 85 OFFCURVE",
"364 563 OFFCURVE",
"379 609 CURVE",
"436 434 OFFCURVE",
"552 115 OFFCURVE",
"557 68 CURVE SMOOTH",
"562 24 OFFCURVE",
"502 22 OFFCURVE",
"450 28 CURVE SMOOTH",
"422 31 OFFCURVE",
"418 1 OFFCURVE",
"448 1 CURVE SMOOTH",
"452 1 OFFCURVE",
"523 1 OFFCURVE",
"601 1 CURVE SMOOTH",
"679 1 OFFCURVE",
"750 1 OFFCURVE",
"754 1 CURVE SMOOTH",
"784 1 OFFCURVE",
"780 31 OFFCURVE",
"752 28 CURVE SMOOTH",
"700 22 OFFCURVE",
"663 27 OFFCURVE",
"645 68 CURVE SMOOTH",
"590 196 OFFCURVE",
"484 525 OFFCURVE",
"426 673 CURVE SMOOTH",
"417 696 OFFCURVE",
"406 700 OFFCURVE",
"395 700 CURVE SMOOTH",
"383 700 OFFCURVE",
"373 691 OFFCURVE",
"364 671 CURVE SMOOTH",
"349 631 OFFCURVE",
"156 89 OFFCURVE",
"139 57 CURVE SMOOTH",
"118 17 OFFCURVE",
"70 24 OFFCURVE",
"38 28 CURVE SMOOTH",
"10 32 OFFCURVE",
"6 1 OFFCURVE",
"36 1 CURVE SMOOTH"
);
},
{
closed = 1;
nodes = (
"494 322 LINE",
"494 354 LINE",
"260 354 LINE",
"260 322 LINE"
);
}
);
width = 790;
}
);
unicode = 0041;
},
{
glyphname = B;
lastChange = "2020-01-08 09:44:34 +0000";
layers = (
{
guideLines = (
{
position = "{75, 30}";
}
);
hints = (
{
horizontal = 1;
origin = "{0, 35}";
target = "{0, 32}";
type = Stem;
},
{
horizontal = 1;
place = "{394, 21}";
type = Stem;
},
{
horizontal = 1;
origin = "{0, 20}";
target = "{0, 17}";
type = Stem;
},
{
horizontal = 1;
place = "{394, 23}";
type = Stem;
},
{
horizontal = 1;
origin = "{0, 2}";
target = "{1, 11}";
type = Stem;
},
{
place = "{46, 15}";
type = Stem;
},
{
origin = "{0, 26}";
target = "{1, 2}";
type = Stem;
},
{
origin = "{2, 8}";
target = "{0, 11}";
type = Stem;
}
);
layerId = "CA066C67-EDFC-49EB-AE27-EC7C0259E992";
paths = (
{
closed = 1;
nodes = (
"4 1 OFFCURVE",
"240 1 OFFCURVE",
"314 2 CURVE SMOOTH",
"534 5 OFFCURVE",
"596 123 OFFCURVE",
"591 239 CURVE SMOOTH",
"587 339 OFFCURVE",
"509 417 OFFCURVE",
"386 417 CURVE",
"427 433 OFFCURVE",
"480 481 OFFCURVE",
"480 541 CURVE SMOOTH",
"480 643 OFFCURVE",
"393 681 OFFCURVE",
"296 681 CURVE SMOOTH",
"218 681 OFFCURVE",
"55 681 OFFCURVE",
"51 681 CURVE SMOOTH",
"21 681 OFFCURVE",
"25 651 OFFCURVE",
"53 654 CURVE SMOOTH",
"105 660 OFFCURVE",
"149 657 OFFCURVE",
"160 614 CURVE SMOOTH",
"168 582 OFFCURVE",
"169 467 OFFCURVE",
"169 341 CURVE SMOOTH",
"169 215 OFFCURVE",
"168 100 OFFCURVE",
"160 68 CURVE SMOOTH",
"149 25 OFFCURVE",
"105 22 OFFCURVE",
"53 28 CURVE SMOOTH",
"25 31 OFFCURVE",
"21 1 OFFCURVE",
"51 1 CURVE SMOOTH"
);
},
{
closed = 1;
nodes = (
"266 34 OFFCURVE",
"240 51 OFFCURVE",
"239 103 CURVE SMOOTH",
"238 136 OFFCURVE",
"239 261 OFFCURVE",
"239 387 CURVE",
"391 411 OFFCURVE",
"502 364 OFFCURVE",
"517 237 CURVE SMOOTH",
"533 99 OFFCURVE",
"440 20 OFFCURVE",
"313 30 CURVE SMOOTH"
);
},
{
closed = 1;
nodes = (
"239 502 OFFCURVE",
"240 549 OFFCURVE",
"240 589 CURVE SMOOTH",
"240 634 OFFCURVE",
"271 654 OFFCURVE",
"304 654 CURVE SMOOTH",
"370 654 OFFCURVE",
"413 608 OFFCURVE",
"413 543 CURVE SMOOTH",
"413 465 OFFCURVE",
"351 411 OFFCURVE",
"239 418 CURVE"
);
}
);
width = 631;
}
);
unicode = 0042;
},
{
glyphname = C;
lastChange = "2020-01-10 14:54:25 +0000";
layers = (
{
hints = (
{
horizontal = 1;
place = "{0, 27}";
type = Stem;
},
{
horizontal = 1;
place = "{673, 27}";
type = Stem;
},
{
place = "{50, 70}";
type = Stem;
},
{
place = "{618, 27}";
type = Stem;
},
{
place = "{618, 27}";
type = Stem;
}
);
layerId = "CA066C67-EDFC-49EB-AE27-EC7C0259E992";
paths = (
{
closed = 1;
nodes = (
"601 55 OFFCURVE",
"608 49 OFFCURVE",
"615 49 CURVE SMOOTH",
"622 49 OFFCURVE",
"628 54 OFFCURVE",
"628 65 CURVE SMOOTH",
"628 67 OFFCURVE",
"628 126 OFFCURVE",
"628 176 CURVE SMOOTH",
"628 215 OFFCURVE",
"628 264 OFFCURVE",
"628 266 CURVE SMOOTH",
"628 279 OFFCURVE",
"621 284 OFFCURVE",
"614 284 CURVE SMOOTH",
"608 284 OFFCURVE",
"601 279 OFFCURVE",
"601 269 CURVE SMOOTH",
"601 212 OFFCURVE",
"549 27 OFFCURVE",
"364 27 CURVE SMOOTH",
"221 27 OFFCURVE",
"110 156 OFFCURVE",
"110 349 CURVE SMOOTH",
"110 542 OFFCURVE",
"221 673 OFFCURVE",
"364 673 CURVE SMOOTH",
"505 673 OFFCURVE",
"598 549 OFFCURVE",
"598 458 CURVE SMOOTH",
"598 442 OFFCURVE",
"605 435 OFFCURVE",
"611 435 CURVE SMOOTH",
"618 435 OFFCURVE",
"625 443 OFFCURVE",
"625 458 CURVE SMOOTH",
"625 474 OFFCURVE",
"625 498 OFFCURVE",
"625 548 CURVE SMOOTH",
"625 598 OFFCURVE",
"625 646 OFFCURVE",
"625 648 CURVE SMOOTH",
"625 660 OFFCURVE",
"618 665 OFFCURVE",
"611 665 CURVE SMOOTH",
"605 665 OFFCURVE",
"598 661 OFFCURVE",
"598 650 CURVE SMOOTH",
"598 625 OFFCURVE",
"591 616 OFFCURVE",
"576 629 CURVE SMOOTH",
"544 658 OFFCURVE",
"474 700 OFFCURVE",
"364 700 CURVE SMOOTH",
"214 700 OFFCURVE",
"30 588 OFFCURVE",
"30 349 CURVE SMOOTH",
"30 110 OFFCURVE",
"214 0 OFFCURVE",
"364 0 CURVE SMOOTH",
"474 0 OFFCURVE",
"553 52 OFFCURVE",
"581 91 CURVE SMOOTH",
"595 110 OFFCURVE",
"601 86 OFFCURVE",
"601 66 CURVE SMOOTH"
);
}
);
width = 678;
}
);
unicode = 0043;
},
{
glyphname = D;
lastChange = "2020-01-08 09:43:44 +0000";
layers = (
{
layerId = "CA066C67-EDFC-49EB-AE27-EC7C0259E992";
paths = (
{
closed = 1;
nodes = (
"311 681 OFFCURVE",
"347 681 CURVE SMOOTH",
"532 682 OFFCURVE",
"693 583 OFFCURVE",
"693 341 CURVE SMOOTH",
"693 99 OFFCURVE",
"532 1 OFFCURVE",
"347 1 CURVE SMOOTH",
"304 1 OFFCURVE",
"71 1 OFFCURVE",
"51 1 CURVE SMOOTH",
"21 1 OFFCURVE",
"25 31 OFFCURVE",
"53 28 CURVE SMOOTH",
"105 22 OFFCURVE",
"145 25 OFFCURVE",
"156 68 CURVE SMOOTH",
"164 100 OFFCURVE",
"165 215 OFFCURVE",
"165 341 CURVE SMOOTH",
"165 467 OFFCURVE",
"164 582 OFFCURVE",
"156 614 CURVE SMOOTH",
"145 657 OFFCURVE",
"105 660 OFFCURVE",
"53 654 CURVE SMOOTH",
"25 651 OFFCURVE",
"21 681 OFFCURVE",
"51 681 CURVE SMOOTH",
"52 681 OFFCURVE"
);
},
{
closed = 1;
nodes = (
"497 22 OFFCURVE",
"618 144 OFFCURVE",
"618 341 CURVE SMOOTH",
"618 538 OFFCURVE",
"497 654 OFFCURVE",
"347 654 CURVE SMOOTH",
"295 654 OFFCURVE",
"255 657 OFFCURVE",
"244 614 CURVE SMOOTH",
"236 582 OFFCURVE",
"235 467 OFFCURVE",
"235 341 CURVE SMOOTH",
"235 215 OFFCURVE",
"236 100 OFFCURVE",
"244 68 CURVE SMOOTH",
"255 25 OFFCURVE",
"295 30 OFFCURVE",
"348 28 CURVE SMOOTH"
);
}
);
width = 723;
}
);
unicode = 0044;
},
{
glyphname = E;
lastChange = "2020-01-09 12:31:39 +0000";
layers = (
{
guideLines = (
{
position = "{512, 467}";
}
);
layerId = "CA066C67-EDFC-49EB-AE27-EC7C0259E992";
paths = (
{
closed = 1;
nodes = (
"418 653 OFFCURVE",
"473 653 OFFCURVE",
"505 632 CURVE SMOOTH",
"551 602 OFFCURVE",
"562 545 OFFCURVE",
"562 496 CURVE SMOOTH",
"562 478 OFFCURVE",
"573 470 OFFCURVE",
"582 470 CURVE SMOOTH",
"590 470 OFFCURVE",
"598 478 OFFCURVE",
"598 494 CURVE SMOOTH",
"598 526 OFFCURVE",
"595 572 OFFCURVE",
"587 644 CURVE SMOOTH",
"584 674 OFFCURVE",
"572 680 OFFCURVE",
"560 680 CURVE SMOOTH",
"556 680 OFFCURVE",
"281 681 OFFCURVE",
"200 681 CURVE SMOOTH",
"126 681 OFFCURVE",
"55 681 OFFCURVE",
"51 681 CURVE SMOOTH",
"21 681 OFFCURVE",
"25 651 OFFCURVE",
"53 654 CURVE SMOOTH",
"105 660 OFFCURVE",
"145 657 OFFCURVE",
"156 614 CURVE SMOOTH",
"164 582 OFFCURVE",
"165 467 OFFCURVE",
"165 341 CURVE SMOOTH",
"165 215 OFFCURVE",
"164 100 OFFCURVE",
"156 68 CURVE SMOOTH",
"145 25 OFFCURVE",
"105 22 OFFCURVE",
"53 28 CURVE SMOOTH",
"25 31 OFFCURVE",
"21 1 OFFCURVE",
"51 1 CURVE SMOOTH",
"55 1 OFFCURVE",
"126 1 OFFCURVE",
"200 1 CURVE SMOOTH",
"278 1 OFFCURVE",
"345 1 OFFCURVE",
"349 1 CURVE SMOOTH",
"458 1 OFFCURVE",
"536 0 OFFCURVE",
"565 0 CURVE SMOOTH",
"591 0 OFFCURVE",
"599 9 OFFCURVE",
"602 53 CURVE SMOOTH",
"604 81 OFFCURVE",
"608 147 OFFCURVE",
"608 203 CURVE SMOOTH",
"608 221 OFFCURVE",
"600 228 OFFCURVE",
"591 229 CURVE SMOOTH",
"582 230 OFFCURVE",
"573 222 OFFCURVE",
"573 206 CURVE SMOOTH",
"573 85 OFFCURVE",
"538 42 OFFCURVE",
"481 34 CURVE SMOOTH",
"427 26 OFFCURVE",
"400 28 OFFCURVE",
"354 28 CURVE SMOOTH",
"299 28 OFFCURVE",
"255 25 OFFCURVE",
"244 68 CURVE SMOOTH",
"236 100 OFFCURVE",
"235 215 OFFCURVE",
"235 341 CURVE SMOOTH",
"235 467 OFFCURVE",
"236 582 OFFCURVE",
"244 614 CURVE SMOOTH",
"255 657 OFFCURVE",
"293 655 OFFCURVE",
"354 654 CURVE SMOOTH"
);
},
{
closed = 1;
nodes = (
"310 325 OFFCURVE",
"351 325 OFFCURVE",
"383 319 CURVE SMOOTH",
"426 311 OFFCURVE",
"439 278 OFFCURVE",
"433 243 CURVE SMOOTH",
"430 224 OFFCURVE",
"460 222 OFFCURVE",
"460 242 CURVE SMOOTH",
"460 244 OFFCURVE",
"460 292 OFFCURVE",
"460 341 CURVE SMOOTH",
"460 390 OFFCURVE",
"460 448 OFFCURVE",
"460 450 CURVE SMOOTH",
"460 470 OFFCURVE",
"430 468 OFFCURVE",
"433 449 CURVE SMOOTH",
"439 414 OFFCURVE",
"426 370 OFFCURVE",
"383 363 CURVE SMOOTH",
"351 358 OFFCURVE",
"310 357 OFFCURVE",
"194 357 CURVE",
"194 325 LINE"
);
}
);
width = 658;
}
);
unicode = 0045;
},
{
glyphname = F;
lastChange = "2020-01-09 12:31:42 +0000";
layers = (
{
layerId = "CA066C67-EDFC-49EB-AE27-EC7C0259E992";
paths = (
{
closed = 1;
nodes = (
"314 325 OFFCURVE",
"355 325 OFFCURVE",
"387 319 CURVE SMOOTH",
"430 311 OFFCURVE",
"443 278 OFFCURVE",
"437 243 CURVE SMOOTH",
"434 224 OFFCURVE",
"464 222 OFFCURVE",
"464 242 CURVE SMOOTH",
"464 244 OFFCURVE",
"464 292 OFFCURVE",
"464 341 CURVE SMOOTH",
"464 390 OFFCURVE",
"464 448 OFFCURVE",
"464 450 CURVE SMOOTH",
"464 470 OFFCURVE",
"434 468 OFFCURVE",
"437 449 CURVE SMOOTH",
"443 414 OFFCURVE",
"430 370 OFFCURVE",
"387 363 CURVE SMOOTH",
"355 358 OFFCURVE",
"314 357 OFFCURVE",
"198 357 CURVE",
"198 325 LINE"
);
},
{
closed = 1;
nodes = (
"259 656 OFFCURVE",
"297 655 OFFCURVE",
"358 654 CURVE SMOOTH",
"422 653 OFFCURVE",
"477 653 OFFCURVE",
"509 632 CURVE SMOOTH",
"555 602 OFFCURVE",
"566 545 OFFCURVE",
"566 496 CURVE SMOOTH",
"566 478 OFFCURVE",
"577 470 OFFCURVE",
"586 470 CURVE SMOOTH",
"594 470 OFFCURVE",
"602 478 OFFCURVE",
"602 494 CURVE SMOOTH",
"602 526 OFFCURVE",
"599 572 OFFCURVE",
"591 644 CURVE SMOOTH",
"588 674 OFFCURVE",
"576 680 OFFCURVE",
"564 680 CURVE SMOOTH",
"560 680 OFFCURVE",
"285 681 OFFCURVE",
"204 681 CURVE SMOOTH",
"126 681 OFFCURVE",
"55 681 OFFCURVE",
"51 681 CURVE SMOOTH",
"21 681 OFFCURVE",
"25 651 OFFCURVE",
"53 654 CURVE SMOOTH",
"105 660 OFFCURVE",
"149 657 OFFCURVE",
"160 614 CURVE SMOOTH",
"168 582 OFFCURVE",
"169 467 OFFCURVE",
"169 341 CURVE SMOOTH",
"169 215 OFFCURVE",
"168 100 OFFCURVE",
"160 68 CURVE SMOOTH",
"149 25 OFFCURVE",
"105 22 OFFCURVE",
"53 28 CURVE SMOOTH",
"25 31 OFFCURVE",
"21 1 OFFCURVE",
"51 1 CURVE SMOOTH",
"55 1 OFFCURVE",
"126 1 OFFCURVE",
"204 1 CURVE SMOOTH",
"282 1 OFFCURVE",
"353 1 OFFCURVE",
"357 1 CURVE SMOOTH",
"387 1 OFFCURVE",
"383 31 OFFCURVE",
"355 28 CURVE SMOOTH",
"303 22 OFFCURVE",
"259 25 OFFCURVE",
"248 68 CURVE SMOOTH",
"240 100 OFFCURVE",
"239 215 OFFCURVE",
"239 341 CURVE SMOOTH",
"239 467 OFFCURVE",
"240 582 OFFCURVE",
"248 614 CURVE SMOOTH"
);
}
);
width = 622;
}
);
unicode = 0046;
},
{
glyphname = G;
lastChange = "2020-01-09 14:01:59 +0000";
layers = (
{
guideLines = (
{
position = "{4452, 322}";
}
);
layerId = "CA066C67-EDFC-49EB-AE27-EC7C0259E992";
paths = (
{
closed = 1;
nodes = (
"40 110 OFFCURVE",
"214 0 OFFCURVE",
"364 0 CURVE SMOOTH",
"529 0 OFFCURVE",
"635 92 OFFCURVE",
"635 232 CURVE SMOOTH",
"635 266 OFFCURVE",
"634 272 OFFCURVE",
"644 272 CURVE SMOOTH",
"673 272 OFFCURVE",
"674 299 OFFCURVE",
"650 299 CURVE SMOOTH",
"628 299 OFFCURVE",
"562 299 OFFCURVE",
"408 299 CURVE SMOOTH",
"378 299 OFFCURVE",
"382 269 OFFCURVE",
"410 272 CURVE SMOOTH",
"520 285 OFFCURVE",
"567 270 OFFCURVE",
"552 157 CURVE SMOOTH",
"542 84 OFFCURVE",
"469 27 OFFCURVE",
"364 27 CURVE SMOOTH",
"221 27 OFFCURVE",
"120 156 OFFCURVE",
"120 349 CURVE SMOOTH",
"120 542 OFFCURVE",
"221 673 OFFCURVE",
"364 673 CURVE SMOOTH",
"515 673 OFFCURVE",
"608 549 OFFCURVE",
"608 458 CURVE SMOOTH",
"608 442 OFFCURVE",
"615 435 OFFCURVE",
"621 435 CURVE SMOOTH",
"628 435 OFFCURVE",
"635 443 OFFCURVE",
"635 458 CURVE SMOOTH",
"635 474 OFFCURVE",
"635 498 OFFCURVE",
"635 548 CURVE SMOOTH",
"635 648 LINE SMOOTH",
"635 660 OFFCURVE",
"628 665 OFFCURVE",
"621 665 CURVE SMOOTH",
"615 665 OFFCURVE",
"608 661 OFFCURVE",
"608 650 CURVE SMOOTH",
"608 625 OFFCURVE",
"601 616 OFFCURVE",
"586 629 CURVE SMOOTH",
"553 657 OFFCURVE",
"484 700 OFFCURVE",
"364 700 CURVE SMOOTH",
"214 700 OFFCURVE",
"40 588 OFFCURVE",
"40 349 CURVE SMOOTH"
);
}
);
width = 707;
}
);
unicode = 0047;
},
{
glyphname = H;
lastChange = "2020-01-09 18:17:14 +0000";
layers = (
{
guideLines = (
{
position = "{4432, 322}";
}
);
layerId = "CA066C67-EDFC-49EB-AE27-EC7C0259E992";
paths = (
{
closed = 1;
nodes = (
"465 1 OFFCURVE",
"536 1 OFFCURVE",
"614 1 CURVE SMOOTH",
"692 1 OFFCURVE",
"763 1 OFFCURVE",
"767 1 CURVE SMOOTH",
"797 1 OFFCURVE",
"793 31 OFFCURVE",
"765 28 CURVE SMOOTH",
"713 22 OFFCURVE",
"669 25 OFFCURVE",
"658 68 CURVE SMOOTH",
"650 100 OFFCURVE",
"649 215 OFFCURVE",
"649 341 CURVE SMOOTH",
"649 467 OFFCURVE",
"650 582 OFFCURVE",
"658 614 CURVE SMOOTH",
"669 657 OFFCURVE",
"713 660 OFFCURVE",
"765 654 CURVE SMOOTH",
"793 651 OFFCURVE",
"797 681 OFFCURVE",
"767 681 CURVE SMOOTH",
"763 681 OFFCURVE",
"692 681 OFFCURVE",
"614 681 CURVE SMOOTH",
"536 681 OFFCURVE",
"465 681 OFFCURVE",
"461 681 CURVE SMOOTH",
"431 681 OFFCURVE",
"435 651 OFFCURVE",
"463 654 CURVE SMOOTH",
"515 660 OFFCURVE",
"559 657 OFFCURVE",
"570 614 CURVE SMOOTH",
"578 582 OFFCURVE",
"579 467 OFFCURVE",
"579 341 CURVE SMOOTH",
"579 215 OFFCURVE",
"578 100 OFFCURVE",
"570 68 CURVE SMOOTH",
"559 25 OFFCURVE",
"515 22 OFFCURVE",
"463 28 CURVE SMOOTH",
"435 31 OFFCURVE",
"431 1 OFFCURVE",
"461 1 CURVE SMOOTH"
);
},
{
closed = 1;
nodes = (
"55 1 OFFCURVE",
"126 1 OFFCURVE",
"204 1 CURVE SMOOTH",
"282 1 OFFCURVE",
"353 1 OFFCURVE",
"357 1 CURVE SMOOTH",
"387 1 OFFCURVE",
"383 31 OFFCURVE",
"355 28 CURVE SMOOTH",
"303 22 OFFCURVE",
"259 25 OFFCURVE",
"248 68 CURVE SMOOTH",
"240 100 OFFCURVE",
"239 215 OFFCURVE",
"239 341 CURVE SMOOTH",
"239 467 OFFCURVE",
"240 582 OFFCURVE",
"248 614 CURVE SMOOTH",
"259 657 OFFCURVE",
"303 660 OFFCURVE",
"355 654 CURVE SMOOTH",
"383 651 OFFCURVE",
"387 681 OFFCURVE",
"357 681 CURVE SMOOTH",
"353 681 OFFCURVE",
"282 681 OFFCURVE",
"204 681 CURVE SMOOTH",
"126 681 OFFCURVE",
"55 681 OFFCURVE",
"51 681 CURVE SMOOTH",
"21 681 OFFCURVE",
"25 651 OFFCURVE",
"53 654 CURVE SMOOTH",
"105 660 OFFCURVE",
"149 657 OFFCURVE",
"160 614 CURVE SMOOTH",
"168 582 OFFCURVE",
"169 467 OFFCURVE",
"169 341 CURVE SMOOTH",
"169 215 OFFCURVE",
"168 100 OFFCURVE",
"160 68 CURVE SMOOTH",
"149 25 OFFCURVE",
"105 22 OFFCURVE",
"53 28 CURVE SMOOTH",
"25 31 OFFCURVE",
"21 1 OFFCURVE",
"51 1 CURVE SMOOTH"
);
},
{
closed = 1;
nodes = (
"622 323 LINE",
"622 355 LINE",
"190 355 LINE",
"190 323 LINE"
);
}
);
width = 818;
}
);
unicode = 0048;
},
{
glyphname = I;
lastChange = "2020-01-09 11:47:10 +0000";
layers = (
{
layerId = "CA066C67-EDFC-49EB-AE27-EC7C0259E992";
paths = (
{
closed = 1;
nodes = (
"169 215 OFFCURVE",
"168 100 OFFCURVE",
"160 68 CURVE SMOOTH",
"149 25 OFFCURVE",
"105 22 OFFCURVE",
"53 28 CURVE SMOOTH",
"25 31 OFFCURVE",
"21 1 OFFCURVE",
"51 1 CURVE SMOOTH",
"55 1 OFFCURVE",
"126 1 OFFCURVE",
"204 1 CURVE SMOOTH",
"282 1 OFFCURVE",
"353 1 OFFCURVE",
"357 1 CURVE SMOOTH",
"387 1 OFFCURVE",
"383 31 OFFCURVE",
"355 28 CURVE SMOOTH",
"303 22 OFFCURVE",
"259 25 OFFCURVE",
"248 68 CURVE SMOOTH",
"240 100 OFFCURVE",
"239 215 OFFCURVE",
"239 341 CURVE SMOOTH",
"239 467 OFFCURVE",
"240 582 OFFCURVE",
"248 614 CURVE SMOOTH",
"259 657 OFFCURVE",
"303 660 OFFCURVE",
"355 654 CURVE SMOOTH",
"383 651 OFFCURVE",
"387 681 OFFCURVE",
"357 681 CURVE SMOOTH",
"353 681 OFFCURVE",
"282 681 OFFCURVE",
"204 681 CURVE SMOOTH",
"126 681 OFFCURVE",
"55 681 OFFCURVE",
"51 681 CURVE SMOOTH",
"21 681 OFFCURVE",
"25 651 OFFCURVE",
"53 654 CURVE SMOOTH",
"105 660 OFFCURVE",
"149 657 OFFCURVE",
"160 614 CURVE SMOOTH",
"168 582 OFFCURVE",
"169 467 OFFCURVE",
"169 341 CURVE SMOOTH"
);
}
);
width = 428;
}
);
unicode = 0049;
},
{
glyphname = J;
lastChange = "2020-01-10 15:14:14 +0000";
layers = (
{
layerId = "CA066C67-EDFC-49EB-AE27-EC7C0259E992";
paths = (
{
closed = 1;
nodes = (
"303 297 OFFCURVE",
"303 220 CURVE SMOOTH",
"303 113 OFFCURVE",
"257 20 OFFCURVE",
"163 27 CURVE SMOOTH",
"112 31 OFFCURVE",
"62 74 OFFCURVE",
"73 137 CURVE",
"130 134 OFFCURVE",
"126 218 OFFCURVE",
"70 218 CURVE SMOOTH",
"34 218 OFFCURVE",
"12 188 OFFCURVE",
"12 146 CURVE SMOOTH",
"12 52 OFFCURVE",
"97 0 OFFCURVE",
"172 0 CURVE SMOOTH",
"297 0 OFFCURVE",
"373 96 OFFCURVE",
"373 225 CURVE SMOOTH",
"373 290 OFFCURVE",
"368 556 OFFCURVE",
"382 614 CURVE SMOOTH",
"390 647 OFFCURVE",
"418 656 OFFCURVE",
"454 656 CURVE SMOOTH",
"465 656 OFFCURVE",
"477 655 OFFCURVE",
"489 654 CURVE SMOOTH",
"504 653 OFFCURVE",
"512 660 OFFCURVE",
"512 667 CURVE SMOOTH",
"512 674 OFFCURVE",
"505 681 OFFCURVE",
"491 681 CURVE SMOOTH",
"487 681 OFFCURVE",
"406 681 OFFCURVE",
"328 681 CURVE SMOOTH",
"250 681 OFFCURVE",
"169 681 OFFCURVE",
"165 681 CURVE SMOOTH",
"151 681 OFFCURVE",
"144 674 OFFCURVE",
"144 668 CURVE SMOOTH",
"144 661 OFFCURVE",
"151 654 OFFCURVE",
"163 654 CURVE SMOOTH",
"166 654 OFFCURVE",
"195 656 OFFCURVE",
"202 656 CURVE SMOOTH",
"238 656 OFFCURVE",
"285 647 OFFCURVE",
"294 614 CURVE SMOOTH",
"309 556 OFFCURVE"
);
}
);
width = 532;
}
);
unicode = 004A;
},
{
glyphname = K;
lastChange = "2020-01-09 11:59:43 +0000";
layers = (
{
layerId = "CA066C67-EDFC-49EB-AE27-EC7C0259E992";
paths = (
{
closed = 1;
nodes = (
"169 215 OFFCURVE",
"168 100 OFFCURVE",
"160 68 CURVE SMOOTH",
"149 25 OFFCURVE",
"105 22 OFFCURVE",
"53 28 CURVE SMOOTH",
"25 31 OFFCURVE",
"21 1 OFFCURVE",
"51 1 CURVE SMOOTH",
"55 1 OFFCURVE",
"126 1 OFFCURVE",
"204 1 CURVE SMOOTH",
"282 1 OFFCURVE",
"353 1 OFFCURVE",
"357 1 CURVE SMOOTH",
"387 1 OFFCURVE",
"383 31 OFFCURVE",
"355 28 CURVE SMOOTH",
"303 22 OFFCURVE",
"259 25 OFFCURVE",
"248 68 CURVE SMOOTH",
"240 100 OFFCURVE",
"239 215 OFFCURVE",
"239 341 CURVE SMOOTH",
"239 467 OFFCURVE",
"240 582 OFFCURVE",
"248 614 CURVE SMOOTH",
"259 657 OFFCURVE",
"303 660 OFFCURVE",
"355 654 CURVE SMOOTH",
"383 651 OFFCURVE",
"387 681 OFFCURVE",
"357 681 CURVE SMOOTH",
"353 681 OFFCURVE",
"282 681 OFFCURVE",
"204 681 CURVE SMOOTH",
"126 681 OFFCURVE",
"55 681 OFFCURVE",
"51 681 CURVE SMOOTH",
"21 681 OFFCURVE",
"25 651 OFFCURVE",
"53 654 CURVE SMOOTH",
"105 660 OFFCURVE",
"149 657 OFFCURVE",
"160 614 CURVE SMOOTH",
"168 582 OFFCURVE",
"169 467 OFFCURVE",
"169 341 CURVE SMOOTH"
);
},
{
closed = 1;
nodes = (
"361 417 OFFCURVE",
"306 387 OFFCURVE",
"326 361 CURVE",
"527 68 LINE SMOOTH",
"552 32 OFFCURVE",
"492 22 OFFCURVE",
"440 28 CURVE SMOOTH",
"412 31 OFFCURVE",
"408 1 OFFCURVE",
"438 1 CURVE SMOOTH",
"442 1 OFFCURVE",
"513 1 OFFCURVE",
"571 1 CURVE SMOOTH",
"649 1 OFFCURVE",
"720 1 OFFCURVE",
"724 1 CURVE SMOOTH",
"754 1 OFFCURVE",
"750 31 OFFCURVE",
"722 28 CURVE SMOOTH",
"680 24 OFFCURVE",
"630 46 OFFCURVE",
"609 75 CURVE SMOOTH",
"372 403 LINE"
);
},
{
closed = 1;
nodes = (
"222 262 LINE",
"599 599 LINE SMOOTH",
"627 624 OFFCURVE",
"674 656 OFFCURVE",
"702 652 CURVE SMOOTH",
"726 649 OFFCURVE",
"729 679 OFFCURVE",
"703 679 CURVE SMOOTH",
"700 679 OFFCURVE",
"649 679 OFFCURVE",
"582 679 CURVE SMOOTH",
"465 679 LINE SMOOTH",
"439 679 OFFCURVE",
"442 649 OFFCURVE",
"466 652 CURVE SMOOTH",
"536 661 OFFCURVE",
"590 628 OFFCURVE",
"544 588 CURVE SMOOTH",
"203 291 LINE"
);
}
);
width = 765;
}
);
unicode = 004B;
},
{
glyphname = L;
lastChange = "2020-01-09 11:47:16 +0000";
layers = (
{
layerId = "CA066C67-EDFC-49EB-AE27-EC7C0259E992";
paths = (
{
closed = 1;
nodes = (
"55 1 OFFCURVE",
"133 1 OFFCURVE",
"204 1 CURVE SMOOTH",
"353 1 LINE SMOOTH",
"452 1 OFFCURVE",
"530 0 OFFCURVE",
"559 0 CURVE SMOOTH",
"585 0 OFFCURVE",
"593 9 OFFCURVE",
"596 53 CURVE SMOOTH",
"598 81 OFFCURVE",
"602 147 OFFCURVE",
"602 203 CURVE SMOOTH",
"602 221 OFFCURVE",
"594 228 OFFCURVE",
"585 229 CURVE SMOOTH",
"576 230 OFFCURVE",
"567 222 OFFCURVE",
"567 206 CURVE SMOOTH",
"567 85 OFFCURVE",
"532 42 OFFCURVE",
"475 34 CURVE SMOOTH",
"422 27 OFFCURVE",
"381 28 OFFCURVE",
"355 28 CURVE SMOOTH",
"303 28 OFFCURVE",
"259 26 OFFCURVE",
"248 68 CURVE SMOOTH",
"240 100 OFFCURVE",
"239 215 OFFCURVE",
"239 341 CURVE SMOOTH",
"239 467 OFFCURVE",
"240 582 OFFCURVE",
"248 614 CURVE SMOOTH",
"259 657 OFFCURVE",
"303 660 OFFCURVE",
"355 654 CURVE SMOOTH",
"383 651 OFFCURVE",
"387 681 OFFCURVE",
"357 681 CURVE SMOOTH",
"353 681 OFFCURVE",
"282 681 OFFCURVE",
"204 681 CURVE SMOOTH",
"51 681 LINE SMOOTH",
"22 681 OFFCURVE",
"25 652 OFFCURVE",
"51 654 CURVE SMOOTH",
"87 656 OFFCURVE",
"147 665 OFFCURVE",
"160 614 CURVE SMOOTH",
"168 582 OFFCURVE",
"169 467 OFFCURVE",
"169 341 CURVE SMOOTH",
"169 215 OFFCURVE",
"168 100 OFFCURVE",
"160 68 CURVE SMOOTH",
"147 18 OFFCURVE",
"91 26 OFFCURVE",
"51 28 CURVE SMOOTH",
"25 30 OFFCURVE",
"22 1 OFFCURVE",
"51 1 CURVE SMOOTH"
);
}
);
width = 622;
}
);
unicode = 004C;
},
{
glyphname = M;
lastChange = "2020-01-09 12:26:49 +0000";
layers = (
{
layerId = "CA066C67-EDFC-49EB-AE27-EC7C0259E992";
paths = (
{
closed = 1;
nodes = (
"173 118 OFFCURVE",
"160 68 CURVE SMOOTH",
"149 25 OFFCURVE",
"105 22 OFFCURVE",
"53 28 CURVE SMOOTH",
"25 31 OFFCURVE",
"21 1 OFFCURVE",
"51 1 CURVE SMOOTH",
"53 1 OFFCURVE",
"325 1 OFFCURVE",
"327 1 CURVE SMOOTH",
"357 1 OFFCURVE",
"353 31 OFFCURVE",
"325 28 CURVE SMOOTH",
"273 22 OFFCURVE",
"229 25 OFFCURVE",
"218 68 CURVE SMOOTH",
"205 119 OFFCURVE",
"236 542 OFFCURVE",
"248 614 CURVE SMOOTH",
"255 657 OFFCURVE",
"259 681 OFFCURVE",
"219 681 CURVE SMOOTH",
"171 681 OFFCURVE",
"85 681 OFFCURVE",
"81 681 CURVE SMOOTH",
"51 681 OFFCURVE",
"55 651 OFFCURVE",
"83 654 CURVE SMOOTH",
"135 660 OFFCURVE",
"179 657 OFFCURVE",
"190 614 CURVE SMOOTH",
"203 563 OFFCURVE"
);
},
{
closed = 1;
nodes = (
"718 123 OFFCURVE",
"704 68 CURVE SMOOTH",
"693 25 OFFCURVE",
"649 22 OFFCURVE",
"597 28 CURVE SMOOTH",
"569 31 OFFCURVE",
"565 1 OFFCURVE",
"595 1 CURVE SMOOTH",
"599 1 OFFCURVE",
"670 1 OFFCURVE",
"748 1 CURVE SMOOTH",
"826 1 OFFCURVE",
"897 1 OFFCURVE",
"901 1 CURVE SMOOTH",
"931 1 OFFCURVE",
"927 31 OFFCURVE",
"899 28 CURVE SMOOTH",
"847 22 OFFCURVE",
"803 25 OFFCURVE",
"792 68 CURVE SMOOTH",
"779 119 OFFCURVE",
"749 564 OFFCURVE",
"762 614 CURVE SMOOTH",
"773 657 OFFCURVE",
"817 660 OFFCURVE",
"869 654 CURVE SMOOTH",
"897 651 OFFCURVE",
"901 681 OFFCURVE",
"871 681 CURVE SMOOTH",
"867 681 OFFCURVE",
"796 681 OFFCURVE",
"718 681 CURVE SMOOTH",
"671 681 OFFCURVE",
"682 653 OFFCURVE",
"682 614 CURVE SMOOTH",
"682 541 OFFCURVE"
);
},
{
closed = 1;
nodes = (
"419 80 LINE SMOOTH",
"433 46 OFFCURVE",
"456 47 OFFCURVE",
"472 85 CURVE SMOOTH",
"712 644 LINE",
"726 675 OFFCURVE",
"692 684 OFFCURVE",
"685 668 CURVE SMOOTH",
"464 157 LINE",
"248 670 LINE SMOOTH",
"241 687 OFFCURVE",
"177 669 OFFCURVE",
"191 637 CURVE"
);
}
);
width = 942;
}
);
unicode = 004D;
},
{
glyphname = N;
lastChange = "2020-01-14 06:18:44 +0000";
layers = (
{
layerId = "CA066C67-EDFC-49EB-AE27-EC7C0259E992";
paths = (
{
closed = 1;
nodes = (
"173 563 OFFCURVE",
"173 118 OFFCURVE",
"160 68 CURVE SMOOTH",
"149 25 OFFCURVE",
"105 22 OFFCURVE",
"53 28 CURVE SMOOTH",
"25 31 OFFCURVE",
"21 1 OFFCURVE",
"51 1 CURVE SMOOTH",
"53 1 OFFCURVE",
"325 1 OFFCURVE",
"327 1 CURVE SMOOTH",
"357 1 OFFCURVE",
"353 31 OFFCURVE",
"325 28 CURVE SMOOTH",
"273 22 OFFCURVE",
"229 25 OFFCURVE",
"218 68 CURVE SMOOTH",
"205 119 OFFCURVE",
"206 542 OFFCURVE",
"218 614 CURVE SMOOTH",
"225 657 OFFCURVE",
"229 681 OFFCURVE",
"189 681 CURVE SMOOTH",
"141 681 OFFCURVE",
"55 681 OFFCURVE",
"51 681 CURVE SMOOTH",
"21 681 OFFCURVE",
"25 651 OFFCURVE",
"53 654 CURVE SMOOTH",
"105 660 OFFCURVE",
"149 657 OFFCURVE",
"160 614 CURVE SMOOTH"
);
},
{
closed = 1;
nodes = (
"615 13 LINE SMOOTH",
"629 -6 OFFCURVE",
"666 -3 OFFCURVE",
"666 44 CURVE SMOOTH",
"666 213 OFFCURVE",
"666 430 OFFCURVE",
"666 599 CURVE SMOOTH",
"666 646 OFFCURVE",
"705 660 OFFCURVE",
"749 654 CURVE SMOOTH",
"773 651 OFFCURVE",
"776 681 OFFCURVE",
"751 681 CURVE SMOOTH",
"513 681 LINE SMOOTH",
"488 681 OFFCURVE",
"491 651 OFFCURVE",
"515 654 CURVE SMOOTH",
"559 660 OFFCURVE",
"626 656 OFFCURVE",
"626 599 CURVE SMOOTH",
"626 456 OFFCURVE",
"625 261 OFFCURVE",
"625 119 CURVE",
"218 670 LINE SMOOTH",
"205 687 OFFCURVE",
"147 669 OFFCURVE",
"161 637 CURVE"
);
}
);
width = 758;
}
);
unicode = 004E;
},
{
glyphname = O;
lastChange = "2020-01-09 13:38:22 +0000";
layers = (
{
layerId = "CA066C67-EDFC-49EB-AE27-EC7C0259E992";
paths = (
{
closed = 1;
nodes = (
"214 0 OFFCURVE",
"30 110 OFFCURVE",
"30 349 CURVE SMOOTH",
"30 588 OFFCURVE",
"214 700 OFFCURVE",
"364 700 CURVE SMOOTH",
"514 700 OFFCURVE",
"698 588 OFFCURVE",
"698 349 CURVE SMOOTH",
"698 110 OFFCURVE",
"514 0 OFFCURVE",
"364 0 CURVE SMOOTH"
);
},
{
closed = 1;
nodes = (
"221 673 OFFCURVE",
"110 542 OFFCURVE",
"110 349 CURVE SMOOTH",
"110 156 OFFCURVE",
"221 27 OFFCURVE",
"364 27 CURVE SMOOTH",
"507 27 OFFCURVE",
"618 156 OFFCURVE",
"618 349 CURVE SMOOTH",
"618 542 OFFCURVE",
"507 673 OFFCURVE",
"364 673 CURVE SMOOTH"
);
}
);
width = 728;
}
);
unicode = 004F;
},
{
glyphname = P;
lastChange = "2020-01-10 14:56:08 +0000";
layers = (
{
guideLines = (
{
angle = 270;
position = "{353, 467}";
},
{
position = "{511, 286}";
}
);
layerId = "CA066C67-EDFC-49EB-AE27-EC7C0259E992";
paths = (
{
closed = 1;
nodes = (
"267 287 OFFCURVE",
"292 284 OFFCURVE",
"356 284 CURVE SMOOTH",
"573 284 OFFCURVE",
"577 654 OFFCURVE",
"351 654 CURVE SMOOTH",
"299 654 OFFCURVE",
"259 657 OFFCURVE",
"248 614 CURVE SMOOTH",
"235 563 OFFCURVE",
"239 400 OFFCURVE",
"239 341 CURVE SMOOTH",
"239 215 OFFCURVE",
"240 100 OFFCURVE",
"248 68 CURVE SMOOTH",
"259 25 OFFCURVE",
"303 22 OFFCURVE",
"355 28 CURVE SMOOTH",
"383 31 OFFCURVE",
"387 1 OFFCURVE",
"357 1 CURVE SMOOTH",
"353 1 OFFCURVE",
"282 1 OFFCURVE",
"204 1 CURVE SMOOTH",
"126 1 OFFCURVE",
"55 1 OFFCURVE",
"51 1 CURVE SMOOTH",
"21 1 OFFCURVE",
"25 31 OFFCURVE",
"53 28 CURVE SMOOTH",
"105 22 OFFCURVE",
"149 25 OFFCURVE",
"160 68 CURVE SMOOTH",
"168 100 OFFCURVE",
"169 215 OFFCURVE",
"169 341 CURVE SMOOTH",
"169 404 OFFCURVE",
"173 564 OFFCURVE",
"160 614 CURVE SMOOTH",
"149 657 OFFCURVE",
"109 660 OFFCURVE",
"57 654 CURVE SMOOTH",
"29 651 OFFCURVE",
"25 681 OFFCURVE",
"55 681 CURVE SMOOTH",
"56 681 OFFCURVE",
"315 681 OFFCURVE",
"351 681 CURVE SMOOTH",
"680 681 OFFCURVE",
"684 257 OFFCURVE",
"355 257 CURVE SMOOTH",
"298 257 OFFCURVE",
"260 257 OFFCURVE",
"213 257 CURVE SMOOTH",
"198 257 OFFCURVE",
"194 281 OFFCURVE",
"213 287 CURVE SMOOTH"
);
}
);
width = 630;
}
);
unicode = 0050;
},
{
glyphname = Q;
lastChange = "2020-01-09 13:38:14 +0000";
layers = (
{
layerId = "CA066C67-EDFC-49EB-AE27-EC7C0259E992";
paths = (
{
closed = 1;
nodes = (
"514 28 OFFCURVE",
"698 134 OFFCURVE",
"698 363 CURVE SMOOTH",
"698 593 OFFCURVE",
"514 700 OFFCURVE",
"364 700 CURVE SMOOTH",
"214 700 OFFCURVE",
"30 593 OFFCURVE",
"30 363 CURVE SMOOTH",
"30 134 OFFCURVE",
"214 28 OFFCURVE",
"364 28 CURVE SMOOTH"
);
},
{
closed = 1;
nodes = (
"350 -119 OFFCURVE",
"495 -119 CURVE SMOOTH",
"623 -119 OFFCURVE",
"722 -47 OFFCURVE",
"730 -22 CURVE SMOOTH",
"734 -10 OFFCURVE",
"722 -7 OFFCURVE",
"702 -26 CURVE SMOOTH",
"653 -71 OFFCURVE",
"568 -89 OFFCURVE",
"476 -74 CURVE SMOOTH",
"371 -57 OFFCURVE",
"296 -3 OFFCURVE",
"205 -3 CURVE SMOOTH",
"79 -3 OFFCURVE",
"59 -119 OFFCURVE",
"165 -119 CURVE SMOOTH",
"273 -119 OFFCURVE",
"297 -4 OFFCURVE",
"451 41 CURVE SMOOTH",
"468 46 OFFCURVE",
"471 60 OFFCURVE",
"445 60 CURVE SMOOTH",
"303 60 OFFCURVE",
"245 -86 OFFCURVE",
"163 -86 CURVE SMOOTH",
"111 -86 OFFCURVE",
"111 -40 OFFCURVE",
"157 -40 CURVE SMOOTH",
"229 -40 OFFCURVE"
);
},
{
closed = 1;
nodes = (
"221 54 OFFCURVE",
"110 178 OFFCURVE",
"110 363 CURVE SMOOTH",
"110 548 OFFCURVE",
"221 674 OFFCURVE",
"364 674 CURVE SMOOTH",
"507 674 OFFCURVE",
"618 548 OFFCURVE",
"618 363 CURVE SMOOTH",
"618 178 OFFCURVE",
"507 54 OFFCURVE",
"364 54 CURVE SMOOTH"
);
}
);
width = 731;
}
);
unicode = 0051;
},
{
glyphname = R;
lastChange = "2020-01-10 14:55:58 +0000";
layers = (
{
layerId = "CA066C67-EDFC-49EB-AE27-EC7C0259E992";
paths = (
{
closed = 1;
nodes = (
"55 1 OFFCURVE",
"126 1 OFFCURVE",
"204 1 CURVE SMOOTH",
"282 1 OFFCURVE",
"353 1 OFFCURVE",
"357 1 CURVE SMOOTH",
"387 1 OFFCURVE",
"383 31 OFFCURVE",
"355 28 CURVE SMOOTH",
"303 22 OFFCURVE",
"259 25 OFFCURVE",
"248 68 CURVE SMOOTH",
"240 100 OFFCURVE",
"239 215 OFFCURVE",
"239 341 CURVE SMOOTH",
"239 400 OFFCURVE",
"235 563 OFFCURVE",
"248 614 CURVE SMOOTH",
"259 657 OFFCURVE",
"299 654 OFFCURVE",
"351 654 CURVE SMOOTH",
"577 654 OFFCURVE",
"573 284 OFFCURVE",
"356 284 CURVE SMOOTH",
"292 284 OFFCURVE",
"267 287 OFFCURVE",
"213 287 CURVE SMOOTH",
"194 281 OFFCURVE",
"198 257 OFFCURVE",
"213 257 CURVE SMOOTH",
"260 257 OFFCURVE",
"298 257 OFFCURVE",
"355 257 CURVE SMOOTH",
"684 257 OFFCURVE",
"680 681 OFFCURVE",
"351 681 CURVE SMOOTH",
"315 681 OFFCURVE",
"56 681 OFFCURVE",
"55 681 CURVE SMOOTH",
"25 681 OFFCURVE",
"29 651 OFFCURVE",
"57 654 CURVE SMOOTH",
"109 660 OFFCURVE",
"149 657 OFFCURVE",
"160 614 CURVE SMOOTH",
"173 564 OFFCURVE",
"169 404 OFFCURVE",
"169 341 CURVE SMOOTH",
"169 215 OFFCURVE",
"168 100 OFFCURVE",
"160 68 CURVE SMOOTH",
"149 25 OFFCURVE",
"105 22 OFFCURVE",
"53 28 CURVE SMOOTH",
"25 31 OFFCURVE",
"21 1 OFFCURVE",
"51 1 CURVE SMOOTH"
);
},
{
closed = 1;
nodes = (
"481 34 OFFCURVE",
"499 1 OFFCURVE",
"553 1 CURVE SMOOTH",
"631 1 OFFCURVE",
"672 1 OFFCURVE",
"676 1 CURVE SMOOTH",
"706 1 OFFCURVE",
"702 31 OFFCURVE",
"674 28 CURVE SMOOTH",
"622 22 OFFCURVE",
"598 24 OFFCURVE",
"569 68 CURVE SMOOTH",
"523 138 OFFCURVE",
"527 258 OFFCURVE",
"401 281 CURVE SMOOTH",
"353 290 OFFCURVE",
"308 264 OFFCURVE",
"323 260 CURVE SMOOTH",
"416 235 OFFCURVE",
"457 136 OFFCURVE",
"473 68 CURVE SMOOTH"
);
}
);
width = 727;
}
);
unicode = 0052;
},
{
glyphname = S;
lastChange = "2020-01-10 15:16:43 +0000";
layers = (
{
layerId = "CA066C67-EDFC-49EB-AE27-EC7C0259E992";
paths = (
{
closed = 1;
nodes = (
"51 624 OFFCURVE",
"136 700 OFFCURVE",
"256 700 CURVE SMOOTH",
"360 700 OFFCURVE",
"427 643 OFFCURVE",
"439 643 CURVE SMOOTH",
"446 643 OFFCURVE",
"449 653 OFFCURVE",
"449 670 CURVE SMOOTH",
"449 681 OFFCURVE",
"456 685 OFFCURVE",
"462 685 CURVE SMOOTH",
"469 685 OFFCURVE",
"476 680 OFFCURVE",
"476 668 CURVE SMOOTH",
"476 666 OFFCURVE",
"476 618 OFFCURVE",
"476 568 CURVE SMOOTH",
"476 518 OFFCURVE",
"476 494 OFFCURVE",
"476 478 CURVE SMOOTH",
"476 463 OFFCURVE",
"469 455 OFFCURVE",
"462 455 CURVE SMOOTH",
"456 455 OFFCURVE",
"449 462 OFFCURVE",
"449 478 CURVE SMOOTH",
"449 569 OFFCURVE",
"374 673 OFFCURVE",
"256 673 CURVE SMOOTH",
"164 673 OFFCURVE",
"110 620 OFFCURVE",
"110 563 CURVE SMOOTH",
"110 481 OFFCURVE",
"174 445 OFFCURVE",
"260 408 CURVE SMOOTH",
"376 358 OFFCURVE",
"497 295 OFFCURVE",
"497 165 CURVE SMOOTH",
"497 54 OFFCURVE",
"393 0 OFFCURVE",
"273 0 CURVE SMOOTH",
"140 0 OFFCURVE",
"79 76 OFFCURVE",
"69 76 CURVE SMOOTH",
"60 76 OFFCURVE",
"57 52 OFFCURVE",
"57 36 CURVE SMOOTH",
"57 25 OFFCURVE",
"50 19 OFFCURVE",
"43 19 CURVE SMOOTH",
"36 19 OFFCURVE",
"30 24 OFFCURVE",
"30 35 CURVE SMOOTH",
"30 37 OFFCURVE",
"30 96 OFFCURVE",
"30 146 CURVE SMOOTH",
"30 185 OFFCURVE",
"30 234 OFFCURVE",
"30 236 CURVE SMOOTH",
"30 249 OFFCURVE",
"37 254 OFFCURVE",
"44 254 CURVE SMOOTH",
"50 254 OFFCURVE",
"57 249 OFFCURVE",
"57 239 CURVE SMOOTH",
"57 123 OFFCURVE",
"164 27 OFFCURVE",
"272 27 CURVE SMOOTH",
"377 27 OFFCURVE",
"432 65 OFFCURVE",
"432 156 CURVE SMOOTH",
"432 243 OFFCURVE",
"325 294 OFFCURVE",
"245 328 CURVE SMOOTH",
"162 363 OFFCURVE",
"51 413 OFFCURVE",
"51 529 CURVE SMOOTH"
);
}
);
width = 527;
}
);
unicode = 0053;
},
{
glyphname = T;
lastChange = "2020-01-10 13:11:06 +0000";
layers = (
{
layerId = "CA066C67-EDFC-49EB-AE27-EC7C0259E992";
paths = (
{
closed = 1;
nodes = (
"193 653 OFFCURVE",
"162 658 OFFCURVE",
"123 632 CURVE SMOOTH",
"77 602 OFFCURVE",
"66 545 OFFCURVE",
"66 496 CURVE SMOOTH",
"66 478 OFFCURVE",
"55 470 OFFCURVE",
"46 470 CURVE SMOOTH",
"38 470 OFFCURVE",
"30 478 OFFCURVE",
"30 494 CURVE SMOOTH",
"30 526 OFFCURVE",
"34 572 OFFCURVE",
"41 644 CURVE SMOOTH",
"44 674 OFFCURVE",
"56 680 OFFCURVE",
"68 680 CURVE SMOOTH",
"72 680 OFFCURVE",
"277 681 OFFCURVE",
"358 681 CURVE SMOOTH",
"439 681 OFFCURVE",
"644 680 OFFCURVE",
"648 680 CURVE SMOOTH",
"660 680 OFFCURVE",
"672 674 OFFCURVE",
"675 644 CURVE SMOOTH",
"682 572 OFFCURVE",
"686 526 OFFCURVE",
"686 494 CURVE SMOOTH",
"686 478 OFFCURVE",
"678 470 OFFCURVE",
"670 470 CURVE SMOOTH",
"661 470 OFFCURVE",
"650 478 OFFCURVE",
"650 496 CURVE SMOOTH",
"650 545 OFFCURVE",
"639 602 OFFCURVE",
"593 632 CURVE SMOOTH",
"554 658 OFFCURVE",
"530 653 OFFCURVE",
"402 654 CURVE",
"394 622 OFFCURVE",
"393 467 OFFCURVE",
"393 341 CURVE SMOOTH",
"393 215 OFFCURVE",
"394 100 OFFCURVE",
"402 68 CURVE SMOOTH",
"413 25 OFFCURVE",
"457 22 OFFCURVE",
"509 28 CURVE SMOOTH",
"537 31 OFFCURVE",
"541 1 OFFCURVE",
"511 1 CURVE SMOOTH",
"507 1 OFFCURVE",
"436 1 OFFCURVE",
"358 1 CURVE SMOOTH",
"280 1 OFFCURVE",
"209 1 OFFCURVE",
"205 1 CURVE SMOOTH",
"175 1 OFFCURVE",
"179 31 OFFCURVE",
"207 28 CURVE SMOOTH",
"259 22 OFFCURVE",
"303 25 OFFCURVE",
"314 68 CURVE SMOOTH",
"322 100 OFFCURVE",
"323 215 OFFCURVE",
"323 341 CURVE SMOOTH",
"323 467 OFFCURVE",
"328 622 OFFCURVE",
"318 654 CURVE"
);
}
);
width = 716;
}
);
unicode = 0054;
},
{
glyphname = U;
lastChange = "2020-01-14 06:19:07 +0000";
layers = (
{
layerId = "CA066C67-EDFC-49EB-AE27-EC7C0259E992";
paths = (
{
closed = 1;
nodes = (
"159 73 OFFCURVE",
"159 313 CURVE SMOOTH",
"159 358 OFFCURVE",
"164 556 OFFCURVE",
"150 614 CURVE SMOOTH",
"142 647 OFFCURVE",
"114 656 OFFCURVE",
"78 656 CURVE SMOOTH",
"67 656 OFFCURVE",
"55 655 OFFCURVE",
"43 654 CURVE SMOOTH",
"28 653 OFFCURVE",
"20 660 OFFCURVE",
"20 667 CURVE SMOOTH",
"20 674 OFFCURVE",
"27 681 OFFCURVE",
"41 681 CURVE SMOOTH",
"45 681 OFFCURVE",
"116 681 OFFCURVE",
"194 681 CURVE SMOOTH",
"272 681 OFFCURVE",
"343 681 OFFCURVE",
"347 681 CURVE SMOOTH",
"361 681 OFFCURVE",
"368 674 OFFCURVE",
"368 668 CURVE SMOOTH",
"368 661 OFFCURVE",
"361 654 OFFCURVE",
"349 654 CURVE SMOOTH",
"346 654 OFFCURVE",
"315 656 OFFCURVE",
"308 656 CURVE SMOOTH",
"272 656 OFFCURVE",
"247 647 OFFCURVE",
"239 614 CURVE SMOOTH",
"225 556 OFFCURVE",
"230 340 OFFCURVE",
"230 283 CURVE SMOOTH",
"230 122 OFFCURVE",
"311 38 OFFCURVE",
"407 38 CURVE SMOOTH",
"516 38 OFFCURVE",
"616 117 OFFCURVE",
"616 283 CURVE SMOOTH",
"616 340 OFFCURVE",
"621 556 OFFCURVE",
"607 614 CURVE SMOOTH",
"599 647 OFFCURVE",
"571 656 OFFCURVE",
"535 656 CURVE SMOOTH",
"528 656 OFFCURVE",
"499 654 OFFCURVE",
"496 654 CURVE SMOOTH",
"484 654 OFFCURVE",
"477 661 OFFCURVE",
"477 668 CURVE SMOOTH",
"477 674 OFFCURVE",
"484 681 OFFCURVE",
"498 681 CURVE SMOOTH",
"498 681 OFFCURVE",
"769 681 OFFCURVE",
"774 681 CURVE SMOOTH",
"788 681 OFFCURVE",
"795 674 OFFCURVE",
"795 667 CURVE SMOOTH",
"795 660 OFFCURVE",
"787 653 OFFCURVE",
"772 654 CURVE SMOOTH",
"760 655 OFFCURVE",
"748 656 OFFCURVE",
"737 656 CURVE SMOOTH",
"701 656 OFFCURVE",
"673 647 OFFCURVE",
"665 614 CURVE SMOOTH",
"651 556 OFFCURVE",
"656 358 OFFCURVE",
"656 313 CURVE SMOOTH",
"656 73 OFFCURVE",
"507 6 OFFCURVE",
"409 6 CURVE SMOOTH",
"285 6 OFFCURVE"
);
}
);
width = 820;
}
);
unicode = 0055;
},
{
glyphname = V;
lastChange = "2020-01-10 14:30:24 +0000";
layers = (
{
layerId = "CA066C67-EDFC-49EB-AE27-EC7C0259E992";
paths = (
{
closed = 1;
nodes = (
"11 679 OFFCURVE",
"15 649 OFFCURVE",
"43 652 CURVE SMOOTH",
"96 658 OFFCURVE",
"138 653 OFFCURVE",
"156 605 CURVE SMOOTH",
"370 21 LINE SMOOTH",
"378 0 OFFCURVE",
"406 -9 OFFCURVE",
"417 21 CURVE SMOOTH",
"633 599 LINE SMOOTH",
"651 647 OFFCURVE",
"697 658 OFFCURVE",
"736 652 CURVE SMOOTH",
"760 648 OFFCURVE",
"763 679 OFFCURVE",
"737 679 CURVE SMOOTH",
"616 679 LINE",
"499 679 LINE SMOOTH",
"473 679 OFFCURVE",
"476 649 OFFCURVE",
"500 652 CURVE SMOOTH",
"570 661 OFFCURVE",
"600 633 OFFCURVE",
"582 581 CURVE SMOOTH",
"414 106 LINE",
"238 612 LINE SMOOTH",
"225 650 OFFCURVE",
"273 658 OFFCURVE",
"325 652 CURVE SMOOTH",
"353 649 OFFCURVE",
"357 679 OFFCURVE",
"327 679 CURVE SMOOTH",
"323 679 OFFCURVE",
"252 679 OFFCURVE",
"194 679 CURVE SMOOTH",
"41 679 LINE SMOOTH"
);
}
);
width = 775;
}
);
unicode = 0056;
},
{
glyphname = W;
lastChange = "2020-01-10 14:32:50 +0000";
layers = (
{
layerId = "CA066C67-EDFC-49EB-AE27-EC7C0259E992";
paths = (
{
closed = 1;
nodes = (
"11 679 OFFCURVE",
"15 649 OFFCURVE",
"43 652 CURVE SMOOTH",
"96 658 OFFCURVE",
"141 653 OFFCURVE",
"156 605 CURVE SMOOTH",
"340 21 LINE SMOOTH",
"347 0 OFFCURVE",
"387 -9 OFFCURVE",
"397 21 CURVE SMOOTH",
"583 599 LINE SMOOTH",
"598 647 OFFCURVE",
"567 685 OFFCURVE",
"550 633 CURVE SMOOTH",
"384 116 LINE",
"238 612 LINE SMOOTH",
"227 650 OFFCURVE",
"273 658 OFFCURVE",
"325 652 CURVE SMOOTH",
"353 649 OFFCURVE",
"357 679 OFFCURVE",
"327 679 CURVE SMOOTH",
"323 679 OFFCURVE",
"252 679 OFFCURVE",
"194 679 CURVE SMOOTH",
"41 679 LINE SMOOTH"
);
},
{
closed = 1;
nodes = (
"396 679 OFFCURVE",
"400 649 OFFCURVE",
"428 652 CURVE SMOOTH",
"481 658 OFFCURVE",
"506 653 OFFCURVE",
"521 605 CURVE SMOOTH",
"705 21 LINE SMOOTH",
"712 0 OFFCURVE",
"752 -9 OFFCURVE",
"762 21 CURVE SMOOTH",
"948 599 LINE SMOOTH",
"963 647 OFFCURVE",
"1012 658 OFFCURVE",
"1051 652 CURVE SMOOTH",
"1075 648 OFFCURVE",
"1078 679 OFFCURVE",
"1052 679 CURVE SMOOTH",
"931 679 LINE",
"814 679 LINE SMOOTH",
"788 679 OFFCURVE",
"791 649 OFFCURVE",
"815 652 CURVE SMOOTH",
"885 661 OFFCURVE",
"914 633 OFFCURVE",
"897 581 CURVE SMOOTH",
"749 116 LINE",
"607 599 LINE SMOOTH",
"596 637 OFFCURVE",
"648 658 OFFCURVE",
"700 652 CURVE SMOOTH",
"728 649 OFFCURVE",
"732 679 OFFCURVE",
"702 679 CURVE SMOOTH",
"698 679 OFFCURVE",
"617 679 OFFCURVE",
"559 679 CURVE SMOOTH",
"426 679 LINE SMOOTH"
);
}
);
width = 1090;
}
);
unicode = 0057;
},
{
glyphname = X;
lastChange = "2020-01-10 14:45:04 +0000";
layers = (
{
layerId = "CA066C67-EDFC-49EB-AE27-EC7C0259E992";
paths = (
{
closed = 1;
nodes = (
"238 612 LINE SMOOTH",
"213 651 OFFCURVE",
"273 658 OFFCURVE",
"325 652 CURVE SMOOTH",
"353 649 OFFCURVE",
"357 679 OFFCURVE",
"327 679 CURVE SMOOTH",
"323 679 OFFCURVE",
"252 679 OFFCURVE",
"194 679 CURVE SMOOTH",
"41 679 LINE SMOOTH",
"11 679 OFFCURVE",
"15 649 OFFCURVE",
"43 652 CURVE SMOOTH",
"96 658 OFFCURVE",
"126 652 OFFCURVE",
"156 605 CURVE SMOOTH",
"502 67 LINE SMOOTH",
"526 29 OFFCURVE",
"467 21 OFFCURVE",
"415 27 CURVE SMOOTH",
"387 30 OFFCURVE",
"383 0 OFFCURVE",
"413 0 CURVE SMOOTH",
"417 0 OFFCURVE",
"488 0 OFFCURVE",
"546 0 CURVE SMOOTH",
"699 0 LINE SMOOTH",
"729 0 OFFCURVE",
"725 30 OFFCURVE",
"697 27 CURVE SMOOTH",
"644 21 OFFCURVE",
"614 27 OFFCURVE",
"584 74 CURVE SMOOTH"
);
},
{
closed = 1;
nodes = (
"152 80 LINE SMOOTH",
"124 43 OFFCURVE",
"78 21 OFFCURVE",
"39 27 CURVE SMOOTH",
"15 31 OFFCURVE",
"12 0 OFFCURVE",
"38 0 CURVE SMOOTH",
"169 0 LINE",
"306 0 LINE SMOOTH",
"332 0 OFFCURVE",
"329 30 OFFCURVE",
"305 27 CURVE SMOOTH",
"235 18 OFFCURVE",
"167 50 OFFCURVE",
"203 98 CURVE SMOOTH",
"583 599 LINE SMOOTH",
"609 633 OFFCURVE",
"657 658 OFFCURVE",
"696 652 CURVE SMOOTH",
"720 648 OFFCURVE",
"723 679 OFFCURVE",
"697 679 CURVE SMOOTH",
"566 679 LINE",
"429 679 LINE SMOOTH",
"403 679 OFFCURVE",
"406 649 OFFCURVE",
"430 652 CURVE SMOOTH",
"500 661 OFFCURVE",
"568 628 OFFCURVE",
"532 581 CURVE SMOOTH"
);
}
);
width = 745;
}
);
unicode = 0058;
},
{
glyphname = Y;
lastChange = "2020-01-10 15:28:08 +0000";
layers = (
{
guideLines = (
{
position = "{511, 258}";
}
);
layerId = "CA066C67-EDFC-49EB-AE27-EC7C0259E992";
paths = (
{
closed = 1;
nodes = (
"381 221 OFFCURVE",
"400 212 OFFCURVE",
"417 240 CURVE SMOOTH",
"633 599 LINE SMOOTH",
"663 648 OFFCURVE",
"697 658 OFFCURVE",
"736 652 CURVE SMOOTH",
"760 648 OFFCURVE",
"763 679 OFFCURVE",
"737 679 CURVE SMOOTH",
"616 679 LINE",
"499 679 LINE SMOOTH",
"473 679 OFFCURVE",
"476 649 OFFCURVE",
"500 652 CURVE SMOOTH",
"570 661 OFFCURVE",
"616 636 OFFCURVE",
"582 581 CURVE SMOOTH",
"414 304 LINE",
"238 612 LINE SMOOTH",
"215 652 OFFCURVE",
"273 658 OFFCURVE",
"325 652 CURVE SMOOTH",
"353 649 OFFCURVE",
"357 679 OFFCURVE",
"327 679 CURVE SMOOTH",
"323 679 OFFCURVE",
"252 679 OFFCURVE",
"194 679 CURVE SMOOTH",
"41 679 LINE SMOOTH",
"11 679 OFFCURVE",
"15 649 OFFCURVE",
"43 652 CURVE SMOOTH",
"96 658 OFFCURVE",
"128 652 OFFCURVE",
"156 605 CURVE SMOOTH",
"370 240 LINE SMOOTH"
);
},
{
closed = 1;
nodes = (
"244 1 OFFCURVE",
"315 1 OFFCURVE",
"393 1 CURVE SMOOTH",
"471 1 OFFCURVE",
"542 1 OFFCURVE",
"546 1 CURVE SMOOTH",
"576 1 OFFCURVE",
"572 31 OFFCURVE",
"544 28 CURVE SMOOTH",
"492 22 OFFCURVE",
"448 25 OFFCURVE",
"437 68 CURVE SMOOTH",
"429 100 OFFCURVE",
"428 178 OFFCURVE",
"428 304 CURVE",
"358 304 LINE",
"358 178 OFFCURVE",
"357 100 OFFCURVE",
"349 68 CURVE SMOOTH",
"338 25 OFFCURVE",
"294 22 OFFCURVE",
"242 28 CURVE SMOOTH",
"214 31 OFFCURVE",
"210 1 OFFCURVE",
"240 1 CURVE SMOOTH"
);
}
);
width = 775;
}
);
unicode = 0059;
},
{
glyphname = Z;
lastChange = "2020-01-10 14:54:34 +0000";
layers = (
{
layerId = "CA066C67-EDFC-49EB-AE27-EC7C0259E992";
paths = (
{
closed = 1;
nodes = (
"134 0 OFFCURVE",
"494 1 OFFCURVE",
"498 1 CURVE SMOOTH",
"510 1 OFFCURVE",
"522 7 OFFCURVE",
"525 37 CURVE SMOOTH",
"532 109 OFFCURVE",
"536 155 OFFCURVE",
"536 187 CURVE SMOOTH",
"536 203 OFFCURVE",
"528 211 OFFCURVE",
"520 211 CURVE SMOOTH",
"511 211 OFFCURVE",
"500 203 OFFCURVE",
"500 185 CURVE SMOOTH",
"500 136 OFFCURVE",
"489 79 OFFCURVE",
"443 49 CURVE SMOOTH",
"417 32 OFFCURVE",
"395 27 OFFCURVE",
"346 27 CURVE SMOOTH",
"311 27 OFFCURVE",
"136 27 OFFCURVE",
"94 27 CURVE",
"185 225 OFFCURVE",
"502 500 OFFCURVE",
"542 633 CURVE SMOOTH",
"551 663 OFFCURVE",
"546 681 OFFCURVE",
"511 681 CURVE SMOOTH",
"422 681 OFFCURVE",
"62 680 OFFCURVE",
"58 680 CURVE SMOOTH",
"46 680 OFFCURVE",
"34 674 OFFCURVE",
"31 644 CURVE SMOOTH",
"24 572 OFFCURVE",
"20 526 OFFCURVE",
"20 494 CURVE SMOOTH",
"20 478 OFFCURVE",
"28 470 OFFCURVE",
"36 470 CURVE SMOOTH",
"45 470 OFFCURVE",
"56 478 OFFCURVE",
"56 496 CURVE SMOOTH",
"56 545 OFFCURVE",
"67 602 OFFCURVE",
"113 632 CURVE SMOOTH",
"139 649 OFFCURVE",
"161 654 OFFCURVE",
"220 654 CURVE SMOOTH",
"245 654 OFFCURVE",
"420 654 OFFCURVE",
"462 654 CURVE",
"458 574 OFFCURVE",
"43 155 OFFCURVE",
"22 36 CURVE SMOOTH",
"18 13 OFFCURVE",
"26 0 OFFCURVE",
"45 0 CURVE SMOOTH"
);
}
);
width = 566;
}
);
unicode = 005A;
},
{
glyphname = a;
lastChange = "2020-01-12 12:27:10 +0000";
layers = (
{
layerId = "CA066C67-EDFC-49EB-AE27-EC7C0259E992";
paths = (
{
closed = 1;
nodes = (
"15 18 OFFCURVE",
"69 -1 OFFCURVE",
"133 -1 CURVE SMOOTH",
"169 -1 OFFCURVE",
"209 16 OFFCURVE",
"243 44 CURVE",
"254 10 OFFCURVE",
"284 0 OFFCURVE",
"311 0 CURVE SMOOTH",
"335 0 OFFCURVE",
"371 9 OFFCURVE",
"371 26 CURVE SMOOTH",
"371 32 OFFCURVE",
"366 37 OFFCURVE",
"360 37 CURVE SMOOTH",
"356 37 OFFCURVE",
"338 26 OFFCURVE",
"333 26 CURVE SMOOTH",
"318 26 OFFCURVE",
"308 43 OFFCURVE",
"308 88 CURVE SMOOTH",
"308 269 LINE SMOOTH",
"308 344 OFFCURVE",
"246 380 OFFCURVE",
"174 380 CURVE SMOOTH",
"111 380 OFFCURVE",
"47 336 OFFCURVE",
"47 289 CURVE SMOOTH",
"47 267 OFFCURVE",
"61 256 OFFCURVE",
"76 256 CURVE SMOOTH",
"91 256 OFFCURVE",
"108 268 OFFCURVE",
"105 291 CURVE SMOOTH",
"101 323 OFFCURVE",
"136 359 OFFCURVE",
"170 359 CURVE SMOOTH",
"209 359 OFFCURVE",
"238 335 OFFCURVE",
"238 284 CURVE SMOOTH",
"238 206 LINE",
"175 192 OFFCURVE",
"26 170 OFFCURVE",
"20 89 CURVE SMOOTH"
);
},
{
closed = 1;
nodes = (
"100 162 OFFCURVE",
"180 168 OFFCURVE",
"238 180 CURVE",
"238 146 OFFCURVE",
"242 103 OFFCURVE",
"232 78 CURVE SMOOTH",
"205 10 OFFCURVE",
"73 14 OFFCURVE",
"89 102 CURVE SMOOTH"
);
}
);
width = 391;
}
);
unicode = 0061;
},
{
glyphname = b;
lastChange = "2020-01-14 14:02:08 +0000";
layers = (
{
layerId = "CA066C67-EDFC-49EB-AE27-EC7C0259E992";
paths = (
{
closed = 1;
nodes = (
"31 630 OFFCURVE",
"38 625 OFFCURVE",
"52 625 CURVE SMOOTH",
"79 625 OFFCURVE",
"88 597 OFFCURVE",
"88 565 CURVE SMOOTH",
"88 531 OFFCURVE",
"94 442 OFFCURVE",
"94 235 CURVE SMOOTH",
"94 109 OFFCURVE",
"92 66 OFFCURVE",
"82 37 CURVE SMOOTH",
"78 25 OFFCURVE",
"72 19 OFFCURVE",
"72 13 CURVE SMOOTH",
"72 6 OFFCURVE",
"79 -1 OFFCURVE",
"93 4 CURVE SMOOTH",
"134 19 OFFCURVE",
"150 0 OFFCURVE",
"229 0 CURVE SMOOTH",
"337 0 OFFCURVE",
"433 73 OFFCURVE",
"433 189 CURVE SMOOTH",
"433 319 OFFCURVE",
"348 380 OFFCURVE",
"276 380 CURVE SMOOTH",
"232 380 OFFCURVE",
"187 352 OFFCURVE",
"155 318 CURVE",
"155 351 LINE SMOOTH",
"155 481 OFFCURVE",
"164 655 OFFCURVE",
"164 687 CURVE SMOOTH",
"164 695 OFFCURVE",
"158 699 OFFCURVE",
"150 699 CURVE SMOOTH",
"132 699 OFFCURVE",
"100 663 OFFCURVE",
"52 651 CURVE SMOOTH",
"38 648 OFFCURVE",
"31 641 OFFCURVE",
"31 636 CURVE SMOOTH"
);
},
{
closed = 1;
nodes = (
"155 292 OFFCURVE",
"209 334 OFFCURVE",
"247 334 CURVE SMOOTH",
"299 334 OFFCURVE",
"355 278 OFFCURVE",
"355 190 CURVE SMOOTH",
"355 81 OFFCURVE",
"303 31 OFFCURVE",
"243 31 CURVE SMOOTH",
"186 31 OFFCURVE",
"158 52 OFFCURVE",
"158 87 CURVE SMOOTH",
"158 134 OFFCURVE",
"155 171 OFFCURVE",
"155 211 CURVE SMOOTH"
);
}
);
width = 453;
}
);
unicode = 0062;
},
{
glyphname = c;
lastChange = "2020-01-14 14:01:45 +0000";
layers = (
{
layerId = "CA066C67-EDFC-49EB-AE27-EC7C0259E992";
paths = (
{
closed = 1;
nodes = (
"325 41 OFFCURVE",
"265 0 OFFCURVE",
"201 0 CURVE SMOOTH",
"120 0 OFFCURVE",
"20 60 OFFCURVE",
"20 189 CURVE SMOOTH",
"20 319 OFFCURVE",
"120 380 OFFCURVE",
"201 380 CURVE SMOOTH",
"289 380 OFFCURVE",
"335 336 OFFCURVE",
"348 306 CURVE SMOOTH",
"381 230 OFFCURVE",
"301 207 OFFCURVE",
"298 266 CURVE SMOOTH",
"295 316 OFFCURVE",
"265 354 OFFCURVE",
"201 354 CURVE SMOOTH",
"147 354 OFFCURVE",
"98 288 OFFCURVE",
"98 190 CURVE SMOOTH",
"98 91 OFFCURVE",
"157 36 OFFCURVE",
"211 36 CURVE SMOOTH",
"263 36 OFFCURVE",
"301 60 OFFCURVE",
"331 111 CURVE SMOOTH",
"341 129 OFFCURVE",
"362 119 OFFCURVE",
"353 100 CURVE SMOOTH"
);
}
);
width = 376;
}
);
unicode = 0063;
},
{
glyphname = d;
lastChange = "2020-01-14 14:02:03 +0000";
layers = (
{
layerId = "CA066C67-EDFC-49EB-AE27-EC7C0259E992";
paths = (
{
closed = 1;
nodes = (
"30 37 OFFCURVE",
"131 0 OFFCURVE",
"212 0 CURVE SMOOTH",
"254 0 OFFCURVE",
"292 11 OFFCURVE",
"322 33 CURVE",
"330 10 OFFCURVE",
"343 0 OFFCURVE",
"358 0 CURVE SMOOTH",
"374 0 OFFCURVE",
"391 22 OFFCURVE",
"427 31 CURVE SMOOTH",
"452 37 OFFCURVE",
"453 66 OFFCURVE",
"424 58 CURVE SMOOTH",
"409 54 OFFCURVE",
"399 51 OFFCURVE",
"391 64 CURVE SMOOTH",
"375 90 OFFCURVE",
"377 212 OFFCURVE",
"377 341 CURVE SMOOTH",
"377 560 OFFCURVE",
"391 653 OFFCURVE",
"391 685 CURVE SMOOTH",
"391 697 OFFCURVE",
"378 701 OFFCURVE",
"363 692 CURVE SMOOTH",
"344 681 OFFCURVE",
"313 660 OFFCURVE",
"279 649 CURVE SMOOTH",
"251 640 OFFCURVE",
"251 623 OFFCURVE",
"279 623 CURVE SMOOTH",
"306 623 OFFCURVE",
"315 595 OFFCURVE",
"315 563 CURVE SMOOTH",
"315 546 OFFCURVE",
"316 457 OFFCURVE",
"317 357 CURVE",
"292 373 OFFCURVE",
"256 384 OFFCURVE",
"202 377 CURVE SMOOTH",
"121 367 OFFCURVE",
"30 299 OFFCURVE",
"30 179 CURVE SMOOTH"
);
},
{
closed = 1;
nodes = (
"106 294 OFFCURVE",
"167 344 OFFCURVE",
"210 351 CURVE SMOOTH",
"262 360 OFFCURVE",
"317 321 OFFCURVE",
"317 258 CURVE SMOOTH",
"317 175 OFFCURVE",
"315 164 OFFCURVE",
"315 114 CURVE SMOOTH",
"315 71 OFFCURVE",
"276 26 OFFCURVE",
"225 26 CURVE SMOOTH",
"172 26 OFFCURVE",
"106 82 OFFCURVE",
"106 190 CURVE SMOOTH"
);
}
);
width = 482;
}
);
unicode = 0064;
},
{
glyphname = e;
lastChange = "2020-01-14 14:02:50 +0000";
layers = (
{
layerId = "CA066C67-EDFC-49EB-AE27-EC7C0259E992";
paths = (
{
closed = 1;
nodes = (
"297 15 OFFCURVE",
"255 0 OFFCURVE",
"201 0 CURVE SMOOTH",
"120 0 OFFCURVE",
"20 60 OFFCURVE",
"20 189 CURVE SMOOTH",
"20 319 OFFCURVE",
"120 380 OFFCURVE",
"191 380 CURVE SMOOTH",
"269 380 OFFCURVE",
"336 338 OFFCURVE",
"340 265 CURVE SMOOTH",
"342 231 OFFCURVE",
"326 214 OFFCURVE",
"311 214 CURVE SMOOTH",
"306 214 OFFCURVE",
"142 215 OFFCURVE",
"72 215 CURVE SMOOTH",
"45 215 OFFCURVE",
"59 239 OFFCURVE",
"72 239 CURVE SMOOTH",
"106 239 OFFCURVE",
"189 240 OFFCURVE",
"241 240 CURVE SMOOTH",
"269 240 OFFCURVE",
"269 258 OFFCURVE",
"269 270 CURVE SMOOTH",
"269 319 OFFCURVE",
"238 354 OFFCURVE",
"191 354 CURVE SMOOTH",
"147 354 OFFCURVE",
"93 299 OFFCURVE",
"93 190 CURVE SMOOTH",
"93 91 OFFCURVE",
"157 36 OFFCURVE",
"211 36 CURVE SMOOTH",
"253 36 OFFCURVE",
"296 55 OFFCURVE",
"324 99 CURVE SMOOTH",
"339 123 OFFCURVE",
"360 104 OFFCURVE",
"344 81 CURVE SMOOTH"
);
}
);
width = 370;
}
);
unicode = 0065;
},
{
glyphname = f;
lastChange = "2020-01-12 13:00:40 +0000";
layers = (
{
layerId = "CA066C67-EDFC-49EB-AE27-EC7C0259E992";
paths = (
{
closed = 1;
nodes = (
"45 1 OFFCURVE",
"76 1 OFFCURVE",
"154 1 CURVE SMOOTH",
"232 1 OFFCURVE",
"263 1 OFFCURVE",
"267 1 CURVE SMOOTH",
"297 1 OFFCURVE",
"293 32 OFFCURVE",
"265 28 CURVE SMOOTH",
"223 22 OFFCURVE",
"209 25 OFFCURVE",
"198 68 CURVE SMOOTH",
"190 100 OFFCURVE",
"189 215 OFFCURVE",
"189 341 CURVE SMOOTH",
"189 464 OFFCURVE",
"187 522 OFFCURVE",
"199 572 CURVE SMOOTH",
"226 684 OFFCURVE",
"315 684 OFFCURVE",
"336 651 CURVE SMOOTH",
"347 634 OFFCURVE",
"415 659 OFFCURVE",
"392 679 CURVE SMOOTH",
"352 713 OFFCURVE",
"208 714 OFFCURVE",
"152 594 CURVE SMOOTH",
"121 528 OFFCURVE",
"119 487 OFFCURVE",
"119 341 CURVE SMOOTH",
"119 215 OFFCURVE",
"118 100 OFFCURVE",
"110 68 CURVE SMOOTH",
"99 25 OFFCURVE",
"85 22 OFFCURVE",
"43 28 CURVE SMOOTH",
"15 32 OFFCURVE",
"11 1 OFFCURVE",
"41 1 CURVE SMOOTH"
);
},
{
closed = 1;
nodes = (
"117 348 OFFCURVE",
"221 349 OFFCURVE",
"276 344 CURVE SMOOTH",
"300 342 OFFCURVE",
"302 382 OFFCURVE",
"274 380 CURVE SMOOTH",
"229 377 OFFCURVE",
"111 377 OFFCURVE",
"74 380 CURVE SMOOTH",
"48 382 OFFCURVE",
"48 342 OFFCURVE",
"73 344 CURVE SMOOTH"
);
}
);
width = 377;
}
);
unicode = 0066;
},
{
glyphname = g;
lastChange = "2020-01-14 10:55:39 +0000";
layers = (
{
layerId = "CA066C67-EDFC-49EB-AE27-EC7C0259E992";
paths = (
{
closed = 1;
nodes = (
"243 -173 OFFCURVE",
"353 -107 OFFCURVE",
"356 -21 CURVE SMOOTH",
"360 81 OFFCURVE",
"269 97 OFFCURVE",
"179 97 CURVE SMOOTH",
"119 97 OFFCURVE",
"97 101 OFFCURVE",
"92 126 CURVE SMOOTH",
"91 132 OFFCURVE",
"106 149 OFFCURVE",
"130 154 CURVE SMOOTH",
"145 157 OFFCURVE",
"146 179 OFFCURVE",
"119 173 CURVE SMOOTH",
"110 171 OFFCURVE",
"44 125 OFFCURVE",
"40 109 CURVE SMOOTH",
"30 70 OFFCURVE",
"81 32 OFFCURVE",
"122 32 CURVE SMOOTH",
"222 32 OFFCURVE",
"286 39 OFFCURVE",
"292 -32 CURVE SMOOTH",
"298 -107 OFFCURVE",
"241 -145 OFFCURVE",
"180 -145 CURVE SMOOTH",
"51 -145 OFFCURVE",
"18 16 OFFCURVE",
"152 41 CURVE SMOOTH",
"168 44 OFFCURVE",
"179 55 OFFCURVE",
"179 63 CURVE SMOOTH",
"179 67 OFFCURVE",
"175 72 OFFCURVE",
"167 70 CURVE SMOOTH",
"112 56 OFFCURVE",
"15 19 OFFCURVE",
"8 -40 CURVE SMOOTH",
"-1 -119 OFFCURVE",
"54 -173 OFFCURVE",
"152 -173 CURVE SMOOTH"
);
},
{
closed = 1;
nodes = (
"233 140 OFFCURVE",
"300 177 OFFCURVE",
"300 257 CURVE SMOOTH",
"300 340 OFFCURVE",
"233 379 OFFCURVE",
"171 379 CURVE SMOOTH",
"109 379 OFFCURVE",
"42 340 OFFCURVE",
"42 257 CURVE SMOOTH",
"42 177 OFFCURVE",
"109 140 OFFCURVE",
"171 140 CURVE SMOOTH"
);
},
{
closed = 1;
nodes = (
"132 166 OFFCURVE",
"105 204 OFFCURVE",
"105 259 CURVE SMOOTH",
"105 315 OFFCURVE",
"132 354 OFFCURVE",
"171 354 CURVE SMOOTH",
"210 354 OFFCURVE",
"237 315 OFFCURVE",
"237 259 CURVE SMOOTH",
"237 204 OFFCURVE",
"210 166 OFFCURVE",
"171 166 CURVE SMOOTH"
);
},
{
closed = 1;
nodes = (
"283 343 OFFCURVE",
"317 340 OFFCURVE",
"346 340 CURVE SMOOTH",
"363 340 OFFCURVE",
"356 373 OFFCURVE",
"330 379 CURVE SMOOTH",
"304 385 OFFCURVE",
"255 360 OFFCURVE",
"234 336 CURVE SMOOTH",
"225 326 OFFCURVE",
"244 313 OFFCURVE",
"256 322 CURVE SMOOTH"
);
}
);
width = 369;
}
);
unicode = 0067;
},
{
glyphname = h;
lastChange = "2020-01-12 17:45:07 +0000";
layers = (
{
layerId = "CA066C67-EDFC-49EB-AE27-EC7C0259E992";
paths = (
{
closed = 1;
nodes = (
"95 194 OFFCURVE",
"94 134 OFFCURVE",
"89 89 CURVE SMOOTH",
"84 50 OFFCURVE",
"72 23 OFFCURVE",
"43 28 CURVE SMOOTH",
"15 33 OFFCURVE",
"11 1 OFFCURVE",
"41 1 CURVE SMOOTH",
"65 1 OFFCURVE",
"76 1 OFFCURVE",
"121 1 CURVE SMOOTH",
"169 1 OFFCURVE",
"180 1 OFFCURVE",
"204 1 CURVE SMOOTH",
"234 1 OFFCURVE",
"230 33 OFFCURVE",
"202 28 CURVE SMOOTH",
"142 17 OFFCURVE",
"156 89 OFFCURVE",
"156 196 CURVE SMOOTH",
"156 290 OFFCURVE",
"202 334 OFFCURVE",
"242 334 CURVE SMOOTH",
"286 334 OFFCURVE",
"334 278 OFFCURVE",
"334 190 CURVE SMOOTH",
"334 102 OFFCURVE",
"341 19 OFFCURVE",
"288 28 CURVE SMOOTH",
"260 33 OFFCURVE",
"256 1 OFFCURVE",
"286 1 CURVE SMOOTH",
"310 1 OFFCURVE",
"321 1 OFFCURVE",
"369 1 CURVE SMOOTH",
"417 1 OFFCURVE",
"428 1 OFFCURVE",
"452 1 CURVE SMOOTH",
"482 1 OFFCURVE",
"478 33 OFFCURVE",
"450 28 CURVE SMOOTH",
"390 17 OFFCURVE",
"404 89 OFFCURVE",
"404 196 CURVE SMOOTH",
"404 326 OFFCURVE",
"329 380 OFFCURVE",
"267 380 CURVE SMOOTH",
"223 380 OFFCURVE",
"188 352 OFFCURVE",
"156 318 CURVE",
"156 351 LINE SMOOTH",
"156 481 OFFCURVE",
"165 655 OFFCURVE",
"165 687 CURVE SMOOTH",
"165 695 OFFCURVE",
"159 699 OFFCURVE",
"151 699 CURVE SMOOTH",
"133 699 OFFCURVE",
"101 663 OFFCURVE",
"53 651 CURVE SMOOTH",
"39 648 OFFCURVE",
"32 641 OFFCURVE",
"32 636 CURVE SMOOTH",
"32 630 OFFCURVE",
"39 625 OFFCURVE",
"53 625 CURVE SMOOTH",
"80 625 OFFCURVE",
"89 597 OFFCURVE",
"89 565 CURVE SMOOTH",
"89 531 OFFCURVE",
"95 442 OFFCURVE",
"95 235 CURVE SMOOTH"
);
}
);
width = 493;
}
);
unicode = 0068;
},
{
glyphname = i;
lastChange = "2020-01-12 17:44:57 +0000";
layers = (
{
layerId = "CA066C67-EDFC-49EB-AE27-EC7C0259E992";
paths = (
{
closed = 1;
nodes = (
"149 167 OFFCURVE",
"153 259 CURVE SMOOTH",
"155 307 OFFCURVE",
"159 353 OFFCURVE",
"159 368 CURVE SMOOTH",
"159 376 OFFCURVE",
"153 380 OFFCURVE",
"145 380 CURVE SMOOTH",
"127 380 OFFCURVE",
"99 344 OFFCURVE",
"51 332 CURVE SMOOTH",
"37 329 OFFCURVE",
"30 322 OFFCURVE",
"30 317 CURVE SMOOTH",
"30 311 OFFCURVE",
"37 306 OFFCURVE",
"51 306 CURVE SMOOTH",
"78 306 OFFCURVE",
"87 278 OFFCURVE",
"87 246 CURVE SMOOTH",
"87 168 OFFCURVE",
"94 101 OFFCURVE",
"83 60 CURVE SMOOTH",
"77 38 OFFCURVE",
"64 24 OFFCURVE",
"43 28 CURVE SMOOTH",
"15 33 OFFCURVE",
"11 1 OFFCURVE",
"41 1 CURVE SMOOTH",
"65 1 OFFCURVE",
"76 1 OFFCURVE",
"121 1 CURVE SMOOTH",
"169 1 OFFCURVE",
"180 1 OFFCURVE",
"204 1 CURVE SMOOTH",
"234 1 OFFCURVE",
"230 33 OFFCURVE",
"202 28 CURVE SMOOTH",
"173 23 OFFCURVE",
"161 34 OFFCURVE",
"156 60 CURVE SMOOTH",
"150 100 OFFCURVE"
);
},
{
closed = 1;
nodes = (
"145 446 OFFCURVE",
"170 471 OFFCURVE",
"170 502 CURVE SMOOTH",
"170 534 OFFCURVE",
"145 559 OFFCURVE",
"114 559 CURVE SMOOTH",
"83 559 OFFCURVE",
"58 534 OFFCURVE",
"58 502 CURVE SMOOTH",
"58 471 OFFCURVE",
"83 446 OFFCURVE",
"114 446 CURVE SMOOTH"
);
}
);
width = 245;
}
);
unicode = 0069;
},
{
glyphname = j;
lastChange = "2020-01-12 17:46:01 +0000";
layers = (
{
layerId = "CA066C67-EDFC-49EB-AE27-EC7C0259E992";
paths = (
{
closed = 1;
nodes = (
"153 126 OFFCURVE",
"153 259 CURVE SMOOTH",
"153 307 OFFCURVE",
"159 353 OFFCURVE",
"159 368 CURVE SMOOTH",
"159 376 OFFCURVE",
"153 380 OFFCURVE",
"145 380 CURVE SMOOTH",
"127 380 OFFCURVE",
"99 344 OFFCURVE",
"51 332 CURVE SMOOTH",
"37 329 OFFCURVE",
"30 322 OFFCURVE",
"30 317 CURVE SMOOTH",
"30 311 OFFCURVE",
"37 306 OFFCURVE",
"51 306 CURVE SMOOTH",
"78 306 OFFCURVE",
"85 278 OFFCURVE",
"87 246 CURVE SMOOTH",
"93 168 OFFCURVE",
"88 41 OFFCURVE",
"84 0 CURVE SMOOTH",
"78 -61 OFFCURVE",
"36 -97 OFFCURVE",
"15 -93 CURVE SMOOTH",
"-13 -88 OFFCURVE",
"-17 -120 OFFCURVE",
"13 -120 CURVE SMOOTH",
"37 -120 OFFCURVE",
"121 -83 OFFCURVE",
"141 -15 CURVE SMOOTH",
"159 45 OFFCURVE"
);
},
{
closed = 1;
nodes = (
"145 446 OFFCURVE",
"170 471 OFFCURVE",
"170 502 CURVE SMOOTH",
"170 534 OFFCURVE",
"145 559 OFFCURVE",
"114 559 CURVE SMOOTH",
"83 559 OFFCURVE",
"58 534 OFFCURVE",
"58 502 CURVE SMOOTH",
"58 471 OFFCURVE",
"83 446 OFFCURVE",
"114 446 CURVE SMOOTH"
);
}
);
width = 190;
}
);
unicode = 006A;
},
{
glyphname = k;
lastChange = "2020-01-13 13:31:33 +0000";
layers = (
{
layerId = "CA066C67-EDFC-49EB-AE27-EC7C0259E992";
paths = (
{
closed = 1;
nodes = (
"65 1 OFFCURVE",
"76 1 OFFCURVE",
"121 1 CURVE SMOOTH",
"169 1 OFFCURVE",
"180 1 OFFCURVE",
"204 1 CURVE SMOOTH",
"234 1 OFFCURVE",
"230 33 OFFCURVE",
"202 28 CURVE SMOOTH",
"142 17 OFFCURVE",
"156 99 OFFCURVE",
"156 206 CURVE SMOOTH",
"156 351 LINE SMOOTH",
"156 481 OFFCURVE",
"165 655 OFFCURVE",
"165 687 CURVE SMOOTH",
"165 695 OFFCURVE",
"159 699 OFFCURVE",
"151 699 CURVE SMOOTH",
"133 699 OFFCURVE",
"101 663 OFFCURVE",
"53 651 CURVE SMOOTH",
"39 648 OFFCURVE",
"32 641 OFFCURVE",
"32 636 CURVE SMOOTH",
"32 630 OFFCURVE",
"39 625 OFFCURVE",
"53 625 CURVE SMOOTH",
"80 625 OFFCURVE",
"89 597 OFFCURVE",
"89 565 CURVE SMOOTH",
"89 531 OFFCURVE",
"95 442 OFFCURVE",
"95 235 CURVE SMOOTH",
"95 194 OFFCURVE",
"94 134 OFFCURVE",
"89 89 CURVE SMOOTH",
"84 50 OFFCURVE",
"72 23 OFFCURVE",
"43 28 CURVE SMOOTH",
"15 33 OFFCURVE",
"11 1 OFFCURVE",
"41 1 CURVE SMOOTH"
);
},
{
closed = 1;
nodes = (
"290 1 OFFCURVE",
"301 1 OFFCURVE",
"349 1 CURVE SMOOTH",
"397 1 OFFCURVE",
"408 1 OFFCURVE",
"432 1 CURVE SMOOTH",
"462 1 OFFCURVE",
"458 29 OFFCURVE",
"430 28 CURVE SMOOTH",
"381 26 OFFCURVE",
"305 155 OFFCURVE",
"225 237 CURVE SMOOTH",
"213 249 OFFCURVE",
"167 220 OFFCURVE",
"178 207 CURVE SMOOTH",
"329 36 OFFCURVE",
"321 19 OFFCURVE",
"268 28 CURVE SMOOTH",
"240 33 OFFCURVE",
"236 1 OFFCURVE",
"266 1 CURVE SMOOTH"
);
},
{
closed = 1;
nodes = (
"246 237 OFFCURVE",
"345 353 OFFCURVE",
"394 351 CURVE SMOOTH",
"422 350 OFFCURVE",
"426 378 OFFCURVE",
"396 378 CURVE SMOOTH",
"372 378 OFFCURVE",
"361 378 OFFCURVE",
"333 378 CURVE SMOOTH",
"295 378 OFFCURVE",
"284 378 OFFCURVE",
"260 378 CURVE SMOOTH",
"230 378 OFFCURVE",
"234 346 OFFCURVE",
"262 351 CURVE SMOOTH",
"315 360 OFFCURVE",
"318 348 OFFCURVE",
"132 192 CURVE SMOOTH",
"119 181 OFFCURVE",
"141 153 OFFCURVE",
"154 164 CURVE SMOOTH"
);
}
);
width = 473;
}
);
unicode = 006B;
},
{
glyphname = l;
lastChange = "2020-01-12 17:53:30 +0000";
layers = (
{
layerId = "CA066C67-EDFC-49EB-AE27-EC7C0259E992";
paths = (
{
closed = 1;
nodes = (
"65 1 OFFCURVE",
"76 1 OFFCURVE",
"121 1 CURVE SMOOTH",
"169 1 OFFCURVE",
"180 1 OFFCURVE",
"204 1 CURVE SMOOTH",
"234 1 OFFCURVE",
"230 33 OFFCURVE",
"202 28 CURVE SMOOTH",
"142 17 OFFCURVE",
"156 99 OFFCURVE",
"156 206 CURVE SMOOTH",
"156 351 LINE SMOOTH",
"156 481 OFFCURVE",
"165 655 OFFCURVE",
"165 687 CURVE SMOOTH",
"165 695 OFFCURVE",
"159 699 OFFCURVE",
"151 699 CURVE SMOOTH",
"133 699 OFFCURVE",
"101 663 OFFCURVE",
"53 651 CURVE SMOOTH",
"39 648 OFFCURVE",
"32 641 OFFCURVE",
"32 636 CURVE SMOOTH",
"32 630 OFFCURVE",
"39 625 OFFCURVE",
"53 625 CURVE SMOOTH",
"80 625 OFFCURVE",
"89 597 OFFCURVE",
"89 565 CURVE SMOOTH",
"89 531 OFFCURVE",
"95 442 OFFCURVE",
"95 235 CURVE SMOOTH",
"95 194 OFFCURVE",
"94 134 OFFCURVE",
"89 89 CURVE SMOOTH",
"84 50 OFFCURVE",
"72 23 OFFCURVE",
"43 28 CURVE SMOOTH",
"15 33 OFFCURVE",
"11 1 OFFCURVE",
"41 1 CURVE SMOOTH"
);
}
);
width = 245;
}
);
unicode = 006C;
},
{
glyphname = m;
lastChange = "2020-01-14 06:35:08 +0000";
layers = (
{
layerId = "CA066C67-EDFC-49EB-AE27-EC7C0259E992";
paths = (
{
closed = 1;
nodes = (
"300 1 OFFCURVE",
"311 1 OFFCURVE",
"359 1 CURVE SMOOTH",
"407 1 OFFCURVE",
"418 1 OFFCURVE",
"442 1 CURVE SMOOTH",
"472 1 OFFCURVE",
"468 33 OFFCURVE",
"440 28 CURVE SMOOTH",
"380 17 OFFCURVE",
"394 89 OFFCURVE",
"394 196 CURVE SMOOTH",
"394 326 OFFCURVE",
"319 380 OFFCURVE",
"257 380 CURVE SMOOTH",
"213 380 OFFCURVE",
"178 353 OFFCURVE",
"146 318 CURVE SMOOTH",
"91 257 OFFCURVE",
"139 125 OFFCURVE",
"146 196 CURVE SMOOTH",
"155 290 OFFCURVE",
"192 334 OFFCURVE",
"232 334 CURVE SMOOTH",
"276 334 OFFCURVE",
"324 278 OFFCURVE",
"324 190 CURVE SMOOTH",
"324 102 OFFCURVE",
"331 19 OFFCURVE",
"278 28 CURVE SMOOTH",
"250 33 OFFCURVE",
"246 1 OFFCURVE",
"276 1 CURVE SMOOTH"
);
},
{
closed = 1;
nodes = (
"65 1 OFFCURVE",
"76 1 OFFCURVE",
"121 1 CURVE SMOOTH",
"169 1 OFFCURVE",
"180 1 OFFCURVE",
"204 1 CURVE SMOOTH",
"234 1 OFFCURVE",
"230 33 OFFCURVE",
"202 28 CURVE SMOOTH",
"173 23 OFFCURVE",
"161 34 OFFCURVE",
"156 60 CURVE SMOOTH",
"150 100 OFFCURVE",
"149 167 OFFCURVE",
"153 259 CURVE SMOOTH",
"155 307 OFFCURVE",
"159 353 OFFCURVE",
"159 368 CURVE SMOOTH",
"159 376 OFFCURVE",
"153 380 OFFCURVE",
"145 380 CURVE SMOOTH",
"127 380 OFFCURVE",
"99 344 OFFCURVE",
"51 332 CURVE SMOOTH",
"37 329 OFFCURVE",
"30 322 OFFCURVE",
"30 317 CURVE SMOOTH",
"30 311 OFFCURVE",
"37 306 OFFCURVE",
"51 306 CURVE SMOOTH",
"78 306 OFFCURVE",
"87 278 OFFCURVE",
"87 246 CURVE SMOOTH",
"87 168 OFFCURVE",
"94 101 OFFCURVE",
"83 60 CURVE SMOOTH",
"77 38 OFFCURVE",
"64 24 OFFCURVE",
"43 28 CURVE SMOOTH",
"15 33 OFFCURVE",
"11 1 OFFCURVE",
"41 1 CURVE SMOOTH"
);
},
{
closed = 1;
nodes = (
"543 1 OFFCURVE",
"554 1 OFFCURVE",
"602 1 CURVE SMOOTH",
"650 1 OFFCURVE",
"661 1 OFFCURVE",
"685 1 CURVE SMOOTH",
"715 1 OFFCURVE",
"711 33 OFFCURVE",
"683 28 CURVE SMOOTH",
"623 17 OFFCURVE",
"637 89 OFFCURVE",
"637 196 CURVE SMOOTH",
"637 326 OFFCURVE",
"562 380 OFFCURVE",
"500 380 CURVE SMOOTH",
"456 380 OFFCURVE",
"421 353 OFFCURVE",
"389 318 CURVE SMOOTH",
"334 257 OFFCURVE",
"382 125 OFFCURVE",
"389 196 CURVE SMOOTH",
"398 290 OFFCURVE",
"435 334 OFFCURVE",
"475 334 CURVE SMOOTH",
"519 334 OFFCURVE",
"567 278 OFFCURVE",
"567 190 CURVE SMOOTH",
"567 102 OFFCURVE",
"574 19 OFFCURVE",
"521 28 CURVE SMOOTH",
"493 33 OFFCURVE",
"489 1 OFFCURVE",
"519 1 CURVE SMOOTH"
);
}
);
width = 726;
}
);
unicode = 006D;
},
{
glyphname = n;
lastChange = "2020-01-14 06:34:59 +0000";
layers = (
{
layerId = "CA066C67-EDFC-49EB-AE27-EC7C0259E992";
paths = (
{
closed = 1;
nodes = (
"310 1 OFFCURVE",
"321 1 OFFCURVE",
"369 1 CURVE SMOOTH",
"417 1 OFFCURVE",
"428 1 OFFCURVE",
"452 1 CURVE SMOOTH",
"482 1 OFFCURVE",
"478 33 OFFCURVE",
"450 28 CURVE SMOOTH",
"390 17 OFFCURVE",
"404 89 OFFCURVE",
"404 196 CURVE SMOOTH",
"404 326 OFFCURVE",
"329 380 OFFCURVE",
"267 380 CURVE SMOOTH",
"223 380 OFFCURVE",
"178 353 OFFCURVE",
"146 318 CURVE SMOOTH",
"91 257 OFFCURVE",
"139 125 OFFCURVE",
"146 196 CURVE SMOOTH",
"155 290 OFFCURVE",
"202 334 OFFCURVE",
"242 334 CURVE SMOOTH",
"286 334 OFFCURVE",
"334 278 OFFCURVE",
"334 190 CURVE SMOOTH",
"334 102 OFFCURVE",
"341 19 OFFCURVE",
"288 28 CURVE SMOOTH",
"260 33 OFFCURVE",
"256 1 OFFCURVE",
"286 1 CURVE SMOOTH"
);
},
{
closed = 1;
nodes = (
"65 1 OFFCURVE",
"76 1 OFFCURVE",
"121 1 CURVE SMOOTH",
"169 1 OFFCURVE",
"180 1 OFFCURVE",
"204 1 CURVE SMOOTH",
"234 1 OFFCURVE",
"230 33 OFFCURVE",
"202 28 CURVE SMOOTH",
"173 23 OFFCURVE",
"161 34 OFFCURVE",
"156 60 CURVE SMOOTH",
"150 100 OFFCURVE",
"149 167 OFFCURVE",
"153 259 CURVE SMOOTH",
"155 307 OFFCURVE",
"159 353 OFFCURVE",
"159 368 CURVE SMOOTH",
"159 376 OFFCURVE",
"153 380 OFFCURVE",
"145 380 CURVE SMOOTH",
"127 380 OFFCURVE",
"99 344 OFFCURVE",
"51 332 CURVE SMOOTH",
"37 329 OFFCURVE",
"30 322 OFFCURVE",
"30 317 CURVE SMOOTH",
"30 311 OFFCURVE",
"37 306 OFFCURVE",
"51 306 CURVE SMOOTH",
"78 306 OFFCURVE",
"87 278 OFFCURVE",
"87 246 CURVE SMOOTH",
"87 168 OFFCURVE",
"94 101 OFFCURVE",
"83 60 CURVE SMOOTH",
"77 38 OFFCURVE",
"64 24 OFFCURVE",
"43 28 CURVE SMOOTH",
"15 33 OFFCURVE",
"11 1 OFFCURVE",
"41 1 CURVE SMOOTH"
);
}
);
width = 493;
}
);
unicode = 006E;
},
{
glyphname = o;
lastChange = "2020-01-14 14:00:55 +0000";
layers = (
{
layerId = "CA066C67-EDFC-49EB-AE27-EC7C0259E992";
paths = (
{
closed = 1;
nodes = (
"303 0 OFFCURVE",
"403 60 OFFCURVE",
"403 189 CURVE SMOOTH",
"403 319 OFFCURVE",
"303 380 OFFCURVE",
"211 380 CURVE SMOOTH",
"120 380 OFFCURVE",
"20 319 OFFCURVE",
"20 189 CURVE SMOOTH",
"20 60 OFFCURVE",
"120 0 OFFCURVE",
"211 0 CURVE SMOOTH"
);
},
{
closed = 1;
nodes = (
"143 26 OFFCURVE",
"97 92 OFFCURVE",
"97 190 CURVE SMOOTH",
"97 287 OFFCURVE",
"143 354 OFFCURVE",
"211 354 CURVE SMOOTH",
"280 354 OFFCURVE",
"325 287 OFFCURVE",
"325 190 CURVE SMOOTH",
"325 92 OFFCURVE",
"280 26 OFFCURVE",
"211 26 CURVE SMOOTH"
);
}
);
width = 423;
}
);
unicode = 006F;
},
{
glyphname = p;
lastChange = "2020-01-12 18:09:32 +0000";
layers = (
{
layerId = "CA066C67-EDFC-49EB-AE27-EC7C0259E992";
paths = (
{
closed = 1;
nodes = (
"31 311 OFFCURVE",
"38 306 OFFCURVE",
"52 306 CURVE SMOOTH",
"79 306 OFFCURVE",
"88 278 OFFCURVE",
"88 246 CURVE SMOOTH",
"88 212 OFFCURVE",
"94 174 OFFCURVE",
"94 24 CURVE SMOOTH",
"94 -17 OFFCURVE",
"93 -46 OFFCURVE",
"88 -91 CURVE SMOOTH",
"84 -130 OFFCURVE",
"71 -157 OFFCURVE",
"42 -152 CURVE SMOOTH",
"14 -147 OFFCURVE",
"10 -179 OFFCURVE",
"40 -179 CURVE SMOOTH",
"64 -179 OFFCURVE",
"75 -179 OFFCURVE",
"120 -179 CURVE SMOOTH",
"203 -179 LINE SMOOTH",
"233 -179 OFFCURVE",
"229 -147 OFFCURVE",
"201 -152 CURVE SMOOTH",
"141 -163 OFFCURVE",
"155 -81 OFFCURVE",
"155 -39 CURVE SMOOTH",
"155 6 LINE",
"172 3 OFFCURVE",
"195 0 OFFCURVE",
"229 0 CURVE SMOOTH",
"337 0 OFFCURVE",
"433 73 OFFCURVE",
"433 189 CURVE SMOOTH",
"433 319 OFFCURVE",
"348 380 OFFCURVE",
"276 380 CURVE SMOOTH",
"235 380 OFFCURVE",
"194 356 OFFCURVE",
"163 326 CURVE",
"164 368 LINE SMOOTH",
"164 376 OFFCURVE",
"158 380 OFFCURVE",
"150 380 CURVE SMOOTH",
"132 380 OFFCURVE",
"100 342 OFFCURVE",
"52 332 CURVE SMOOTH",
"38 329 OFFCURVE",
"31 322 OFFCURVE",
"31 317 CURVE SMOOTH"
);
},
{
closed = 1;
nodes = (
"160 246 CURVE SMOOTH",
"166 301 OFFCURVE",
"218 334 OFFCURVE",
"251 334 CURVE SMOOTH",
"305 334 OFFCURVE",
"363 278 OFFCURVE",
"363 190 CURVE SMOOTH",
"363 81 OFFCURVE",
"309 31 OFFCURVE",
"247 31 CURVE SMOOTH",
"187 31 OFFCURVE",
"159 61 OFFCURVE",
"158 103 CURVE SMOOTH",
"156 169 OFFCURVE",
"155 198 OFFCURVE"
);
}
);
width = 453;
}
);
unicode = 0070;
},
{
glyphname = q;
lastChange = "2020-01-12 18:15:16 +0000";
layers = (
{
layerId = "CA066C67-EDFC-49EB-AE27-EC7C0259E992";
paths = (
{
closed = 1;
nodes = (
"325 46 OFFCURVE",
"213 46 CURVE SMOOTH",
"159 46 OFFCURVE",
"101 102 OFFCURVE",
"101 190 CURVE SMOOTH",
"101 299 OFFCURVE",
"155 349 OFFCURVE",
"217 349 CURVE SMOOTH",
"277 349 OFFCURVE",
"306 328 OFFCURVE",
"306 293 CURVE SMOOTH",
"306 188 OFFCURVE"
);
},
{
closed = 1;
nodes = (
"366 20 OFFCURVE",
"364 292 OFFCURVE",
"382 343 CURVE SMOOTH",
"386 355 OFFCURVE",
"392 361 OFFCURVE",
"392 367 CURVE SMOOTH",
"392 374 OFFCURVE",
"385 381 OFFCURVE",
"371 376 CURVE SMOOTH",
"330 361 OFFCURVE",
"314 380 OFFCURVE",
"235 380 CURVE SMOOTH",
"127 380 OFFCURVE",
"31 307 OFFCURVE",
"31 191 CURVE SMOOTH",
"31 61 OFFCURVE",
"116 0 OFFCURVE",
"188 0 CURVE SMOOTH",
"232 0 OFFCURVE",
"277 28 OFFCURVE",
"309 62 CURVE",
"309 -9 OFFCURVE",
"308 -43 OFFCURVE",
"303 -91 CURVE SMOOTH",
"299 -130 OFFCURVE",
"286 -157 OFFCURVE",
"257 -152 CURVE SMOOTH",
"229 -147 OFFCURVE",
"225 -179 OFFCURVE",
"255 -179 CURVE SMOOTH",
"279 -179 OFFCURVE",
"290 -179 OFFCURVE",
"335 -179 CURVE SMOOTH",
"418 -179 LINE SMOOTH",
"448 -179 OFFCURVE",
"444 -147 OFFCURVE",
"416 -152 CURVE SMOOTH",
"356 -163 OFFCURVE",
"369 -81 OFFCURVE",
"368 -39 CURVE SMOOTH"
);
}
);
width = 459;
}
);
unicode = 0071;
},
{
glyphname = r;
lastChange = "2020-01-13 12:09:59 +0000";
layers = (
{
layerId = "CA066C67-EDFC-49EB-AE27-EC7C0259E992";
paths = (
{
closed = 1;
nodes = (
"148 164 OFFCURVE",
"153 259 CURVE SMOOTH",
"157 329 OFFCURVE",
"159 353 OFFCURVE",
"159 368 CURVE SMOOTH",
"159 376 OFFCURVE",
"153 380 OFFCURVE",
"145 380 CURVE SMOOTH",
"127 380 OFFCURVE",
"99 344 OFFCURVE",
"51 332 CURVE SMOOTH",
"37 329 OFFCURVE",
"30 322 OFFCURVE",
"30 317 CURVE SMOOTH",
"30 311 OFFCURVE",
"37 306 OFFCURVE",
"51 306 CURVE SMOOTH",
"78 306 OFFCURVE",
"87 278 OFFCURVE",
"87 246 CURVE SMOOTH",
"87 168 OFFCURVE",
"91 100 OFFCURVE",
"83 60 CURVE SMOOTH",
"78 37 OFFCURVE",
"64 24 OFFCURVE",
"43 28 CURVE SMOOTH",
"15 33 OFFCURVE",
"11 1 OFFCURVE",
"41 1 CURVE SMOOTH",
"65 1 OFFCURVE",
"76 1 OFFCURVE",
"121 1 CURVE SMOOTH",
"169 1 OFFCURVE",
"180 1 OFFCURVE",
"204 1 CURVE SMOOTH",
"234 1 OFFCURVE",
"230 33 OFFCURVE",
"202 28 CURVE SMOOTH",
"173 23 OFFCURVE",
"161 34 OFFCURVE",
"156 60 CURVE SMOOTH",
"150 100 OFFCURVE"
);
},
{
closed = 1;
nodes = (
"168 315 OFFCURVE",
"217 328 OFFCURVE",
"262 311 CURVE SMOOTH",
"303 296 OFFCURVE",
"342 359 OFFCURVE",
"291 377 CURVE SMOOTH",
"257 389 OFFCURVE",
"158 367 OFFCURVE",
"133 267 CURVE SMOOTH",
"121 219 OFFCURVE",
"143 215 OFFCURVE",
"153 256 CURVE SMOOTH"
);
}
);
width = 332;
}
);
unicode = 0072;
},
{
glyphname = s;
lastChange = "2020-01-13 13:26:18 +0000";
layers = (
{
layerId = "CA066C67-EDFC-49EB-AE27-EC7C0259E992";
paths = (
{
closed = 1;
nodes = (
"38 329 OFFCURVE",
"85 380 OFFCURVE",
"157 380 CURVE SMOOTH",
"220 380 OFFCURVE",
"248 349 OFFCURVE",
"255 349 CURVE SMOOTH",
"259 349 OFFCURVE",
"260 354 OFFCURVE",
"260 364 CURVE SMOOTH",
"260 373 OFFCURVE",
"267 377 OFFCURVE",
"273 377 CURVE SMOOTH",
"280 377 OFFCURVE",
"287 372 OFFCURVE",
"287 363 CURVE SMOOTH",
"287 361 OFFCURVE",
"287 335 OFFCURVE",
"287 308 CURVE SMOOTH",
"287 281 OFFCURVE",
"287 268 OFFCURVE",
"287 259 CURVE SMOOTH",
"287 251 OFFCURVE",
"280 245 OFFCURVE",
"273 245 CURVE SMOOTH",
"267 245 OFFCURVE",
"260 251 OFFCURVE",
"260 259 CURVE SMOOTH",
"260 297 OFFCURVE",
"215 353 OFFCURVE",
"157 353 CURVE SMOOTH",
"118 353 OFFCURVE",
"96 329 OFFCURVE",
"96 301 CURVE SMOOTH",
"96 276 OFFCURVE",
"118 253 OFFCURVE",
"164 231 CURVE SMOOTH",
"225 202 OFFCURVE",
"294 180 OFFCURVE",
"294 100 CURVE SMOOTH",
"294 41 OFFCURVE",
"238 0 OFFCURVE",
"168 0 CURVE SMOOTH",
"84 0 OFFCURVE",
"58 41 OFFCURVE",
"52 41 CURVE SMOOTH",
"47 41 OFFCURVE",
"47 35 OFFCURVE",
"47 20 CURVE SMOOTH",
"47 13 OFFCURVE",
"42 4 OFFCURVE",
"33 4 CURVE SMOOTH",
"23 4 OFFCURVE",
"20 12 OFFCURVE",
"20 19 CURVE SMOOTH",
"20 29 OFFCURVE",
"20 52 OFFCURVE",
"20 79 CURVE SMOOTH",
"20 100 OFFCURVE",
"20 115 OFFCURVE",
"20 128 CURVE SMOOTH",
"20 138 OFFCURVE",
"27 143 OFFCURVE",
"34 143 CURVE SMOOTH",
"40 143 OFFCURVE",
"47 138 OFFCURVE",
"47 128 CURVE SMOOTH",
"47 85 OFFCURVE",
"107 27 OFFCURVE",
"161 27 CURVE SMOOTH",
"202 27 OFFCURVE",
"238 47 OFFCURVE",
"238 82 CURVE SMOOTH",
"238 111 OFFCURVE",
"206 134 OFFCURVE",
"156 159 CURVE SMOOTH",
"103 185 OFFCURVE",
"38 206 OFFCURVE",
"38 277 CURVE SMOOTH"
);
}
);
width = 314;
}
);
unicode = 0073;
},
{
glyphname = t;
lastChange = "2020-01-13 13:26:59 +0000";
layers = (
{
layerId = "CA066C67-EDFC-49EB-AE27-EC7C0259E992";
paths = (
{
closed = 1;
nodes = (
"52 345 OFFCURVE",
"62 345 OFFCURVE",
"83 345 CURVE",
"83 334 OFFCURVE",
"83 315 OFFCURVE",
"83 87 CURVE SMOOTH",
"83 48 OFFCURVE",
"93 0 OFFCURVE",
"143 0 CURVE SMOOTH",
"191 0 OFFCURVE",
"229 23 OFFCURVE",
"251 50 CURVE SMOOTH",
"269 72 OFFCURVE",
"257 94 OFFCURVE",
"236 70 CURVE SMOOTH",
"187 14 OFFCURVE",
"150 55 OFFCURVE",
"150 87 CURVE SMOOTH",
"150 123 OFFCURVE",
"150 229 OFFCURVE",
"151 347 CURVE",
"198 347 OFFCURVE",
"222 346 OFFCURVE",
"242 344 CURVE SMOOTH",
"266 342 OFFCURVE",
"268 382 OFFCURVE",
"240 380 CURVE SMOOTH",
"224 379 OFFCURVE",
"200 378 OFFCURVE",
"152 378 CURVE",
"152 416 OFFCURVE",
"152 459 OFFCURVE",
"152 470 CURVE SMOOTH",
"152 486 OFFCURVE",
"147 496 OFFCURVE",
"133 496 CURVE SMOOTH",
"108 496 OFFCURVE",
"118 447 OFFCURVE",
"94 407 CURVE SMOOTH",
"81 385 OFFCURVE",
"63 380 OFFCURVE",
"40 380 CURVE SMOOTH",
"12 380 OFFCURVE",
"14 342 OFFCURVE",
"39 344 CURVE SMOOTH"
);
}
);
width = 280;
}
);
unicode = 0074;
},
{
glyphname = u;
lastChange = "2020-01-14 13:59:41 +0000";
layers = (
{
layerId = "CA066C67-EDFC-49EB-AE27-EC7C0259E992";
paths = (
{
closed = 1;
nodes = (
"299 162 OFFCURVE",
"299 246 CURVE SMOOTH",
"299 278 OFFCURVE",
"290 306 OFFCURVE",
"263 306 CURVE SMOOTH",
"249 306 OFFCURVE",
"242 310 OFFCURVE",
"242 316 CURVE SMOOTH",
"242 321 OFFCURVE",
"249 328 OFFCURVE",
"263 332 CURVE SMOOTH",
"297 342 OFFCURVE",
"320 365 OFFCURVE",
"340 375 CURVE SMOOTH",
"346 378 OFFCURVE",
"351 380 OFFCURVE",
"355 380 CURVE SMOOTH",
"363 380 OFFCURVE",
"368 376 OFFCURVE",
"368 368 CURVE SMOOTH",
"368 334 OFFCURVE",
"362 254 OFFCURVE",
"362 182 CURVE SMOOTH",
"362 121 OFFCURVE",
"365 54 OFFCURVE",
"389 54 CURVE SMOOTH",
"398 54 OFFCURVE",
"409 59 OFFCURVE",
"417 59 CURVE SMOOTH",
"426 59 OFFCURVE",
"430 55 OFFCURVE",
"430 49 CURVE SMOOTH",
"430 42 OFFCURVE",
"423 34 OFFCURVE",
"411 31 CURVE SMOOTH",
"375 22 OFFCURVE",
"358 0 OFFCURVE",
"342 0 CURVE SMOOTH",
"301 0 OFFCURVE",
"303 59 OFFCURVE",
"299 114 CURVE SMOOTH",
"297 144 OFFCURVE"
);
},
{
closed = 1;
nodes = (
"67 162 OFFCURVE",
"67 246 CURVE SMOOTH",
"67 278 OFFCURVE",
"58 306 OFFCURVE",
"31 306 CURVE SMOOTH",
"17 306 OFFCURVE",
"10 310 OFFCURVE",
"10 316 CURVE SMOOTH",
"10 321 OFFCURVE",
"17 328 OFFCURVE",
"31 332 CURVE SMOOTH",
"65 342 OFFCURVE",
"88 365 OFFCURVE",
"108 375 CURVE SMOOTH",
"114 378 OFFCURVE",
"119 380 OFFCURVE",
"123 380 CURVE SMOOTH",
"131 380 OFFCURVE",
"136 376 OFFCURVE",
"136 368 CURVE SMOOTH",
"136 323 OFFCURVE",
"133 198 OFFCURVE",
"133 117 CURVE SMOOTH",
"133 74 OFFCURVE",
"170 35 OFFCURVE",
"215 35 CURVE SMOOTH",
"261 35 OFFCURVE",
"300 81 OFFCURVE",
"325 140 CURVE SMOOTH",
"328 147 OFFCURVE",
"332 150 OFFCURVE",
"335 150 CURVE SMOOTH",
"339 150 OFFCURVE",
"341 144 OFFCURVE",
"341 136 CURVE SMOOTH",
"341 129 OFFCURVE",
"338 120 OFFCURVE",
"335 113 CURVE SMOOTH",
"302 35 OFFCURVE",
"246 1 OFFCURVE",
"190 1 CURVE SMOOTH",
"137 1 OFFCURVE",
"67 36 OFFCURVE",
"67 101 CURVE SMOOTH",
"67 131 OFFCURVE"
);
}
);
width = 450;
}
);
unicode = 0075;
},
{
glyphname = v;
lastChange = "2020-01-14 06:31:53 +0000";
layers = (
{
layerId = "CA066C67-EDFC-49EB-AE27-EC7C0259E992";
paths = (
{
closed = 1;
nodes = (
"11 380 OFFCURVE",
"15 352 OFFCURVE",
"43 353 CURVE SMOOTH",
"82 355 OFFCURVE",
"77 319 OFFCURVE",
"196 18 CURVE SMOOTH",
"208 -12 OFFCURVE",
"239 -4 OFFCURVE",
"250 21 CURVE SMOOTH",
"361 277 OFFCURVE",
"368 353 OFFCURVE",
"406 351 CURVE SMOOTH",
"434 350 OFFCURVE",
"438 378 OFFCURVE",
"408 378 CURVE SMOOTH",
"384 378 OFFCURVE",
"373 378 OFFCURVE",
"345 378 CURVE SMOOTH",
"292 378 LINE SMOOTH",
"262 378 OFFCURVE",
"266 347 OFFCURVE",
"294 351 CURVE SMOOTH",
"353 360 OFFCURVE",
"321 295 OFFCURVE",
"241 88 CURVE",
"171 289 OFFCURVE",
"128 363 OFFCURVE",
"185 353 CURVE SMOOTH",
"213 348 OFFCURVE",
"217 380 OFFCURVE",
"187 380 CURVE SMOOTH",
"163 380 OFFCURVE",
"152 380 OFFCURVE",
"104 380 CURVE SMOOTH",
"41 380 LINE SMOOTH"
);
}
);
width = 449;
}
);
unicode = 0076;
},
{
glyphname = w;
lastChange = "2020-01-14 06:32:26 +0000";
layers = (
{
layerId = "CA066C67-EDFC-49EB-AE27-EC7C0259E992";
paths = (
{
closed = 1;
nodes = (
"11 380 OFFCURVE",
"15 352 OFFCURVE",
"43 353 CURVE SMOOTH",
"92 355 OFFCURVE",
"79 308 OFFCURVE",
"184 20 CURVE SMOOTH",
"195 -10 OFFCURVE",
"229 -4 OFFCURVE",
"240 21 CURVE SMOOTH",
"281 119 OFFCURVE",
"313 206 OFFCURVE",
"330 263 CURVE",
"350 209 OFFCURVE",
"369 149 OFFCURVE",
"417 18 CURVE SMOOTH",
"428 -12 OFFCURVE",
"463 -4 OFFCURVE",
"472 21 CURVE SMOOTH",
"563 273 OFFCURVE",
"579 352 OFFCURVE",
"607 351 CURVE SMOOTH",
"635 350 OFFCURVE",
"639 378 OFFCURVE",
"609 378 CURVE SMOOTH",
"567 378 OFFCURVE",
"535 378 OFFCURVE",
"493 378 CURVE SMOOTH",
"463 378 OFFCURVE",
"467 347 OFFCURVE",
"495 351 CURVE SMOOTH",
"554 360 OFFCURVE",
"533 289 OFFCURVE",
"463 87 CURVE",
"391 311 OFFCURVE",
"359 363 OFFCURVE",
"416 353 CURVE SMOOTH",
"444 348 OFFCURVE",
"448 380 OFFCURVE",
"418 380 CURVE SMOOTH",
"363 380 OFFCURVE",
"327 380 OFFCURVE",
"272 380 CURVE SMOOTH",
"242 380 OFFCURVE",
"246 352 OFFCURVE",
"274 353 CURVE SMOOTH",
"327 356 OFFCURVE",
"320 303 OFFCURVE",
"237 87 CURVE",
"172 302 OFFCURVE",
"138 363 OFFCURVE",
"195 353 CURVE SMOOTH",
"223 348 OFFCURVE",
"227 380 OFFCURVE",
"197 380 CURVE SMOOTH",
"142 380 OFFCURVE",
"96 380 OFFCURVE",
"41 380 CURVE SMOOTH"
);
}
);
width = 650;
}
);
unicode = 0077;
},
{
glyphname = x;
lastChange = "2020-01-14 06:14:42 +0000";
layers = (
{
layerId = "CA066C67-EDFC-49EB-AE27-EC7C0259E992";
paths = (
{
closed = 1;
nodes = (
"62 1 OFFCURVE",
"63 1 OFFCURVE",
"91 1 CURVE SMOOTH",
"164 1 LINE SMOOTH",
"194 1 OFFCURVE",
"190 33 OFFCURVE",
"162 28 CURVE SMOOTH",
"139 24 OFFCURVE",
"126 24 OFFCURVE",
"133 38 CURVE SMOOTH",
"143 57 OFFCURVE",
"312 293 OFFCURVE",
"346 331 CURVE SMOOTH",
"361 348 OFFCURVE",
"381 352 OFFCURVE",
"394 351 CURVE SMOOTH",
"422 349 OFFCURVE",
"426 378 OFFCURVE",
"396 378 CURVE SMOOTH",
"372 378 OFFCURVE",
"361 378 OFFCURVE",
"333 378 CURVE SMOOTH",
"270 378 LINE SMOOTH",
"240 378 OFFCURVE",
"244 347 OFFCURVE",
"272 351 CURVE SMOOTH",
"297 355 OFFCURVE",
"310 355 OFFCURVE",
"299 337 CURVE SMOOTH",
"289 321 OFFCURVE",
"132 82 OFFCURVE",
"73 36 CURVE SMOOTH",
"56 23 OFFCURVE",
"50 28 OFFCURVE",
"40 28 CURVE SMOOTH",
"12 28 OFFCURVE",
"8 1 OFFCURVE",
"38 1 CURVE SMOOTH"
);
},
{
closed = 1;
nodes = (
"6 380 OFFCURVE",
"10 353 OFFCURVE",
"38 353 CURVE SMOOTH",
"47 353 OFFCURVE",
"60 353 OFFCURVE",
"69 341 CURVE SMOOTH",
"150 236 OFFCURVE",
"274 70 OFFCURVE",
"282 43 CURVE SMOOTH",
"287 25 OFFCURVE",
"272 24 OFFCURVE",
"248 28 CURVE SMOOTH",
"220 33 OFFCURVE",
"216 1 OFFCURVE",
"246 1 CURVE SMOOTH",
"270 1 OFFCURVE",
"281 1 OFFCURVE",
"329 1 CURVE SMOOTH",
"412 1 LINE SMOOTH",
"442 1 OFFCURVE",
"438 28 OFFCURVE",
"410 28 CURVE SMOOTH",
"398 28 OFFCURVE",
"383 32 OFFCURVE",
"371 46 CURVE SMOOTH",
"329 92 OFFCURVE",
"170 314 OFFCURVE",
"156 344 CURVE SMOOTH",
"151 355 OFFCURVE",
"169 356 OFFCURVE",
"190 353 CURVE SMOOTH",
"218 348 OFFCURVE",
"222 380 OFFCURVE",
"192 380 CURVE SMOOTH",
"168 380 OFFCURVE",
"157 380 OFFCURVE",
"109 380 CURVE SMOOTH",
"36 380 LINE SMOOTH"
);
}
);
width = 453;
}
);
unicode = 0078;
},
{
glyphname = y;
lastChange = "2020-01-14 06:12:15 +0000";
layers = (
{
layerId = "CA066C67-EDFC-49EB-AE27-EC7C0259E992";
paths = (
{
closed = 1;
nodes = (
"249 91 OFFCURVE",
"194 -21 CURVE SMOOTH",
"177 -56 OFFCURVE",
"146 -80 OFFCURVE",
"122 -80 CURVE SMOOTH",
"57 -80 OFFCURVE",
"70 -157 OFFCURVE",
"142 -133 CURVE SMOOTH",
"174 -122 OFFCURVE",
"211 -65 OFFCURVE",
"227 -31 CURVE SMOOTH",
"278 85 OFFCURVE",
"357 299 OFFCURVE",
"376 328 CURVE SMOOTH",
"387 345 OFFCURVE",
"394 352 OFFCURVE",
"406 351 CURVE SMOOTH",
"434 350 OFFCURVE",
"438 378 OFFCURVE",
"408 378 CURVE SMOOTH",
"384 378 OFFCURVE",
"373 378 OFFCURVE",
"345 378 CURVE SMOOTH",
"292 378 LINE SMOOTH",
"262 378 OFFCURVE",
"266 347 OFFCURVE",
"294 351 CURVE SMOOTH",
"316 354 OFFCURVE",
"328 349 OFFCURVE",
"328 330 CURVE SMOOTH",
"329 304 OFFCURVE"
);
},
{
closed = 1;
nodes = (
"195 214 OFFCURVE",
"155 295 OFFCURVE",
"155 330 CURVE SMOOTH",
"155 350 OFFCURVE",
"165 357 OFFCURVE",
"185 353 CURVE SMOOTH",
"213 348 OFFCURVE",
"217 380 OFFCURVE",
"187 380 CURVE SMOOTH",
"163 380 OFFCURVE",
"152 380 OFFCURVE",
"104 380 CURVE SMOOTH",
"41 380 LINE SMOOTH",
"11 380 OFFCURVE",
"15 352 OFFCURVE",
"43 353 CURVE SMOOTH",
"55 354 OFFCURVE",
"66 344 OFFCURVE",
"78 325 CURVE SMOOTH",
"106 280 OFFCURVE",
"148 164 OFFCURVE",
"214 2 CURVE SMOOTH",
"225 -26 OFFCURVE",
"258 47 OFFCURVE",
"249 71 CURVE"
);
}
);
width = 449;
}
);
unicode = 0079;
},
{
glyphname = z;
lastChange = "2020-01-14 11:20:01 +0000";
layers = (
{
layerId = "CA066C67-EDFC-49EB-AE27-EC7C0259E992";
paths = (
{
closed = 1;
nodes = (
"84 0 OFFCURVE",
"298 1 OFFCURVE",
"300 1 CURVE SMOOTH",
"307 1 OFFCURVE",
"313 4 OFFCURVE",
"315 21 CURVE SMOOTH",
"320 61 OFFCURVE",
"321 97 OFFCURVE",
"321 115 CURVE SMOOTH",
"321 123 OFFCURVE",
"311 128 OFFCURVE",
"307 128 CURVE SMOOTH",
"301 128 OFFCURVE",
"294 123 OFFCURVE",
"294 113 CURVE SMOOTH",
"294 86 OFFCURVE",
"288 56 OFFCURVE",
"263 38 CURVE SMOOTH",
"249 28 OFFCURVE",
"236 26 OFFCURVE",
"208 26 CURVE SMOOTH",
"189 26 OFFCURVE",
"111 26 OFFCURVE",
"87 26 CURVE",
"138 127 OFFCURVE",
"299 289 OFFCURVE",
"322 354 CURVE SMOOTH",
"328 371 OFFCURVE",
"324 381 OFFCURVE",
"305 381 CURVE SMOOTH",
"255 381 OFFCURVE",
"44 380 OFFCURVE",
"41 380 CURVE SMOOTH",
"35 380 OFFCURVE",
"28 377 OFFCURVE",
"26 360 CURVE SMOOTH",
"22 320 OFFCURVE",
"20 284 OFFCURVE",
"20 266 CURVE SMOOTH",
"20 257 OFFCURVE",
"29 253 OFFCURVE",
"33 253 CURVE SMOOTH",
"38 253 OFFCURVE",
"47 257 OFFCURVE",
"47 267 CURVE SMOOTH",
"47 295 OFFCURVE",
"53 326 OFFCURVE",
"79 343 CURVE SMOOTH",
"94 353 OFFCURVE",
"103 355 OFFCURVE",
"133 355 CURVE SMOOTH",
"147 355 OFFCURVE",
"229 355 OFFCURVE",
"252 355 CURVE",
"250 331 OFFCURVE",
"33 77 OFFCURVE",
"21 20 CURVE SMOOTH",
"18 7 OFFCURVE",
"23 0 OFFCURVE",
"34 0 CURVE SMOOTH"
);
}
);
width = 345;
}
);
unicode = 007A;
},
{
glyphname = uni4E9C;
lastChange = "2019-08-30 09:32:44 +0000";
layers = (
{
layerId = "CA066C67-EDFC-49EB-AE27-EC7C0259E992";
paths = (
{
closed = 1;
nodes = (
"908 -37 OFFCURVE",
"886 29 OFFCURVE",
"820 45 CURVE",
"820 45 OFFCURVE",
"795 -8 OFFCURVE",
"738 -9 CURVE",
"590 -9 LINE",
"590 264 LINE",
"724 264 LINE",
"724 204 LINE",
"724 192 OFFCURVE",
"779 196 OFFCURVE",
"779 243 CURVE",
"779 274 OFFCURVE",
"779 406 OFFCURVE",
"779 481 CURVE",
"789 515 OFFCURVE",
"818 501 OFFCURVE",
"806 524 CURVE",
"803 529 OFFCURVE",
"782 559 OFFCURVE",
"736 575 CURVE",
"736 575 OFFCURVE",
"731 555 OFFCURVE",
"707 541 CURVE",
"590 541 LINE",
"590 760 LINE",
"706 760 LINE",
"878 759 LINE",
"878 759 OFFCURVE",
"857 826 OFFCURVE",
"791 842 CURVE",
"791 842 OFFCURVE",
"766 789 OFFCURVE",
"708 788 CURVE",
"479 787 LINE",
"369 788 OFFCURVE",
"259 786 OFFCURVE",
"149 793 CURVE",
"130 795 LINE",
"130 753 LINE",
"149 754 LINE",
"219 759 OFFCURVE",
"290 760 OFFCURVE",
"360 760 CURVE",
"360 541 LINE",
"234 541 LINE",
"216 567 OFFCURVE",
"186 575 OFFCURVE",
"186 575 CURVE",
"186 204 LINE",
"186 192 OFFCURVE",
"241 196 OFFCURVE",
"241 243 CURVE",
"241 248 OFFCURVE",
"241 255 OFFCURVE",
"241 265 CURVE",
"360 265 LINE",
"360 -9 LINE",
"277 -9 OFFCURVE",
"195 -8 OFFCURVE",
"112 -3 CURVE",
"92 -2 LINE",
"92 -44 LINE",
"112 -43 LINE",
"234 -35 OFFCURVE",
"356 -37 OFFCURVE",
"479 -36 CURVE",
"753 -37 LINE",
"908 -37 LINE"
);
},
{
closed = 1;
nodes = (
"724 292 LINE",
"590 292 LINE",
"590 513 LINE",
"724 513 LINE"
);
},
{
closed = 1;
nodes = (
"415 292 LINE",
"415 513 LINE",
"535 513 LINE",
"535 292 LINE"
);
},
{
closed = 1;
nodes = (
"436 760 OFFCURVE",
"457 760 OFFCURVE",
"479 760 CURVE",
"535 760 LINE",
"535 541 LINE",
"415 541 LINE",
"415 760 LINE"
);
},
{
closed = 1;
nodes = (
"241 359 OFFCURVE",
"241 468 OFFCURVE",
"241 513 CURVE",
"360 513 LINE",
"360 292 LINE",
"241 292 LINE"
);
},
{
closed = 1;
nodes = (
"415 265 LINE",
"535 264 LINE",
"535 -10 LINE",
"479 -10 LINE",
"457 -9 OFFCURVE",
"436 -9 OFFCURVE",
"415 -9 CURVE"
);
}
);
width = 1000;
}
);
unicode = 4E9C;
},
{
glyphname = uni4EE5;
lastChange = "2019-08-30 17:24:10 +0000";
layers = (
{
layerId = "CA066C67-EDFC-49EB-AE27-EC7C0259E992";
paths = (
{
closed = 1;
nodes = (
"947 -50 OFFCURVE",
"953 -40 OFFCURVE",
"953 -29 CURVE SMOOTH",
"953 -25 OFFCURVE",
"953 -22 OFFCURVE",
"951.292 -18.377 CURVE",
"938.145 12.637 OFFCURVE",
"921.898 39.356 OFFCURVE",
"903.909 66.093 CURVE SMOOTH",
"885.59 92.315 OFFCURVE",
"865.306 117.154 OFFCURVE",
"843.563 140.61 CURVE SMOOTH",
"808.405 177.312 OFFCURVE",
"768.773 210.408 OFFCURVE",
"724.874 235.784 CURVE",
"795.133 363.385 OFFCURVE",
"834.643 528.942 OFFCURVE",
"841.888 737.677 CURVE",
"846.053 787.453 OFFCURVE",
"878.892 770.433 OFFCURVE",
"884.67 797.242 CURVE",
"787.864 817.438 LINE",
"784.108 405.016 OFFCURVE",
"682.619 155.729 OFFCURVE",
"438.017 14.788 CURVE SMOOTH",
"402.716 -5.553 OFFCURVE",
"385.892 -14.689 OFFCURVE",
"387.8 -30.841 CURVE",
"388 -36 OFFCURVE",
"391 -42 OFFCURVE",
"402 -42 CURVE SMOOTH",
"409 -42 OFFCURVE",
"419 -40 OFFCURVE",
"432.59 -33.476 CURVE SMOOTH",
"551.118 19.652 OFFCURVE",
"644.384 101.227 OFFCURVE",
"712.096 214.19 CURVE",
"724.208 202.206 OFFCURVE",
"736.048 190.093 OFFCURVE",
"747.116 177.253 CURVE SMOOTH",
"766.903 154.41 OFFCURVE",
"786.75 131.928 OFFCURVE",
"804 107.255 CURVE",
"822.11 83.372 OFFCURVE",
"839.184 58.751 OFFCURVE",
"855.324 33.558 CURVE SMOOTH",
"871.652 8.807 OFFCURVE",
"887.448 -17.574 OFFCURVE",
"902.11 -41.859 CURVE SMOOTH",
"902.859 -43.109 LINE",
"908 -51 OFFCURVE",
"917 -56 OFFCURVE",
"926 -56 CURVE SMOOTH",
"930 -56 OFFCURVE",
"933 -56 OFFCURVE",
"936.834 -54.11 CURVE"
);
},
{
closed = 1;
nodes = (
"99 -3 OFFCURVE",
"102 -5 OFFCURVE",
"105 -5 CURVE SMOOTH",
"111 -5 OFFCURVE",
"116 4 OFFCURVE",
"116.525 16.563 CURVE SMOOTH",
"117.451 32.199 OFFCURVE",
"124.373 44.685 OFFCURVE",
"151.906 54.992 CURVE SMOOTH",
"300.638 110.677 OFFCURVE",
"461.523 217.512 OFFCURVE",
"508.765 255.094 CURVE SMOOTH",
"518 262 OFFCURVE",
"523 270 OFFCURVE",
"523 275 CURVE SMOOTH",
"523 279 OFFCURVE",
"520 281 OFFCURVE",
"515 281 CURVE SMOOTH",
"510 281 OFFCURVE",
"503 278 OFFCURVE",
"492.202 272.077 CURVE",
"421.639 229.853 OFFCURVE",
"350.066 195.147 OFFCURVE",
"285.398 167.364 CURVE",
"285.398 754.673 LINE",
"287.669 802.493 OFFCURVE",
"314.279 789.976 OFFCURVE",
"314.279 816.321 CURVE",
"230.897 816.321 LINE",
"230.897 144.882 LINE",
"123.745 102.456 OFFCURVE",
"46.539 82.096 OFFCURVE",
"46.539 82.096 CURVE SMOOTH",
"46.539 82.096 OFFCURVE",
"85.047 13.562 OFFCURVE",
"95.336 0.855 CURVE"
);
},
{
closed = 1;
nodes = (
"561 399 OFFCURVE",
"576 391 OFFCURVE",
"589 391 CURVE SMOOTH",
"604 391 OFFCURVE",
"618 402 OFFCURVE",
"618 422 CURVE SMOOTH",
"618 432 OFFCURVE",
"615 443 OFFCURVE",
"607.41 457.231 CURVE SMOOTH",
"573.695 517.77 OFFCURVE",
"495.091 581.516 OFFCURVE",
"444.717 597.827 CURVE",
"440 599 OFFCURVE",
"436 600 OFFCURVE",
"432 600 CURVE SMOOTH",
"425 600 OFFCURVE",
"421 597 OFFCURVE",
"421 592 CURVE SMOOTH",
"421 587 OFFCURVE",
"425 580 OFFCURVE",
"434.417 572.936 CURVE SMOOTH",
"483.684 536.571 OFFCURVE",
"525.789 478.727 OFFCURVE",
"553.249 416.637 CURVE SMOOTH"
);
}
);
width = 1000;
}
);
unicode = 4EE5;
},
{
glyphname = uni4F0A;
lastChange = "2019-08-30 17:25:31 +0000";
layers = (
{
layerId = "CA066C67-EDFC-49EB-AE27-EC7C0259E992";
paths = (
{
closed = 1;
nodes = (
"359 -54 OFFCURVE",
"363 -56 OFFCURVE",
"369 -56 CURVE SMOOTH",
"377 -56 OFFCURVE",
"388 -52 OFFCURVE",
"399.243 -46.677 CURVE SMOOTH",
"453.094 -20.961 OFFCURVE",
"605.118 72.63 OFFCURVE",
"620.529 335.399 CURVE SMOOTH",
"621.099 346.298 LINE",
"764.991 345.725 LINE",
"764.991 275.293 LINE SMOOTH",
"765 272 OFFCURVE",
"770 269 OFFCURVE",
"778 269 CURVE SMOOTH",
"795 269 OFFCURVE",
"823 281 OFFCURVE",
"822.805 314.243 CURVE",
"822.805 533.146 LINE",
"966.661 533.146 LINE",
"966.661 533.146 OFFCURVE",
"948.581 599.04 OFFCURVE",
"893.156 614.857 CURVE",
"893.156 614.857 OFFCURVE",
"871.895 561.646 OFFCURVE",
"822.805 560.905 CURVE",
"822.805 690.531 LINE",
"827 737 OFFCURVE",
"857 729 OFFCURVE",
"857 741 CURVE SMOOTH",
"857 743 OFFCURVE",
"856 746 OFFCURVE",
"854.04 749.368 CURVE SMOOTH",
"851.051 754.46 OFFCURVE",
"828.966 784.065 OFFCURVE",
"780.44 799.925 CURVE",
"780.44 799.925 OFFCURVE",
"774.716 779.743 OFFCURVE",
"749.107 765.435 CURVE",
"610.816 765.102 LINE SMOOTH",
"549.788 765.784 OFFCURVE",
"488.762 764.242 OFFCURVE",
"427.734 771.28 CURVE SMOOTH",
"408.27 773.525 LINE",
"408.27 730.106 LINE",
"427.734 732.351 LINE SMOOTH",
"476.355 737.961 OFFCURVE",
"524.97 738.142 OFFCURVE",
"573.591 738.317 CURVE",
"573.574 689.747 OFFCURVE",
"574.244 626.459 OFFCURVE",
"574.092 560.522 CURVE",
"500.212 560.698 OFFCURVE",
"426.332 561.057 OFFCURVE",
"352.45 566.453 CURVE SMOOTH",
"332.986 567.874 LINE",
"332.986 526.103 LINE",
"352.45 527.524 LINE SMOOTH",
"426.292 532.918 OFFCURVE",
"500.136 533.281 OFFCURVE",
"573.976 533.457 CURVE",
"573.631 478.155 OFFCURVE",
"572.531 422.466 OFFCURVE",
"569.815 373.214 CURVE",
"522.464 373.465 OFFCURVE",
"475.11 373.843 OFFCURVE",
"427.765 379.382 CURVE SMOOTH",
"408.306 381.658 LINE",
"408.237 338.238 LINE",
"427.706 340.453 LINE SMOOTH",
"474.509 345.778 OFFCURVE",
"521.302 346.06 OFFCURVE",
"568.095 346.163 CURVE",
"566.586 325.318 OFFCURVE",
"564.762 305.875 OFFCURVE",
"562.447 288.87 CURVE SMOOTH",
"536.993 101.827 OFFCURVE",
"442.551 26.481 OFFCURVE",
"389.827 -10.283 CURVE SMOOTH",
"368.773 -24.962 OFFCURVE",
"351.428 -31.327 OFFCURVE",
"356.627 -47.772 CURVE"
);
},
{
closed = 1;
nodes = (
"190 -68 OFFCURVE",
"195 -71 OFFCURVE",
"202 -71 CURVE SMOOTH",
"218 -71 OFFCURVE",
"245 -59 OFFCURVE",
"244.546 -25.779 CURVE",
"244.546 400.652 LINE",
"246.827 448.429 OFFCURVE",
"273.426 435.926 OFFCURVE",
"273.426 462.264 CURVE",
"240.219 462.264 LINE",
"278.67 540.863 OFFCURVE",
"306.051 633.031 OFFCURVE",
"323.142 736.55 CURVE SMOOTH",
"326.183 754.969 OFFCURVE",
"334.209 767.407 OFFCURVE",
"347.199 765.991 CURVE SMOOTH",
"355 765 OFFCURVE",
"362 771 OFFCURVE",
"362 778 CURVE SMOOTH",
"362 781 OFFCURVE",
"360 785 OFFCURVE",
"354.515 788.297 CURVE",
"329.819 801.969 OFFCURVE",
"268.156 831.745 OFFCURVE",
"268.156 831.745 CURVE",
"252.498 611.894 OFFCURVE",
"187.214 455.371 OFFCURVE",
"98.955 335.922 CURVE SMOOTH",
"62 286 OFFCURVE",
"33 270 OFFCURVE",
"33 255 CURVE SMOOTH",
"33 252 OFFCURVE",
"35 249 OFFCURVE",
"37.124 246.291 CURVE",
"40 243 OFFCURVE",
"43 242 OFFCURVE",
"47 242 CURVE SMOOTH",
"70 242 OFFCURVE",
"118 288 OFFCURVE",
"158.018 334.934 CURVE SMOOTH",
"169.259 348.137 OFFCURVE",
"179.87 362.155 OFFCURVE",
"190.044 376.728 CURVE",
"190.044 -64.73 LINE SMOOTH"
);
},
{
closed = 1;
nodes = (
"624.447 421.889 OFFCURVE",
"625.664 478.69 OFFCURVE",
"626.343 533.647 CURVE",
"764.991 533.514 LINE",
"764.991 373.04 LINE",
"622.371 372.924 LINE"
);
},
{
closed = 1;
nodes = (
"626.633 560.33 LINE",
"627 696 LINE",
"627.196 738.489 LINE",
"764.991 738.158 LINE",
"764.991 560.463 LINE"
);
}
);
width = 1000;
}
);
unicode = 4F0A;
},
{
glyphname = uni4F4D;
lastChange = "2019-08-30 17:24:58 +0000";
layers = (
{
layerId = "CA066C67-EDFC-49EB-AE27-EC7C0259E992";
paths = (
{
closed = 1;
nodes = (
"296.641 7.518 LINE SMOOTH",
"396.065 14.558 OFFCURVE",
"495.49 13.016 OFFCURVE",
"594.917 13.696 CURVE SMOOTH",
"961.456 12.814 LINE",
"961.456 12.814 OFFCURVE",
"940.081 78.708 OFFCURVE",
"874.529 94.525 CURVE",
"874.529 94.525 OFFCURVE",
"849.36 41.215 OFFCURVE",
"791.2 40.559 CURVE SMOOTH",
"642.142 40.34 LINE",
"677.635 102.685 OFFCURVE",
"749.146 271.876 OFFCURVE",
"783.287 391.174 CURVE SMOOTH",
"787.59 406.205 OFFCURVE",
"803.351 415.279 OFFCURVE",
"815.746 413.653 CURVE SMOOTH",
"826 412 OFFCURVE",
"833 416 OFFCURVE",
"833 421 CURVE SMOOTH",
"833 423 OFFCURVE",
"831 426 OFFCURVE",
"826.417 428.672 CURVE SMOOTH",
"807.368 439.288 OFFCURVE",
"737.25 470.533 OFFCURVE",
"737.25 470.533 CURVE",
"705.026 316.819 OFFCURVE",
"670.277 184.372 OFFCURVE",
"607.381 41.633 CURVE",
"606.987 40.288 LINE",
"594.917 40.271 LINE SMOOTH",
"495.49 40.951 OFFCURVE",
"396.065 39.409 OFFCURVE",
"296.641 46.447 CURVE SMOOTH",
"277.176 47.825 LINE",
"277.176 6.14 LINE"
);
},
{
closed = 1;
nodes = (
"195 -68 OFFCURVE",
"200 -71 OFFCURVE",
"207 -71 CURVE SMOOTH",
"223 -71 OFFCURVE",
"250 -59 OFFCURVE",
"249.75 -25.779 CURVE",
"249.75 400.652 LINE",
"252.031 448.429 OFFCURVE",
"278.628 435.926 OFFCURVE",
"278.628 462.264 CURVE",
"245.423 462.264 LINE",
"283.874 540.863 OFFCURVE",
"311.255 633.031 OFFCURVE",
"328.349 736.55 CURVE SMOOTH",
"331.388 754.969 OFFCURVE",
"339.416 767.407 OFFCURVE",
"352.406 765.991 CURVE SMOOTH",
"361 765 OFFCURVE",
"368 771 OFFCURVE",
"368 778 CURVE SMOOTH",
"368 781 OFFCURVE",
"365 785 OFFCURVE",
"359.719 788.297 CURVE",
"335.023 801.969 OFFCURVE",
"273.358 831.745 OFFCURVE",
"273.358 831.745 CURVE",
"257.702 611.894 OFFCURVE",
"192.417 455.371 OFFCURVE",
"104.162 335.922 CURVE SMOOTH",
"68 286 OFFCURVE",
"39 270 OFFCURVE",
"39 255 CURVE SMOOTH",
"39 252 OFFCURVE",
"40 249 OFFCURVE",
"42.33 246.291 CURVE SMOOTH",
"45 243 OFFCURVE",
"48 242 OFFCURVE",
"52 242 CURVE SMOOTH",
"76 242 OFFCURVE",
"123 288 OFFCURVE",
"163.22 334.934 CURVE SMOOTH",
"174.463 348.139 OFFCURVE",
"185.075 362.155 OFFCURVE",
"195.251 376.73 CURVE",
"195.251 -64.73 LINE"
);
},
{
closed = 1;
nodes = (
"499 109 OFFCURVE",
"514 96 OFFCURVE",
"529 96 CURVE SMOOTH",
"545 96 OFFCURVE",
"562 112 OFFCURVE",
"560.581 142.497 CURVE SMOOTH",
"556.111 246.821 OFFCURVE",
"503.803 389.235 OFFCURVE",
"432.592 451.38 CURVE",
"430 454 OFFCURVE",
"427 455 OFFCURVE",
"424 455 CURVE SMOOTH",
"418 455 OFFCURVE",
"412 450 OFFCURVE",
"412 444 CURVE SMOOTH",
"412 442 OFFCURVE",
"413 440 OFFCURVE",
"414.092 437.81 CURVE",
"481.673 327.306 OFFCURVE",
"492.09 210.074 OFFCURVE",
"496.937 133.846 CURVE SMOOTH"
);
},
{
closed = 1;
nodes = (
"354.045 529.541 LINE SMOOTH",
"434.003 536.579 OFFCURVE",
"513.963 535.037 OFFCURVE",
"593.921 535.719 CURVE SMOOTH",
"902.062 534.835 LINE",
"902.062 534.835 OFFCURVE",
"880.688 600.729 OFFCURVE",
"815.135 616.546 CURVE",
"815.135 616.546 OFFCURVE",
"789.888 562.984 OFFCURVE",
"731.471 562.544 CURVE SMOOTH",
"629.29 562.357 LINE",
"629.29 719.217 LINE SMOOTH",
"629.328 774.846 OFFCURVE",
"658.634 759.248 OFFCURVE",
"658.634 786.755 CURVE",
"574.789 786.755 LINE",
"574.789 562.376 LINE",
"501.209 562.737 OFFCURVE",
"427.626 561.991 OFFCURVE",
"354.045 568.47 CURVE SMOOTH",
"334.581 570.183 LINE",
"334.581 527.828 LINE"
);
}
);
width = 1000;
}
);
unicode = 4F4D;
},
{
glyphname = uni4F9D;
lastChange = "2019-08-30 17:25:58 +0000";
layers = (
{
layerId = "CA066C67-EDFC-49EB-AE27-EC7C0259E992";
paths = (
{
closed = 1;
nodes = (
"340 -61 OFFCURVE",
"343 -63 OFFCURVE",
"346 -63 CURVE SMOOTH",
"351 -63 OFFCURVE",
"356 -55 OFFCURVE",
"358 -43 CURVE SMOOTH",
"361 -28 OFFCURVE",
"369 -18 OFFCURVE",
"395 -11 CURVE SMOOTH",
"510 24 OFFCURVE",
"610 84 OFFCURVE",
"654 117 CURVE",
"663 123 OFFCURVE",
"667 131 OFFCURVE",
"667 137 CURVE SMOOTH",
"667 143 OFFCURVE",
"663 147 OFFCURVE",
"655 147 CURVE SMOOTH",
"651 147 OFFCURVE",
"645 146 OFFCURVE",
"638 142 CURVE",
"575 111 OFFCURVE",
"520 88 OFFCURVE",
"473 71 CURVE",
"473 298 LINE",
"510 332 OFFCURVE",
"553 378 OFFCURVE",
"589 434 CURVE",
"609 283 OFFCURVE",
"695 67 OFFCURVE",
"859 -26 CURVE",
"862 -28 OFFCURVE",
"866 -29 OFFCURVE",
"869 -29 CURVE SMOOTH",
"873 -29 OFFCURVE",
"877 -27 OFFCURVE",
"882 -23 CURVE",
"893 -15 OFFCURVE",
"920 -5 OFFCURVE",
"949 -7 CURVE",
"958 -7 OFFCURVE",
"965 -6 OFFCURVE",
"965 -3 CURVE SMOOTH",
"965 0 OFFCURVE",
"962 3 OFFCURVE",
"953 7 CURVE SMOOTH",
"845 56 OFFCURVE",
"770 130 OFFCURVE",
"718 209 CURVE",
"749 231 OFFCURVE",
"807 280 OFFCURVE",
"888 380 CURVE SMOOTH",
"914 414 OFFCURVE",
"925 424 OFFCURVE",
"941 419 CURVE SMOOTH",
"944 418 OFFCURVE",
"947 418 OFFCURVE",
"950 418 CURVE SMOOTH",
"957 418 OFFCURVE",
"961 421 OFFCURVE",
"961 425 CURVE SMOOTH",
"961 428 OFFCURVE",
"959 432 OFFCURVE",
"954 435 CURVE",
"936 447 OFFCURVE",
"875 493 OFFCURVE",
"875 493 CURVE",
"834 382 OFFCURVE",
"743 280 OFFCURVE",
"702 235 CURVE",
"651 322 OFFCURVE",
"626 412 OFFCURVE",
"615 480 CURVE",
"632 512 OFFCURVE",
"646 547 OFFCURVE",
"654 583 CURVE",
"850 583 LINE",
"850 584 LINE",
"971 583 LINE",
"971 583 OFFCURVE",
"949 646 OFFCURVE",
"884 661 CURVE",
"884 661 OFFCURVE",
"860 614 OFFCURVE",
"806 610 CURVE",
"658 610 LINE",
"658 754 LINE SMOOTH",
"658 808 OFFCURVE",
"687 793 OFFCURVE",
"687 819 CURVE",
"603 819 LINE",
"603 610 LINE",
"589 610 LINE SMOOTH",
"506 611 OFFCURVE",
"424 609 OFFCURVE",
"341 616 CURVE SMOOTH",
"322 618 LINE",
"322 576 LINE",
"341 577 LINE SMOOTH",
"405 582 OFFCURVE",
"469 583 OFFCURVE",
"532 583 CURVE SMOOTH",
"587 583 LINE",
"552 431 OFFCURVE",
"430 317 OFFCURVE",
"363 265 CURVE SMOOTH",
"324 235 OFFCURVE",
"265 213 OFFCURVE",
"277 191 CURVE",
"279 187 OFFCURVE",
"283 186 OFFCURVE",
"289 186 CURVE SMOOTH",
"315 186 OFFCURVE",
"374 220 OFFCURVE",
"414 249 CURVE",
"415 250 OFFCURVE",
"417 251 OFFCURVE",
"419 253 CURVE",
"419 53 LINE",
"346 31 OFFCURVE",
"305 27 OFFCURVE",
"305 27 CURVE SMOOTH",
"305 27 OFFCURVE",
"330 -43 OFFCURVE",
"338 -56 CURVE"
);
},
{
closed = 1;
nodes = (
"186 -69 OFFCURVE",
"191 -71 OFFCURVE",
"198 -71 CURVE SMOOTH",
"213 -71 OFFCURVE",
"240 -59 OFFCURVE",
"240 -26 CURVE SMOOTH",
"240 401 LINE",
"243 448 OFFCURVE",
"269 436 OFFCURVE",
"269 462 CURVE",
"236 462 LINE",
"275 541 OFFCURVE",
"302 633 OFFCURVE",
"319 737 CURVE SMOOTH",
"322 755 OFFCURVE",
"330 767 OFFCURVE",
"343 766 CURVE",
"351 765 OFFCURVE",
"358 771 OFFCURVE",
"358 777 CURVE SMOOTH",
"358 781 OFFCURVE",
"356 785 OFFCURVE",
"350 788 CURVE",
"326 802 OFFCURVE",
"264 832 OFFCURVE",
"264 832 CURVE",
"248 612 OFFCURVE",
"183 455 OFFCURVE",
"95 336 CURVE SMOOTH",
"58 286 OFFCURVE",
"29 269 OFFCURVE",
"29 255 CURVE SMOOTH",
"29 252 OFFCURVE",
"30 249 OFFCURVE",
"33 246 CURVE",
"35 243 OFFCURVE",
"39 242 OFFCURVE",
"42 242 CURVE SMOOTH",
"66 242 OFFCURVE",
"114 288 OFFCURVE",
"154 335 CURVE SMOOTH",
"165 348 OFFCURVE",
"176 362 OFFCURVE",
"186 377 CURVE",
"186 -65 LINE SMOOTH"
);
}
);
width = 1000;
}
);
unicode = 4F9D;
},
{
glyphname = uni5049;
lastChange = "2019-08-30 17:26:29 +0000";
layers = (
{
layerId = "CA066C67-EDFC-49EB-AE27-EC7C0259E992";
paths = (
{
closed = 1;
nodes = (
"588 -68 OFFCURVE",
"593 -71 OFFCURVE",
"600 -71 CURVE SMOOTH",
"616 -71 OFFCURVE",
"643 -59 OFFCURVE",
"642.779 -25.314 CURVE",
"642.779 98.598 LINE",
"967.334 97.617 LINE",
"967.334 97.617 OFFCURVE",
"945.959 164.19 OFFCURVE",
"880.407 180.176 CURVE",
"880.407 180.176 OFFCURVE",
"854.998 125.535 OFFCURVE",
"796.068 125.535 CURVE SMOOTH",
"642.779 125.269 LINE",
"642.779 217.917 LINE",
"833.131 217.009 LINE",
"833.131 217.009 OFFCURVE",
"814.563 274.842 OFFCURVE",
"757.622 288.725 CURVE",
"757.622 288.725 OFFCURVE",
"742.04 256.161 OFFCURVE",
"707.393 245.137 CURVE",
"642.779 245.137 LINE",
"642.779 335.943 LINE",
"729.672 335.784 LINE",
"729.672 314.207 LINE",
"730 311 OFFCURVE",
"735 308 OFFCURVE",
"741 308 CURVE SMOOTH",
"758 308 OFFCURVE",
"784 320 OFFCURVE",
"784.171 353.559 CURVE SMOOTH",
"784.171 398.97 LINE",
"788 446 OFFCURVE",
"817 446 OFFCURVE",
"817 460 CURVE SMOOTH",
"817 463 OFFCURVE",
"816 466 OFFCURVE",
"813.622 469.697 CURVE",
"810.802 474.843 OFFCURVE",
"789.983 504.752 OFFCURVE",
"744.237 520.779 CURVE",
"744.237 520.779 OFFCURVE",
"738.818 500.264 OFFCURVE",
"714.485 485.799 CURVE",
"462.03 485.799 LINE",
"443.89 512.672 OFFCURVE",
"414.384 520.779 OFFCURVE",
"414.384 520.779 CURVE",
"414.384 314.207 LINE",
"414 311 OFFCURVE",
"419 308 OFFCURVE",
"426 308 CURVE SMOOTH",
"439 308 OFFCURVE",
"458 316 OFFCURVE",
"465.806 336.269 CURVE",
"588.278 336.043 LINE",
"588.278 245.137 LINE",
"443.479 245.137 LINE",
"425.613 265.043 OFFCURVE",
"402.739 271.487 OFFCURVE",
"402.739 271.487 CURVE",
"402.739 127.386 LINE",
"376.185 128.248 OFFCURVE",
"349.63 129.451 OFFCURVE",
"323.076 131.396 CURVE SMOOTH",
"303.612 132.824 LINE",
"303.612 91.042 LINE",
"323.076 92.468 LINE SMOOTH",
"411.476 98.95 OFFCURVE",
"499.878 98.199 OFFCURVE",
"588.278 98.562 CURVE",
"588.278 -64.665 LINE"
);
},
{
closed = 1;
nodes = (
"189 -68 OFFCURVE",
"194 -71 OFFCURVE",
"201 -71 CURVE SMOOTH",
"217 -71 OFFCURVE",
"244 -59 OFFCURVE",
"243.872 -25.779 CURVE",
"243.872 400.652 LINE",
"246.152 448.429 OFFCURVE",
"272.75 435.926 OFFCURVE",
"272.75 462.264 CURVE",
"239.545 462.264 LINE",
"277.996 540.863 OFFCURVE",
"305.379 633.031 OFFCURVE",
"322.47 736.55 CURVE SMOOTH",
"325.509 754.969 OFFCURVE",
"333.538 767.407 OFFCURVE",
"346.527 765.991 CURVE SMOOTH",
"355 765 OFFCURVE",
"362 771 OFFCURVE",
"362 778 CURVE SMOOTH",
"362 781 OFFCURVE",
"359 785 OFFCURVE",
"353.841 788.297 CURVE",
"329.145 801.969 OFFCURVE",
"267.48 831.745 OFFCURVE",
"267.48 831.745 CURVE",
"251.826 611.894 OFFCURVE",
"186.538 455.371 OFFCURVE",
"98.283 335.922 CURVE SMOOTH",
"62 286 OFFCURVE",
"33 270 OFFCURVE",
"33 255 CURVE SMOOTH",
"33 252 OFFCURVE",
"34 249 OFFCURVE",
"36.452 246.291 CURVE",
"39 243 OFFCURVE",
"42 242 OFFCURVE",
"46 242 CURVE SMOOTH",
"70 242 OFFCURVE",
"117 288 OFFCURVE",
"157.342 334.934 CURVE SMOOTH",
"168.585 348.139 OFFCURVE",
"179.196 362.16 OFFCURVE",
"189.373 376.735 CURVE",
"189.373 -64.73 LINE"
);
},
{
closed = 1;
nodes = (
"544.6 125.485 OFFCURVE",
"500.919 125.516 OFFCURVE",
"457.241 126.148 CURVE",
"457.241 217.917 LINE",
"588.278 217.917 LINE",
"588.278 125.304 LINE"
);
},
{
closed = 1;
nodes = (
"468.883 363.503 LINE",
"468.883 458.541 LINE",
"729.672 458.541 LINE",
"729.672 363.025 LINE"
);
},
{
closed = 1;
nodes = (
"582.053 583.068 LINE",
"584.916 595.647 OFFCURVE",
"593.847 634.31 OFFCURVE",
"604.886 676.736 CURVE",
"734.591 676.736 LINE",
"734.591 583.109 LINE"
);
},
{
closed = 1;
nodes = (
"339.932 550.177 LINE SMOOTH",
"433.121 557.217 OFFCURVE",
"526.311 555.675 OFFCURVE",
"619.501 556.355 CURVE SMOOTH",
"967.334 555.328 LINE",
"967.334 555.328 OFFCURVE",
"945.959 612.783 OFFCURVE",
"880.407 628.762 CURVE",
"880.407 628.762 OFFCURVE",
"854.998 583.244 OFFCURVE",
"796.068 583.244 CURVE SMOOTH",
"789.092 583.194 LINE",
"789.092 619.402 LINE",
"793 666 OFFCURVE",
"822 664 OFFCURVE",
"822 678 CURVE SMOOTH",
"822 681 OFFCURVE",
"821 684 OFFCURVE",
"818.543 687.884 CURVE",
"815.722 693.031 OFFCURVE",
"794.904 722.94 OFFCURVE",
"749.161 738.966 CURVE",
"749.161 738.966 OFFCURVE",
"743.741 718.456 OFFCURVE",
"719.418 703.994 CURVE",
"612.152 703.994 LINE",
"617.332 722.935 OFFCURVE",
"622.749 741.675 OFFCURVE",
"628.079 758.266 CURVE",
"632.206 768.419 OFFCURVE",
"638.291 787.708 OFFCURVE",
"655.693 785.412 CURVE",
"664 784 OFFCURVE",
"672 788 OFFCURVE",
"672 793 CURVE SMOOTH",
"672 795 OFFCURVE",
"669 798 OFFCURVE",
"663.194 800.816 CURVE SMOOTH",
"657.506 803.342 OFFCURVE",
"581.062 831.745 OFFCURVE",
"581.062 831.745 CURVE",
"562.61 703.994 LINE",
"416.679 703.994 LINE",
"416.679 676.736 LINE",
"558.673 676.736 LINE",
"545.163 583.218 LINE",
"476.752 583.411 OFFCURVE",
"408.342 583.938 OFFCURVE",
"339.932 589.106 CURVE SMOOTH",
"320.467 590.577 LINE",
"320.467 548.706 LINE"
);
}
);
width = 1000;
}
);
unicode = 5049;
},
{
glyphname = uni54C0;
lastChange = "2019-08-30 16:26:32 +0000";
layers = (
{
layerId = "CA066C67-EDFC-49EB-AE27-EC7C0259E992";
paths = (
{
closed = 1;
nodes = (
"214 -98 OFFCURVE",
"218 -92 OFFCURVE",
"220 -81 CURVE SMOOTH",
"223 -64 OFFCURVE",
"232 -53 OFFCURVE",
"254 -48 CURVE SMOOTH",
"359 -22 OFFCURVE",
"512 27 OFFCURVE",
"577 76 CURVE SMOOTH",
"581 79 OFFCURVE",
"583 82 OFFCURVE",
"583 86 CURVE SMOOTH",
"583 92 OFFCURVE",
"579 97 OFFCURVE",
"570 97 CURVE SMOOTH",
"566 97 OFFCURVE",
"561 96 OFFCURVE",
"555 93 CURVE SMOOTH",
"520 75 OFFCURVE",
"467 59 OFFCURVE",
"409 43 CURVE",
"410 233 LINE",
"441 264 OFFCURVE",
"467 295 OFFCURVE",
"486 323 CURVE",
"517 207 OFFCURVE",
"640 -2 OFFCURVE",
"842 -69 CURVE SMOOTH",
"851 -72 OFFCURVE",
"857 -71 OFFCURVE",
"865 -62 CURVE SMOOTH",
"874 -51 OFFCURVE",
"900 -38 OFFCURVE",
"929 -32 CURVE SMOOTH",
"938 -30 OFFCURVE",
"944 -28 OFFCURVE",
"944 -25 CURVE SMOOTH",
"944 -23 OFFCURVE",
"940 -21 OFFCURVE",
"930 -18 CURVE SMOOTH",
"796 22 OFFCURVE",
"697 77 OFFCURVE",
"631 147 CURVE",
"663 160 OFFCURVE",
"720 186 OFFCURVE",
"808 252 CURVE SMOOTH",
"832 270 OFFCURVE",
"845 278 OFFCURVE",
"856 278 CURVE SMOOTH",
"867 278 OFFCURVE",
"872 272 OFFCURVE",
"879 272 CURVE SMOOTH",
"884 272 OFFCURVE",
"887 274 OFFCURVE",
"887 277 CURVE SMOOTH",
"887 280 OFFCURVE",
"886 283 OFFCURVE",
"882 286 CURVE SMOOTH",
"866 298 OFFCURVE",
"815 352 OFFCURVE",
"815 352 CURVE",
"752 263 OFFCURVE",
"657 194 OFFCURVE",
"613 166 CURVE",
"554 236 OFFCURVE",
"521 308 OFFCURVE",
"506 355 CURVE",
"507 356 OFFCURVE",
"511 363 OFFCURVE",
"522 386 CURVE",
"653 386 LINE",
"653 326 LINE SMOOTH",
"653 322 OFFCURVE",
"657 319 OFFCURVE",
"664 319 CURVE SMOOTH",
"680 319 OFFCURVE",
"707 331 OFFCURVE",
"707 365 CURVE SMOOTH",
"707 495 LINE",
"711 541 OFFCURVE",
"740 533 OFFCURVE",
"740 545 CURVE SMOOTH",
"740 547 OFFCURVE",
"739 550 OFFCURVE",
"736 554 CURVE SMOOTH",
"733 558 OFFCURVE",
"713 588 OFFCURVE",
"667 604 CURVE",
"667 604 OFFCURVE",
"662 584 OFFCURVE",
"638 570 CURVE",
"343 570 LINE",
"325 596 OFFCURVE",
"295 604 OFFCURVE",
"295 604 CURVE",
"295 326 LINE SMOOTH",
"295 322 OFFCURVE",
"300 319 OFFCURVE",
"307 319 CURVE SMOOTH",
"323 319 OFFCURVE",
"350 331 OFFCURVE",
"350 365 CURVE SMOOTH",
"350 386 LINE",
"456 386 LINE",
"403 273 OFFCURVE",
"255 142 OFFCURVE",
"58 72 CURVE SMOOTH",
"44 67 OFFCURVE",
"30 56 OFFCURVE",
"38 45 CURVE SMOOTH",
"41 41 OFFCURVE",
"45 39 OFFCURVE",
"51 39 CURVE SMOOTH",
"65 39 OFFCURVE",
"86 47 OFFCURVE",
"105 52 CURVE SMOOTH",
"203 78 OFFCURVE",
"288 129 OFFCURVE",
"355 184 CURVE",
"354 29 LINE",
"293 14 OFFCURVE",
"229 2 OFFCURVE",
"169 -3 CURVE",
"177 -22 OFFCURVE",
"200 -78 OFFCURVE",
"203 -89 CURVE SMOOTH",
"205 -95 OFFCURVE",
"208 -98 OFFCURVE",
"211 -98 CURVE SMOOTH"
);
},
{
closed = 1;
nodes = (
"350 413 LINE",
"350 542 LINE",
"653 542 LINE",
"653 413 LINE"
);
},
{
closed = 1;
nodes = (
"139 644 LINE SMOOTH",
"258 650 OFFCURVE",
"378 651 OFFCURVE",
"497 651 CURVE SMOOTH",
"922 650 LINE",
"922 650 OFFCURVE",
"901 716 OFFCURVE",
"835 732 CURVE",
"835 732 OFFCURVE",
"810 678 OFFCURVE",
"752 678 CURVE SMOOTH",
"524 677 LINE",
"524 751 LINE SMOOTH",
"524 806 OFFCURVE",
"554 791 OFFCURVE",
"554 818 CURVE",
"471 818 LINE",
"471 677 LINE",
"360 678 OFFCURVE",
"250 671 OFFCURVE",
"139 683 CURVE SMOOTH",
"120 685 LINE",
"120 643 LINE"
);
}
);
width = 1000;
}
);
unicode = 54C0;
},
{
glyphname = uni5516;
lastChange = "2019-08-30 16:27:37 +0000";
layers = (
{
layerId = "CA066C67-EDFC-49EB-AE27-EC7C0259E992";
paths = (
{
closed = 1;
nodes = (
"267 -34 LINE SMOOTH",
"413 -27 OFFCURVE",
"440 -27 OFFCURVE",
"960 -28 CURVE",
"960 -28 OFFCURVE",
"939 38 OFFCURVE",
"873 53 CURVE",
"873 53 OFFCURVE",
"848 -1 OFFCURVE",
"791 -1 CURVE SMOOTH",
"688 -1 LINE",
"688 255 LINE",
"782 255 LINE",
"782 195 LINE SMOOTH",
"782 192 OFFCURVE",
"787 190 OFFCURVE",
"793 190 CURVE SMOOTH",
"809 190 OFFCURVE",
"836 202 OFFCURVE",
"836 234 CURVE SMOOTH",
"836 465 LINE",
"843 500 OFFCURVE",
"867 494 OFFCURVE",
"867 505 CURVE SMOOTH",
"867 508 OFFCURVE",
"866 510 OFFCURVE",
"864 514 CURVE SMOOTH",
"861 519 OFFCURVE",
"840 549 OFFCURVE",
"794 565 CURVE",
"794 565 OFFCURVE",
"789 544 OFFCURVE",
"765 530 CURVE",
"688 530 LINE",
"688 745 LINE",
"736 745 LINE",
"911 744 LINE",
"911 744 OFFCURVE",
"890 810 OFFCURVE",
"824 826 CURVE",
"824 826 OFFCURVE",
"799 772 OFFCURVE",
"742 772 CURVE SMOOTH",
"506 772 OFFCURVE",
"425 770 OFFCURVE",
"340 778 CURVE SMOOTH",
"320 780 LINE",
"320 738 LINE",
"340 739 LINE SMOOTH",
"391 742 OFFCURVE",
"442 745 OFFCURVE",
"494 745 CURVE",
"494 530 LINE",
"398 530 LINE",
"379 557 OFFCURVE",
"350 565 OFFCURVE",
"350 565 CURVE",
"350 195 LINE SMOOTH",
"350 192 OFFCURVE",
"355 190 OFFCURVE",
"362 190 CURVE SMOOTH",
"378 190 OFFCURVE",
"404 202 OFFCURVE",
"404 234 CURVE SMOOTH",
"404 256 LINE",
"494 256 LINE",
"494 -1 LINE",
"418 0 OFFCURVE",
"342 -2 OFFCURVE",
"267 5 CURVE SMOOTH",
"247 7 LINE",
"247 -35 LINE"
);
},
{
closed = 1;
nodes = (
"88 65 OFFCURVE",
"114 77 OFFCURVE",
"114 110 CURVE SMOOTH",
"114 146 LINE",
"228 146 LINE",
"228 71 LINE SMOOTH",
"228 68 OFFCURVE",
"233 65 OFFCURVE",
"240 65 CURVE SMOOTH",
"256 65 OFFCURVE",
"283 77 OFFCURVE",
"283 110 CURVE SMOOTH",
"283 636 LINE",
"288 680 OFFCURVE",
"315 673 OFFCURVE",
"315 684 CURVE SMOOTH",
"315 686 OFFCURVE",
"314 689 OFFCURVE",
"312 693 CURVE SMOOTH",
"309 698 OFFCURVE",
"288 727 OFFCURVE",
"243 743 CURVE",
"243 743 OFFCURVE",
"237 723 OFFCURVE",
"213 709 CURVE",
"107 709 LINE",
"89 735 OFFCURVE",
"60 743 OFFCURVE",
"60 743 CURVE",
"60 71 LINE SMOOTH",
"60 68 OFFCURVE",
"65 65 OFFCURVE",
"72 65 CURVE SMOOTH"
);
},
{
closed = 1;
nodes = (
"114 173 LINE",
"114 682 LINE",
"228 682 LINE",
"228 173 LINE"
);
},
{
closed = 1;
nodes = (
"548 -1 LINE",
"548 256 LINE",
"633 256 LINE",
"633 -1 LINE"
);
},
{
closed = 1;
nodes = (
"404 283 LINE",
"404 503 LINE",
"494 503 LINE",
"494 283 LINE"
);
},
{
closed = 1;
nodes = (
"548 283 LINE",
"548 503 LINE",
"633 503 LINE",
"633 283 LINE"
);
},
{
closed = 1;
nodes = (
"688 283 LINE",
"688 503 LINE",
"782 503 LINE",
"782 283 LINE"
);
},
{
closed = 1;
nodes = (
"548 745 LINE",
"633 745 LINE",
"633 530 LINE",
"548 530 LINE"
);
}
);
width = 1000;
}
);
unicode = 5516;
},
{
glyphname = uni56F2;
lastChange = "2020-01-08 04:19:18 +0000";
layers = (
{
layerId = "CA066C67-EDFC-49EB-AE27-EC7C0259E992";
paths = (
{
closed = 1;
nodes = (
"95 -68 OFFCURVE",
"100 -70 OFFCURVE",
"102 -70 CURVE SMOOTH",
"118 -70 OFFCURVE",
"150 -58 OFFCURVE",
"150 -25 CURVE SMOOTH",
"150 -4 LINE",
"848 -4 LINE",
"848 -64 LINE SMOOTH",
"848 -68 OFFCURVE",
"853 -70 OFFCURVE",
"855 -70 CURVE SMOOTH",
"871 -70 OFFCURVE",
"903 -58 OFFCURVE",
"903 -25 CURVE SMOOTH",
"903 723 LINE",
"907 768 OFFCURVE",
"935 760 OFFCURVE",
"930 772 CURVE SMOOTH",
"929 774 OFFCURVE",
"934 777 OFFCURVE",
"932 781 CURVE",
"929 786 OFFCURVE",
"908 815 OFFCURVE",
"862 831 CURVE",
"862 831 OFFCURVE",
"857 811 OFFCURVE",
"833 797 CURVE",
"143 797 LINE",
"125 823 OFFCURVE",
"95 831 OFFCURVE",
"95 831 CURVE",
"95 -64 LINE SMOOTH"
);
},
{
closed = 1;
nodes = (
"408 345 OFFCURVE",
"408 360 OFFCURVE",
"408 376 CURVE SMOOTH",
"408 406 OFFCURVE",
"408 447 OFFCURVE",
"409 489 CURVE",
"543 489 LINE",
"543 331 LINE",
"407 331 LINE"
);
},
{
closed = 1;
nodes = (
"267 97 OFFCURVE",
"270 96 OFFCURVE",
"270 96 CURVE SMOOTH",
"283 96 OFFCURVE",
"309 105 OFFCURVE",
"322 117 CURVE",
"357 145 OFFCURVE",
"395 177 OFFCURVE",
"405 304 CURVE",
"543 304 LINE",
"543 100 LINE SMOOTH",
"543 96 OFFCURVE",
"548 94 OFFCURVE",
"550 94 CURVE SMOOTH",
"566 94 OFFCURVE",
"598 106 OFFCURVE",
"598 139 CURVE SMOOTH",
"598 304 LINE",
"803 303 LINE",
"803 303 OFFCURVE",
"781 361 OFFCURVE",
"716 377 CURVE",
"716 377 OFFCURVE",
"690 331 OFFCURVE",
"631 331 CURVE SMOOTH",
"598 331 LINE",
"598 489 LINE",
"803 488 LINE",
"803 488 OFFCURVE",
"781 546 OFFCURVE",
"716 562 CURVE",
"716 562 OFFCURVE",
"690 516 OFFCURVE",
"631 516 CURVE SMOOTH",
"598 516 LINE",
"598 629 LINE",
"600 677 OFFCURVE",
"627 664 OFFCURVE",
"627 691 CURVE",
"543 691 LINE",
"543 516 LINE",
"409 516 LINE",
"410 561 OFFCURVE",
"410 602 OFFCURVE",
"410 624 CURVE SMOOTH",
"410 674 OFFCURVE",
"440 663 OFFCURVE",
"440 691 CURVE",
"359 691 LINE",
"359 638 OFFCURVE",
"358 576 OFFCURVE",
"357 516 CURVE",
"310 517 OFFCURVE",
"262 519 OFFCURVE",
"214 522 CURVE SMOOTH",
"195 523 LINE",
"195 481 LINE",
"214 483 LINE SMOOTH",
"262 488 OFFCURVE",
"309 488 OFFCURVE",
"357 489 CURVE",
"356 447 OFFCURVE",
"356 407 OFFCURVE",
"356 371 CURVE SMOOTH",
"356 357 OFFCURVE",
"355 344 OFFCURVE",
"354 331 CURVE",
"308 332 OFFCURVE",
"261 332 OFFCURVE",
"214 337 CURVE SMOOTH",
"195 339 LINE",
"195 296 LINE",
"214 298 LINE SMOOTH",
"260 303 OFFCURVE",
"306 303 OFFCURVE",
"352 304 CURVE",
"343 216 OFFCURVE",
"317 166 OFFCURVE",
"285 136 CURVE SMOOTH",
"270 122 OFFCURVE",
"257 111 OFFCURVE",
"265 100 CURVE"
);
},
{
closed = 1;
nodes = (
"150 24 LINE",
"150 769 LINE",
"848 769 LINE",
"848 23 LINE"
);
}
);
width = 1000;
}
);
unicode = 56F2;
},
{
glyphname = uni5727;
lastChange = "2019-08-30 17:12:10 +0000";
layers = (
{
layerId = "CA066C67-EDFC-49EB-AE27-EC7C0259E992";
paths = (
{
closed = 1;
nodes = (
"53 -49 OFFCURVE",
"56 -51 OFFCURVE",
"61 -51 CURVE SMOOTH",
"68 -51 OFFCURVE",
"78 -47 OFFCURVE",
"92.754 -30.694 CURVE SMOOTH",
"218 105 OFFCURVE",
"242 351 OFFCURVE",
"242 540 CURVE SMOOTH",
"242 617 OFFCURVE",
"238 684 OFFCURVE",
"235.032 731.341 CURVE",
"951.547 730.797 LINE",
"951.547 730.797 OFFCURVE",
"930.172 796.693 OFFCURVE",
"864.62 812.508 CURVE",
"864.62 812.508 OFFCURVE",
"839.565 759.563 OFFCURVE",
"781.773 758.598 CURVE SMOOTH",
"233.238 758.598 LINE",
"216.592 794.747 OFFCURVE",
"176.033 804.639 OFFCURVE",
"176.033 804.639 CURVE",
"179 765 OFFCURVE",
"186 672 OFFCURVE",
"186 559 CURVE SMOOTH",
"186 378 OFFCURVE",
"167 146 OFFCURVE",
"76.734 10.278 CURVE SMOOTH",
"60 -15 OFFCURVE",
"48 -28 OFFCURVE",
"48 -38 CURVE SMOOTH",
"48 -41 OFFCURVE",
"49 -44 OFFCURVE",
"51.161 -46.121 CURVE SMOOTH"
);
},
{
closed = 1;
nodes = (
"240.606 22.391 LINE SMOOTH",
"347.72 29.431 OFFCURVE",
"454.831 27.889 OFFCURVE",
"561.944 28.569 CURVE SMOOTH",
"951.547 27.687 LINE",
"951.547 27.687 OFFCURVE",
"930.172 93.581 OFFCURVE",
"864.62 109.399 CURVE",
"864.62 109.399 OFFCURVE",
"839.47 56.161 OFFCURVE",
"781.386 55.444 CURVE SMOOTH",
"600.996 55.197 LINE",
"600.996 366.132 LINE",
"861.246 365.313 LINE",
"861.246 365.313 OFFCURVE",
"839.869 431.207 OFFCURVE",
"774.317 447.024 CURVE",
"774.317 447.024 OFFCURVE",
"749.034 393.357 OFFCURVE",
"690.515 393.005 CURVE SMOOTH",
"600.996 392.829 LINE",
"600.996 587.701 LINE SMOOTH",
"601.229 642.656 OFFCURVE",
"630.261 627.388 OFFCURVE",
"630.261 654.785 CURVE",
"546.495 654.785 LINE",
"546.495 392.87 LINE",
"478.332 393.188 OFFCURVE",
"410.171 392.592 OFFCURVE",
"342.008 398.945 CURVE SMOOTH",
"322.543 400.76 LINE",
"322.543 358.203 LINE",
"342.008 360.016 LINE SMOOTH",
"410.171 366.37 OFFCURVE",
"478.332 365.776 OFFCURVE",
"546.495 366.092 CURVE",
"546.495 55.194 LINE",
"444.53 55.66 OFFCURVE",
"342.571 54.619 OFFCURVE",
"240.606 61.32 CURVE SMOOTH",
"221.142 62.601 LINE",
"221.142 21.113 LINE"
);
}
);
width = 1000;
}
);
unicode = 5727;
},
{
glyphname = uni5937;
lastChange = "2019-08-30 17:27:27 +0000";
layers = (
{
layerId = "CA066C67-EDFC-49EB-AE27-EC7C0259E992";
paths = (
{
closed = 1;
nodes = (
"809 -78 OFFCURVE",
"814 -79 OFFCURVE",
"808 -79 CURVE SMOOTH",
"801 -79 OFFCURVE",
"830 -77 OFFCURVE",
"834 -70 CURVE SMOOTH",
"844 -54 OFFCURVE",
"853 -49 OFFCURVE",
"890 -38 CURVE",
"899 -36 OFFCURVE",
"906 -31 OFFCURVE",
"896 -26 CURVE SMOOTH",
"893 -25 OFFCURVE",
"901 -20 OFFCURVE",
"890 -19 CURVE SMOOTH",
"648 2 OFFCURVE",
"548 144 OFFCURVE",
"508 275 CURVE",
"783 275 LINE",
"783 269 LINE",
"778 206 OFFCURVE",
"771 172 OFFCURVE",
"727 172 CURVE SMOOTH",
"718 172 OFFCURVE",
"718 174 OFFCURVE",
"705 179 CURVE SMOOTH",
"674 190 OFFCURVE",
"644 209 OFFCURVE",
"619 209 CURVE SMOOTH",
"616 209 OFFCURVE",
"623 208 OFFCURVE",
"621 206 CURVE",
"611 191 OFFCURVE",
"641 173 OFFCURVE",
"686 150 CURVE SMOOTH",
"743 121 OFFCURVE",
"729 106 OFFCURVE",
"739 93 CURVE SMOOTH",
"742 89 OFFCURVE",
"748 86 OFFCURVE",
"744 86 CURVE SMOOTH",
"730 86 OFFCURVE",
"788 97 OFFCURVE",
"805 122 CURVE SMOOTH",
"821 145 OFFCURVE",
"835 182 OFFCURVE",
"840 231 CURVE SMOOTH",
"844 274 OFFCURVE",
"856 274 OFFCURVE",
"846 281 CURVE SMOOTH",
"844 282 OFFCURVE",
"854 287 OFFCURVE",
"850 294 CURVE SMOOTH",
"847 299 OFFCURVE",
"840 327 OFFCURVE",
"795 343 CURVE",
"795 343 OFFCURVE",
"788 316 OFFCURVE",
"754 302 CURVE",
"511 302 LINE",
"517 331 OFFCURVE",
"520 363 OFFCURVE",
"521 397 CURVE",
"696 397 LINE",
"696 366 LINE",
"696 362 OFFCURVE",
"701 360 OFFCURVE",
"698 360 CURVE SMOOTH",
"682 360 OFFCURVE",
"751 372 OFFCURVE",
"751 406 CURVE",
"751 472 LINE",
"755 519 OFFCURVE",
"783 517 OFFCURVE",
"773 532 CURVE SMOOTH",
"772 534 OFFCURVE",
"782 537 OFFCURVE",
"780 541 CURVE",
"777 546 OFFCURVE",
"756 577 OFFCURVE",
"711 593 CURVE",
"711 593 OFFCURVE",
"705 572 OFFCURVE",
"681 557 CURVE",
"523 557 LINE",
"523 647 LINE",
"931 646 LINE",
"931 646 OFFCURVE",
"909 712 OFFCURVE",
"844 728 CURVE",
"844 728 OFFCURVE",
"819 674 OFFCURVE",
"761 674 CURVE SMOOTH",
"523 673 LINE",
"523 776 LINE SMOOTH",
"523 828 OFFCURVE",
"552 814 OFFCURVE",
"552 841 CURVE",
"468 841 LINE",
"468 673 LINE",
"351 674 OFFCURVE",
"233 667 OFFCURVE",
"116 679 CURVE SMOOTH",
"96 681 LINE",
"96 639 LINE",
"116 641 LINE SMOOTH",
"233 653 OFFCURVE",
"351 646 OFFCURVE",
"468 647 CURVE",
"468 557 LINE",
"391 557 OFFCURVE",
"314 555 OFFCURVE",
"236 563 CURVE SMOOTH",
"217 565 LINE",
"217 522 LINE",
"236 524 LINE SMOOTH",
"314 532 OFFCURVE",
"391 530 OFFCURVE",
"468 530 CURVE",
"468 447 LINE",
"467 425 LINE",
"333 425 LINE",
"332 425 OFFCURVE",
"332 426 OFFCURVE",
"330 426 CURVE",
"247 447 LINE",
"236 358 OFFCURVE",
"214 284 OFFCURVE",
"184 221 CURVE",
"184 221 OFFCURVE",
"193 215 OFFCURVE",
"211 215 CURVE SMOOTH",
"230 215 OFFCURVE",
"250 220 OFFCURVE",
"256 236 CURVE SMOOTH",
"261 250 OFFCURVE",
"264 263 OFFCURVE",
"268 275 CURVE",
"450 275 LINE",
"403 74 OFFCURVE",
"273 2 OFFCURVE",
"145 -37 CURVE SMOOTH",
"112 -47 OFFCURVE",
"89 -45 OFFCURVE",
"89 -62 CURVE",
"90 -73 OFFCURVE",
"96 -76 OFFCURVE",
"97 -76 CURVE SMOOTH",
"102 -76 OFFCURVE",
"118 -75 OFFCURVE",
"124 -74 CURVE SMOOTH",
"237 -59 OFFCURVE",
"413 0 OFFCURVE",
"487 210 CURVE",
"517 97 OFFCURVE",
"599 -21 OFFCURVE",
"802 -77 CURVE"
);
},
{
closed = 1;
nodes = (
"283 328 OFFCURVE",
"290 352 OFFCURVE",
"299 379 CURVE SMOOTH",
"302 388 OFFCURVE",
"306 394 OFFCURVE",
"308 397 CURVE",
"466 397 LINE",
"464 363 OFFCURVE",
"460 331 OFFCURVE",
"455 302 CURVE",
"276 302 LINE"
);
},
{
closed = 1;
nodes = (
"522 432 OFFCURVE",
"523 439 OFFCURVE",
"513 446 CURVE",
"523 447 LINE",
"523 530 LINE",
"696 530 LINE",
"696 425 LINE",
"522 425 LINE"
);
}
);
width = 1000;
}
);
unicode = 5937;
},
{
glyphname = uni59D0;
lastChange = "2019-08-30 17:14:14 +0000";
layers = (
{
layerId = "CA066C67-EDFC-49EB-AE27-EC7C0259E992";
paths = (
{
closed = 1;
nodes = (
"380.186 0.748 LINE SMOOTH",
"463.993 7.788 OFFCURVE",
"547.8 6.246 OFFCURVE",
"631.607 6.926 CURVE SMOOTH",
"951.293 6.044 LINE",
"951.293 6.044 OFFCURVE",
"932.475 71.939 OFFCURVE",
"874.759 87.756 CURVE",
"874.759 87.756 OFFCURVE",
"852.61 34.49 OFFCURVE",
"801.442 33.796 CURVE SMOOTH",
"793.226 33.782 LINE",
"793.226 655.886 LINE",
"797 702 OFFCURVE",
"826 694 OFFCURVE",
"826 706 CURVE SMOOTH",
"826 708 OFFCURVE",
"825 711 OFFCURVE",
"822.674 714.745 CURVE",
"819.856 719.836 OFFCURVE",
"799.037 749.442 OFFCURVE",
"753.292 765.301 CURVE",
"753.292 765.301 OFFCURVE",
"747.898 745.134 OFFCURVE",
"723.777 730.825 CURVE",
"530.502 730.825 LINE",
"512.354 757.32 OFFCURVE",
"482.932 765.301 OFFCURVE",
"482.932 765.301 CURVE",
"482.932 34.801 LINE",
"448.684 35.55 OFFCURVE",
"414.434 36.8 OFFCURVE",
"380.186 39.677 CURVE SMOOTH",
"360.721 41.312 LINE",
"360.721 -0.886 LINE"
);
},
{
closed = 1;
nodes = (
"76 -34 OFFCURVE",
"82 -37 OFFCURVE",
"90 -37 CURVE SMOOTH",
"118 -37 OFFCURVE",
"179 -6 OFFCURVE",
"244.954 60.885 CURVE SMOOTH",
"285.271 101.781 OFFCURVE",
"316.888 149.119 OFFCURVE",
"341.834 201.154 CURVE",
"364.062 176.906 OFFCURVE",
"386.171 144.526 OFFCURVE",
"407.529 100.289 CURVE",
"412 92 OFFCURVE",
"417 88 OFFCURVE",
"423 88 CURVE SMOOTH",
"436 88 OFFCURVE",
"449 106 OFFCURVE",
"449 131 CURVE SMOOTH",
"449 144 OFFCURVE",
"446 159 OFFCURVE",
"437.806 174.117 CURVE SMOOTH",
"420.922 205.469 OFFCURVE",
"394.266 231.298 OFFCURVE",
"363.147 251.644 CURVE",
"388.659 319.567 OFFCURVE",
"404.245 394.305 OFFCURVE",
"412.074 473.79 CURVE SMOOTH",
"416 520 OFFCURVE",
"442 516 OFFCURVE",
"442 529 CURVE SMOOTH",
"442 531 OFFCURVE",
"441 534 OFFCURVE",
"439.04 538.23 CURVE",
"436.219 543.317 OFFCURVE",
"415.398 572.922 OFFCURVE",
"369.655 588.782 CURVE",
"369.655 588.782 OFFCURVE",
"364.521 569.686 OFFCURVE",
"342.039 555.468 CURVE",
"276.627 555.297 LINE",
"283.935 611.35 OFFCURVE",
"290.747 675.904 OFFCURVE",
"293.696 739.099 CURVE SMOOTH",
"295.305 759.544 OFFCURVE",
"304.764 767.651 OFFCURVE",
"316.214 770.229 CURVE",
"326 772 OFFCURVE",
"331 777 OFFCURVE",
"331 781 CURVE SMOOTH",
"331 784 OFFCURVE",
"328 787 OFFCURVE",
"321.833 787.845 CURVE SMOOTH",
"302.328 790.991 OFFCURVE",
"232.979 798.067 OFFCURVE",
"232.979 798.067 CURVE SMOOTH",
"232.59 798.067 OFFCURVE",
"231.038 684.816 OFFCURVE",
"216.361 555.287 CURVE",
"166.966 555.592 OFFCURVE",
"117.567 555.033 OFFCURVE",
"68.172 561.356 CURVE SMOOTH",
"48.707 563.848 LINE",
"48.707 519.937 LINE",
"68.172 522.427 LINE SMOOTH",
"116.495 528.614 OFFCURVE",
"164.823 528.218 OFFCURVE",
"213.147 528.479 CURVE",
"207.796 488.842 LINE SMOOTH",
"196.488 412.085 OFFCURVE",
"176.245 328.197 OFFCURVE",
"149.27 246.258 CURVE SMOOTH",
"139.958 217.954 LINE",
"145.585 214.837 LINE SMOOTH",
"150.014 212.38 OFFCURVE",
"158.776 209.515 OFFCURVE",
"168.927 209.515 CURVE SMOOTH",
"188.087 209.515 OFFCURVE",
"203.312 219.356 OFFCURVE",
"211.809 237.205 CURVE SMOOTH",
"214.905 243.718 OFFCURVE",
"218.78 255.092 OFFCURVE",
"223.131 270.329 CURVE",
"247.311 264.864 OFFCURVE",
"272.856 256 OFFCURVE",
"298.802 238.626 CURVE",
"277.573 182.97 OFFCURVE",
"250.001 130.572 OFFCURVE",
"213.869 87.756 CURVE SMOOTH",
"133.132 -7.919 OFFCURVE",
"64.574 -1.435 OFFCURVE",
"74.485 -29.204 CURVE"
);
},
{
closed = 1;
nodes = (
"285.691 289.328 OFFCURVE",
"258.042 297.159 OFFCURVE",
"231.242 301.381 CURVE",
"242.331 346.54 OFFCURVE",
"255.188 410.3 OFFCURVE",
"266.781 485.722 CURVE SMOOTH",
"273.018 528.498 LINE",
"354.655 528.282 LINE",
"352.301 452.72 OFFCURVE",
"339.558 363.367 OFFCURVE",
"312.431 278.07 CURVE"
);
},
{
closed = 1;
nodes = (
"537.433 33.984 LINE",
"537.433 238.136 LINE",
"738.725 237.675 LINE",
"738.725 33.687 LINE"
);
},
{
closed = 1;
nodes = (
"537.433 265.375 LINE",
"537.433 479.625 LINE",
"738.725 479.25 LINE",
"738.725 264.914 LINE"
);
},
{
closed = 1;
nodes = (
"537.433 506.864 LINE",
"537.433 703.568 LINE",
"738.725 703.568 LINE",
"738.725 506.489 LINE"
);
}
);
width = 1000;
}
);
unicode = 59D0;
},
{
glyphname = uni59D4;
lastChange = "2019-08-30 17:27:56 +0000";
layers = (
{
layerId = "CA066C67-EDFC-49EB-AE27-EC7C0259E992";
paths = (
{
closed = 1;
nodes = (
"189 347 OFFCURVE",
"366 404 OFFCURVE",
"468 526 CURVE",
"468 379 LINE SMOOTH",
"468 375 OFFCURVE",
"473 373 OFFCURVE",
"477 373 CURVE SMOOTH",
"493 373 OFFCURVE",
"523 385 OFFCURVE",
"523 416 CURVE SMOOTH",
"523 543 LINE",
"586 441 OFFCURVE",
"713 370 OFFCURVE",
"824 348 CURVE SMOOTH",
"829 347 OFFCURVE",
"833 347 OFFCURVE",
"834 347 CURVE SMOOTH",
"842 347 OFFCURVE",
"851 349 OFFCURVE",
"856 356 CURVE",
"865 370 OFFCURVE",
"872 375 OFFCURVE",
"909 387 CURVE",
"917 390 OFFCURVE",
"924 394 OFFCURVE",
"921 398 CURVE SMOOTH",
"919 401 OFFCURVE",
"919 403 OFFCURVE",
"908 403 CURVE SMOOTH",
"764 405 OFFCURVE",
"599 478 OFFCURVE",
"523 601 CURVE",
"753 601 LINE",
"753 600 LINE",
"901 600 LINE",
"901 600 OFFCURVE",
"883 666 OFFCURVE",
"827 682 CURVE",
"827 682 OFFCURVE",
"806 628 OFFCURVE",
"756 628 CURVE SMOOTH",
"523 627 LINE",
"523 732 LINE",
"596 741 OFFCURVE",
"672 759 OFFCURVE",
"743 791 CURVE",
"753 795 OFFCURVE",
"758 791 OFFCURVE",
"765 787 CURVE",
"768 785 OFFCURVE",
"771 784 OFFCURVE",
"770 784 CURVE SMOOTH",
"763 784 OFFCURVE",
"782 789 OFFCURVE",
"782 795 CURVE SMOOTH",
"782 797 OFFCURVE",
"784 799 OFFCURVE",
"783 801 CURVE",
"776 812 OFFCURVE",
"731 858 OFFCURVE",
"731 858 CURVE",
"631 781 OFFCURVE",
"455 758 OFFCURVE",
"296 758 CURVE SMOOTH",
"267 758 OFFCURVE",
"242 759 OFFCURVE",
"215 760 CURVE",
"203 761 OFFCURVE",
"197 754 OFFCURVE",
"194 747 CURVE SMOOTH",
"192 741 OFFCURVE",
"202 734 OFFCURVE",
"211 733 CURVE",
"237 729 OFFCURVE",
"295 722 OFFCURVE",
"367 722 CURVE SMOOTH",
"397 722 OFFCURVE",
"433 723 OFFCURVE",
"468 726 CURVE",
"468 627 LINE",
"356 628 OFFCURVE",
"243 628 OFFCURVE",
"131 634 CURVE SMOOTH",
"111 635 LINE",
"111 594 LINE",
"131 595 LINE SMOOTH",
"239 600 OFFCURVE",
"348 600 OFFCURVE",
"457 601 CURVE",
"364 463 OFFCURVE",
"228 395 OFFCURVE",
"101 363 CURVE SMOOTH",
"89 360 OFFCURVE",
"83 354 OFFCURVE",
"80 348 CURVE SMOOTH",
"77 341 OFFCURVE",
"87 335 OFFCURVE",
"99 335 CURVE SMOOTH",
"102 335 OFFCURVE",
"107 336 OFFCURVE",
"110 336 CURVE"
);
},
{
closed = 1;
nodes = (
"749 -74 OFFCURVE",
"754 -76 OFFCURVE",
"756 -76 CURVE SMOOTH",
"768 -76 OFFCURVE",
"779 -64 OFFCURVE",
"779 -46 CURVE SMOOTH",
"779 -35 OFFCURVE",
"777 -22 OFFCURVE",
"766 -8 CURVE",
"731 32 OFFCURVE",
"661 73 OFFCURVE",
"578 104 CURVE",
"609 144 OFFCURVE",
"632 190 OFFCURVE",
"643 241 CURVE",
"930 240 LINE",
"930 240 OFFCURVE",
"909 306 OFFCURVE",
"844 322 CURVE",
"844 322 OFFCURVE",
"818 268 OFFCURVE",
"760 268 CURVE SMOOTH",
"458 268 LINE",
"462 283 OFFCURVE",
"467 300 OFFCURVE",
"471 317 CURVE",
"475 331 OFFCURVE",
"484 335 OFFCURVE",
"496 335 CURVE",
"504 336 OFFCURVE",
"509 341 OFFCURVE",
"506 346 CURVE SMOOTH",
"504 350 OFFCURVE",
"505 355 OFFCURVE",
"498 355 CURVE",
"478 357 OFFCURVE",
"415 360 OFFCURVE",
"415 360 CURVE SMOOTH",
"415 360 OFFCURVE",
"410 317 OFFCURVE",
"397 268 CURVE",
"296 268 OFFCURVE",
"196 269 OFFCURVE",
"95 274 CURVE SMOOTH",
"76 275 LINE",
"76 234 LINE",
"95 235 LINE SMOOTH",
"193 240 OFFCURVE",
"291 241 OFFCURVE",
"389 241 CURVE",
"386 230 OFFCURVE",
"382 219 OFFCURVE",
"377 209 CURVE",
"342 124 OFFCURVE",
"308 91 OFFCURVE",
"308 91 CURVE",
"314 90 LINE",
"318 88 OFFCURVE",
"327 87 OFFCURVE",
"337 87 CURVE SMOOTH",
"356 87 OFFCURVE",
"372 92 OFFCURVE",
"381 100 CURVE",
"384 103 OFFCURVE",
"390 110 OFFCURVE",
"396 121 CURVE",
"432 114 OFFCURVE",
"468 106 OFFCURVE",
"503 94 CURVE",
"468 54 OFFCURVE",
"425 22 OFFCURVE",
"378 3 CURVE SMOOTH",
"250 -49 OFFCURVE",
"180 -24 OFFCURVE",
"180 -53 CURVE SMOOTH",
"180 -62 OFFCURVE",
"194 -67 OFFCURVE",
"214 -67 CURVE SMOOTH",
"262 -67 OFFCURVE",
"352 -47 OFFCURVE",
"414 -21 CURVE SMOOTH",
"465 0 OFFCURVE",
"513 33 OFFCURVE",
"552 74 CURVE",
"616 44 OFFCURVE",
"680 0 OFFCURVE",
"744 -69 CURVE"
);
},
{
closed = 1;
nodes = (
"488 133 OFFCURVE",
"449 141 OFFCURVE",
"411 147 CURVE",
"422 170 OFFCURVE",
"436 201 OFFCURVE",
"449 241 CURVE",
"576 241 LINE",
"567 197 OFFCURVE",
"550 157 OFFCURVE",
"525 122 CURVE"
);
}
);
width = 1000;
}
);
unicode = 59D4;
},
{
glyphname = uni59F6;
lastChange = "2019-08-30 16:48:45 +0000";
layers = (
{
layerId = "CA066C67-EDFC-49EB-AE27-EC7C0259E992";
paths = (
{
closed = 1;
nodes = (
"59 -57 OFFCURVE",
"65 -62 OFFCURVE",
"76 -62 CURVE SMOOTH",
"104 -62 OFFCURVE",
"164 -31 OFFCURVE",
"230 35 CURVE SMOOTH",
"271 76 OFFCURVE",
"302 124 OFFCURVE",
"327 176 CURVE",
"349 151 OFFCURVE",
"371 119 OFFCURVE",
"393 75 CURVE SMOOTH",
"397 67 OFFCURVE",
"403 63 OFFCURVE",
"409 63 CURVE SMOOTH",
"421 63 OFFCURVE",
"435 81 OFFCURVE",
"435 106 CURVE SMOOTH",
"435 148 OFFCURVE",
"393 197 OFFCURVE",
"349 226 CURVE",
"374 294 OFFCURVE",
"390 369 OFFCURVE",
"398 448 CURVE SMOOTH",
"403 495 OFFCURVE",
"428 491 OFFCURVE",
"428 504 CURVE SMOOTH",
"428 506 OFFCURVE",
"427 509 OFFCURVE",
"424 513 CURVE SMOOTH",
"421 517 OFFCURVE",
"401 547 OFFCURVE",
"355 563 CURVE",
"355 563 OFFCURVE",
"350 544 OFFCURVE",
"327 530 CURVE",
"262 530 LINE",
"269 586 OFFCURVE",
"276 650 OFFCURVE",
"279 714 CURVE SMOOTH",
"280 734 OFFCURVE",
"290 743 OFFCURVE",
"302 745 CURVE SMOOTH",
"312 747 OFFCURVE",
"317 752 OFFCURVE",
"317 756 CURVE SMOOTH",
"317 759 OFFCURVE",
"314 762 OFFCURVE",
"307 762 CURVE SMOOTH",
"288 762 OFFCURVE",
"218 773 OFFCURVE",
"218 773 CURVE SMOOTH",
"218 773 OFFCURVE",
"216 659 OFFCURVE",
"202 530 CURVE",
"152 530 OFFCURVE",
"103 531 OFFCURVE",
"54 536 CURVE SMOOTH",
"34 538 LINE",
"34 494 LINE",
"54 497 LINE SMOOTH",
"102 504 OFFCURVE",
"150 503 OFFCURVE",
"199 503 CURVE",
"193 463 LINE SMOOTH",
"182 387 OFFCURVE",
"163 303 OFFCURVE",
"135 221 CURVE SMOOTH",
"125 192 LINE",
"133 188 OFFCURVE",
"141 184 OFFCURVE",
"154 184 CURVE SMOOTH",
"191 184 OFFCURVE",
"199 215 OFFCURVE",
"209 245 CURVE",
"233 239 OFFCURVE",
"258 231 OFFCURVE",
"284 213 CURVE",
"263 157 OFFCURVE",
"235 105 OFFCURVE",
"199 62 CURVE SMOOTH",
"124 -27 OFFCURVE",
"59 -27 OFFCURVE",
"59 -49 CURVE SMOOTH"
);
},
{
closed = 1;
nodes = (
"271 264 OFFCURVE",
"243 272 OFFCURVE",
"217 276 CURVE",
"228 321 OFFCURVE",
"242 385 OFFCURVE",
"252 460 CURVE SMOOTH",
"258 503 LINE",
"340 503 LINE",
"338 427 OFFCURVE",
"325 338 OFFCURVE",
"298 253 CURVE"
);
},
{
closed = 1;
nodes = (
"480 -37 OFFCURVE",
"485 -39 OFFCURVE",
"492 -39 CURVE SMOOTH",
"509 -39 OFFCURVE",
"538 -27 OFFCURVE",
"538 5 CURVE SMOOTH",
"538 37 LINE",
"790 37 LINE",
"790 -33 LINE SMOOTH",
"790 -37 OFFCURVE",
"796 -39 OFFCURVE",
"803 -39 CURVE SMOOTH",
"820 -39 OFFCURVE",
"848 -27 OFFCURVE",
"848 5 CURVE SMOOTH",
"848 199 LINE",
"852 246 OFFCURVE",
"883 237 OFFCURVE",
"883 249 CURVE SMOOTH",
"883 255 OFFCURVE",
"861 290 OFFCURVE",
"806 308 CURVE",
"806 308 OFFCURVE",
"800 288 OFFCURVE",
"774 274 CURVE",
"530 274 LINE",
"511 300 OFFCURVE",
"480 308 OFFCURVE",
"480 308 CURVE",
"480 -33 LINE SMOOTH"
);
},
{
closed = 1;
nodes = (
"538 65 LINE",
"538 247 LINE",
"790 247 LINE",
"790 64 LINE"
);
},
{
closed = 1;
nodes = (
"526 382 LINE SMOOTH",
"570 391 OFFCURVE",
"611 388 OFFCURVE",
"856 387 CURVE",
"856 387 OFFCURVE",
"834 453 OFFCURVE",
"764 469 CURVE",
"763 468 OFFCURVE",
"746 414 OFFCURVE",
"655 414 CURVE SMOOTH",
"612 414 OFFCURVE",
"569 411 OFFCURVE",
"526 420 CURVE SMOOTH",
"507 424 LINE",
"507 378 LINE"
);
},
{
closed = 1;
nodes = (
"511 447 OFFCURVE",
"590 530 OFFCURVE",
"674 715 CURVE",
"712 614 OFFCURVE",
"793 485 OFFCURVE",
"892 411 CURVE SMOOTH",
"896 408 OFFCURVE",
"899 407 OFFCURVE",
"901 407 CURVE SMOOTH",
"905 407 OFFCURVE",
"907 411 OFFCURVE",
"909 414 CURVE SMOOTH",
"921 432 OFFCURVE",
"933 432 OFFCURVE",
"956 436 CURVE SMOOTH",
"962 437 OFFCURVE",
"966 439 OFFCURVE",
"966 442 CURVE SMOOTH",
"966 444 OFFCURVE",
"964 446 OFFCURVE",
"959 448 CURVE SMOOTH",
"812 507 OFFCURVE",
"729 666 OFFCURVE",
"689 750 CURVE",
"696 763 OFFCURVE",
"707 772 OFFCURVE",
"724 770 CURVE SMOOTH",
"732 769 OFFCURVE",
"737 772 OFFCURVE",
"737 777 CURVE SMOOTH",
"737 780 OFFCURVE",
"735 783 OFFCURVE",
"729 785 CURVE SMOOTH",
"643 820 LINE",
"607 660 OFFCURVE",
"523 497 OFFCURVE",
"414 415 CURVE SMOOTH",
"406 409 OFFCURVE",
"403 403 OFFCURVE",
"403 398 CURVE SMOOTH",
"403 391 OFFCURVE",
"409 387 OFFCURVE",
"416 387 CURVE SMOOTH",
"419 387 OFFCURVE",
"422 387 OFFCURVE",
"425 389 CURVE SMOOTH"
);
}
);
width = 1000;
}
);
unicode = 59F6;
},
{
glyphname = uni5A01;
lastChange = "2019-08-30 17:28:51 +0000";
layers = (
{
layerId = "CA066C67-EDFC-49EB-AE27-EC7C0259E992";
paths = (
{
closed = 1;
nodes = (
"41 -62 OFFCURVE",
"45 -64 OFFCURVE",
"50 -64 CURVE SMOOTH",
"57 -64 OFFCURVE",
"67 -60 OFFCURVE",
"81 -45 CURVE SMOOTH",
"189 63 OFFCURVE",
"204 271 OFFCURVE",
"204 467 CURVE SMOOTH",
"204 526 OFFCURVE",
"202 584 OFFCURVE",
"202 637 CURVE",
"581 637 LINE",
"586 514 OFFCURVE",
"601 394 OFFCURVE",
"644 251 CURVE SMOOTH",
"657 207 OFFCURVE",
"672 169 OFFCURVE",
"688 136 CURVE",
"654 70 OFFCURVE",
"615 13 OFFCURVE",
"571 -29 CURVE SMOOTH",
"562 -38 OFFCURVE",
"559 -46 OFFCURVE",
"559 -53 CURVE SMOOTH",
"559 -60 OFFCURVE",
"563 -65 OFFCURVE",
"571 -65 CURVE SMOOTH",
"578 -65 OFFCURVE",
"588 -61 OFFCURVE",
"600 -51 CURVE SMOOTH",
"642 -15 OFFCURVE",
"681 31 OFFCURVE",
"716 85 CURVE",
"776 -14 OFFCURVE",
"839 -50 OFFCURVE",
"854 -57 CURVE",
"865 -61 OFFCURVE",
"878 -64 OFFCURVE",
"889 -64 CURVE SMOOTH",
"914 -64 OFFCURVE",
"938 -53 OFFCURVE",
"945 -31 CURVE SMOOTH",
"947 -25 OFFCURVE",
"948 -20 OFFCURVE",
"948 -17 CURVE SMOOTH",
"948 -6 OFFCURVE",
"936 -11 OFFCURVE",
"929 21 CURVE",
"927 34 OFFCURVE",
"925 56 OFFCURVE",
"925 87 CURVE SMOOTH",
"925 107 OFFCURVE",
"926 132 OFFCURVE",
"928 160 CURVE SMOOTH",
"930 185 OFFCURVE",
"921 197 OFFCURVE",
"911 197 CURVE SMOOTH",
"901 197 OFFCURVE",
"890 185 OFFCURVE",
"889 161 CURVE SMOOTH",
"882 53 OFFCURVE",
"877 28 OFFCURVE",
"863 28 CURVE SMOOTH",
"860 28 OFFCURVE",
"858 29 OFFCURVE",
"855 30 CURVE",
"844 35 OFFCURVE",
"797 61 OFFCURVE",
"750 143 CURVE",
"791 218 OFFCURVE",
"826 307 OFFCURVE",
"854 408 CURVE SMOOTH",
"864 445 OFFCURVE",
"878 456 OFFCURVE",
"893 455 CURVE SMOOTH",
"908 454 OFFCURVE",
"915 461 OFFCURVE",
"915 469 CURVE SMOOTH",
"915 475 OFFCURVE",
"911 481 OFFCURVE",
"904 485 CURVE SMOOTH",
"881 498 OFFCURVE",
"811 521 OFFCURVE",
"811 521 CURVE",
"789 404 OFFCURVE",
"758 297 OFFCURVE",
"719 204 CURVE",
"711 225 OFFCURVE",
"702 247 OFFCURVE",
"694 272 CURVE SMOOTH",
"654 401 OFFCURVE",
"640 528 OFFCURVE",
"636 637 CURVE",
"963 637 LINE",
"963 637 OFFCURVE",
"942 703 OFFCURVE",
"876 719 CURVE",
"876 719 OFFCURVE",
"851 665 OFFCURVE",
"793 665 CURVE SMOOTH",
"634 665 LINE",
"633 705 OFFCURVE",
"633 744 OFFCURVE",
"633 778 CURVE SMOOTH",
"633 831 OFFCURVE",
"662 818 OFFCURVE",
"662 846 CURVE",
"579 846 LINE",
"579 782 OFFCURVE",
"579 723 OFFCURVE",
"581 665 CURVE",
"202 665 LINE",
"202 669 LINE",
"186 701 OFFCURVE",
"145 710 OFFCURVE",
"145 710 CURVE",
"145 639 OFFCURVE",
"146 567 OFFCURVE",
"146 497 CURVE SMOOTH",
"146 296 OFFCURVE",
"137 109 OFFCURVE",
"65 -9 CURVE SMOOTH",
"47 -39 OFFCURVE",
"31 -48 OFFCURVE",
"39 -59 CURVE"
);
},
{
closed = 1;
nodes = (
"283 -33 OFFCURVE",
"374 3 OFFCURVE",
"439 96 CURVE",
"463 74 OFFCURVE",
"487 45 OFFCURVE",
"509 6 CURVE SMOOTH",
"512 1 OFFCURVE",
"516 -1 OFFCURVE",
"520 -1 CURVE SMOOTH",
"532 -1 OFFCURVE",
"547 17 OFFCURVE",
"547 41 CURVE SMOOTH",
"547 49 OFFCURVE",
"545 58 OFFCURVE",
"541 67 CURVE SMOOTH",
"527 99 OFFCURVE",
"499 123 OFFCURVE",
"466 142 CURVE",
"485 178 OFFCURVE",
"498 221 OFFCURVE",
"506 272 CURVE",
"604 271 LINE",
"604 271 OFFCURVE",
"582 337 OFFCURVE",
"517 353 CURVE",
"517 353 OFFCURVE",
"491 299 OFFCURVE",
"432 299 CURVE SMOOTH",
"389 299 LINE",
"395 324 OFFCURVE",
"400 350 OFFCURVE",
"404 377 CURVE SMOOTH",
"407 401 OFFCURVE",
"417 398 OFFCURVE",
"428 400 CURVE SMOOTH",
"439 402 OFFCURVE",
"445 407 OFFCURVE",
"445 411 CURVE SMOOTH",
"445 415 OFFCURVE",
"442 418 OFFCURVE",
"435 420 CURVE",
"351 439 LINE",
"347 385 OFFCURVE",
"339 339 OFFCURVE",
"329 299 CURVE",
"297 299 OFFCURVE",
"264 300 OFFCURVE",
"232 305 CURVE SMOOTH",
"212 308 LINE",
"212 263 LINE",
"232 266 LINE SMOOTH",
"262 270 OFFCURVE",
"292 271 OFFCURVE",
"322 272 CURVE",
"305 210 OFFCURVE",
"285 164 OFFCURVE",
"264 133 CURVE",
"264 133 OFFCURVE",
"273 128 OFFCURVE",
"292 128 CURVE SMOOTH",
"311 128 OFFCURVE",
"329 133 OFFCURVE",
"336 147 CURVE",
"337 150 OFFCURVE",
"339 153 OFFCURVE",
"340 156 CURVE",
"360 148 OFFCURVE",
"380 139 OFFCURVE",
"399 126 CURVE",
"356 52 OFFCURVE",
"289 17 OFFCURVE",
"232 -11 CURVE SMOOTH",
"222 -16 OFFCURVE",
"217 -24 OFFCURVE",
"217 -31 CURVE SMOOTH",
"217 -38 OFFCURVE",
"222 -43 OFFCURVE",
"234 -43 CURVE SMOOTH",
"237 -43 OFFCURVE",
"241 -43 OFFCURVE",
"245 -42 CURVE SMOOTH"
);
},
{
closed = 1;
nodes = (
"396 173 OFFCURVE",
"374 179 OFFCURVE",
"352 184 CURVE",
"363 210 OFFCURVE",
"373 240 OFFCURVE",
"382 272 CURVE",
"442 272 LINE",
"438 230 OFFCURVE",
"430 195 OFFCURVE",
"418 165 CURVE"
);
},
{
closed = 1;
nodes = (
"261 467 LINE SMOOTH",
"300 474 OFFCURVE",
"339 472 OFFCURVE",
"379 473 CURVE SMOOTH",
"565 472 LINE",
"565 472 OFFCURVE",
"544 538 OFFCURVE",
"479 554 CURVE",
"479 554 OFFCURVE",
"453 499 OFFCURVE",
"394 499 CURVE SMOOTH",
"379 499 LINE SMOOTH",
"339 500 OFFCURVE",
"300 498 OFFCURVE",
"261 505 CURVE SMOOTH",
"241 509 LINE",
"241 463 LINE"
);
},
{
closed = 1;
nodes = (
"773 693 OFFCURVE",
"781 689 OFFCURVE",
"789 689 CURVE SMOOTH",
"806 689 OFFCURVE",
"824 704 OFFCURVE",
"824 727 CURVE SMOOTH",
"824 736 OFFCURVE",
"821 747 OFFCURVE",
"814 758 CURVE SMOOTH",
"787 799 OFFCURVE",
"739 821 OFFCURVE",
"698 826 CURVE SMOOTH",
"684 828 OFFCURVE",
"677 823 OFFCURVE",
"677 817 CURVE SMOOTH",
"677 813 OFFCURVE",
"680 807 OFFCURVE",
"687 803 CURVE",
"725 779 OFFCURVE",
"744 751 OFFCURVE",
"769 702 CURVE"
);
}
);
width = 1000;
}
);
unicode = 5A01;
},
{
glyphname = uni5A03;
lastChange = "2019-08-30 16:23:09 +0000";
layers = (
{
layerId = "CA066C67-EDFC-49EB-AE27-EC7C0259E992";
paths = (
{
closed = 1;
nodes = (
"61 -37 OFFCURVE",
"67 -42 OFFCURVE",
"78 -42 CURVE SMOOTH",
"106 -42 OFFCURVE",
"168 -12 OFFCURVE",
"232 56 CURVE SMOOTH",
"272 98 OFFCURVE",
"304 144 OFFCURVE",
"329 196 CURVE",
"351 172 OFFCURVE",
"373 139 OFFCURVE",
"395 95 CURVE SMOOTH",
"399 87 OFFCURVE",
"405 83 OFFCURVE",
"411 83 CURVE SMOOTH",
"423 83 OFFCURVE",
"437 101 OFFCURVE",
"437 126 CURVE SMOOTH",
"437 167 OFFCURVE",
"398 216 OFFCURVE",
"350 246 CURVE",
"376 314 OFFCURVE",
"390 389 OFFCURVE",
"399 469 CURVE SMOOTH",
"404 515 OFFCURVE",
"430 511 OFFCURVE",
"430 524 CURVE SMOOTH",
"430 527 OFFCURVE",
"413 564 OFFCURVE",
"357 584 CURVE",
"357 584 OFFCURVE",
"352 564 OFFCURVE",
"329 550 CURVE",
"264 550 LINE",
"271 606 OFFCURVE",
"278 671 OFFCURVE",
"281 734 CURVE SMOOTH",
"282 754 OFFCURVE",
"292 762 OFFCURVE",
"303 765 CURVE SMOOTH",
"313 768 OFFCURVE",
"319 772 OFFCURVE",
"319 776 CURVE SMOOTH",
"319 779 OFFCURVE",
"316 782 OFFCURVE",
"309 783 CURVE SMOOTH",
"290 786 OFFCURVE",
"220 793 OFFCURVE",
"220 793 CURVE SMOOTH",
"220 793 OFFCURVE",
"218 680 OFFCURVE",
"204 550 CURVE",
"154 550 OFFCURVE",
"105 548 OFFCURVE",
"55 556 CURVE SMOOTH",
"36 559 LINE",
"36 515 LINE",
"55 517 LINE SMOOTH",
"104 522 OFFCURVE",
"152 523 OFFCURVE",
"200 523 CURVE",
"195 484 LINE SMOOTH",
"185 407 OFFCURVE",
"166 322 OFFCURVE",
"137 241 CURVE SMOOTH",
"127 213 LINE",
"135 209 OFFCURVE",
"144 204 OFFCURVE",
"156 204 CURVE SMOOTH",
"175 204 OFFCURVE",
"190 214 OFFCURVE",
"199 232 CURVE SMOOTH",
"202 238 OFFCURVE",
"206 250 OFFCURVE",
"210 265 CURVE",
"235 260 OFFCURVE",
"260 251 OFFCURVE",
"286 233 CURVE",
"265 178 OFFCURVE",
"237 125 OFFCURVE",
"201 83 CURVE SMOOTH",
"125 -6 OFFCURVE",
"61 -7 OFFCURVE",
"61 -29 CURVE SMOOTH"
);
},
{
closed = 1;
nodes = (
"273 284 OFFCURVE",
"245 292 OFFCURVE",
"218 296 CURVE",
"230 341 OFFCURVE",
"244 405 OFFCURVE",
"254 480 CURVE SMOOTH",
"260 523 LINE",
"342 523 LINE",
"340 447 OFFCURVE",
"327 358 OFFCURVE",
"300 273 CURVE"
);
},
{
closed = 1;
nodes = (
"406 -2 LINE SMOOTH",
"485 6 OFFCURVE",
"564 4 OFFCURVE",
"643 4 CURVE SMOOTH",
"964 3 LINE",
"964 3 OFFCURVE",
"943 69 OFFCURVE",
"877 85 CURVE",
"877 85 OFFCURVE",
"852 31 OFFCURVE",
"794 31 CURVE SMOOTH",
"674 31 LINE",
"673 200 LINE",
"867 200 LINE",
"867 200 OFFCURVE",
"846 266 OFFCURVE",
"780 282 CURVE",
"774 271 LINE",
"763 255 OFFCURVE",
"738 227 OFFCURVE",
"696 227 CURVE",
"695 227 LINE",
"673 226 LINE",
"673 302 LINE",
"673 358 OFFCURVE",
"702 342 OFFCURVE",
"702 370 CURVE",
"619 370 LINE",
"620 226 LINE",
"577 226 OFFCURVE",
"534 227 OFFCURVE",
"491 231 CURVE SMOOTH",
"471 233 LINE",
"471 189 LINE",
"491 192 LINE SMOOTH",
"534 198 OFFCURVE",
"577 198 OFFCURVE",
"620 199 CURVE",
"620 31 LINE",
"549 31 OFFCURVE",
"477 30 OFFCURVE",
"406 37 CURVE SMOOTH",
"386 39 LINE",
"386 -4 LINE"
);
},
{
closed = 1;
nodes = (
"437 406 LINE SMOOTH",
"507 413 OFFCURVE",
"577 412 OFFCURVE",
"647 412 CURVE SMOOTH",
"941 411 LINE",
"941 411 OFFCURVE",
"920 477 OFFCURVE",
"854 493 CURVE",
"854 493 OFFCURVE",
"829 439 OFFCURVE",
"771 439 CURVE SMOOTH",
"674 439 LINE",
"673 591 LINE",
"867 591 LINE",
"867 591 OFFCURVE",
"846 657 OFFCURVE",
"780 672 CURVE",
"780 672 OFFCURVE",
"755 618 OFFCURVE",
"696 618 CURVE",
"695 618 LINE",
"673 617 LINE",
"673 739 LINE SMOOTH",
"673 793 OFFCURVE",
"702 778 OFFCURVE",
"702 806 CURVE",
"619 806 LINE",
"620 617 LINE",
"577 617 OFFCURVE",
"534 618 OFFCURVE",
"491 622 CURVE SMOOTH",
"471 624 LINE",
"471 580 LINE",
"491 583 LINE SMOOTH",
"534 589 OFFCURVE",
"577 589 OFFCURVE",
"620 590 CURVE",
"620 439 LINE",
"559 439 OFFCURVE",
"498 439 OFFCURVE",
"437 445 CURVE SMOOTH",
"418 447 LINE",
"418 404 LINE"
);
}
);
width = 1000;
}
);
unicode = 5A03;
},
{
glyphname = uni5B89;
lastChange = "2019-08-30 17:20:27 +0000";
layers = (
{
layerId = "CA066C67-EDFC-49EB-AE27-EC7C0259E992";
paths = (
{
closed = 1;
nodes = (
"737 -55 OFFCURVE",
"743 -59 OFFCURVE",
"749 -59 CURVE SMOOTH",
"761 -59 OFFCURVE",
"772 -43 OFFCURVE",
"772 -18 CURVE SMOOTH",
"772 -5 OFFCURVE",
"768 11 OFFCURVE",
"759.958 27.22 CURVE SMOOTH",
"735.117 75.434 OFFCURVE",
"661.43 130.239 OFFCURVE",
"570.221 172.143 CURVE",
"611.025 231.869 OFFCURVE",
"640.174 302.47 OFFCURVE",
"650.253 377.16 CURVE",
"921.82 376.485 LINE",
"921.82 376.485 OFFCURVE",
"900.445 442.379 OFFCURVE",
"834.891 458.196 CURVE",
"834.891 458.196 OFFCURVE",
"809.793 405.107 OFFCURVE",
"751.856 404.263 CURVE SMOOTH",
"434.983 404.037 LINE",
"446.031 451.161 OFFCURVE",
"457.574 508.138 OFFCURVE",
"464.03 563.967 CURVE",
"466.51 579.761 OFFCURVE",
"476.316 586.029 OFFCURVE",
"487.873 588.02 CURVE SMOOTH",
"498 590 OFFCURVE",
"504 593 OFFCURVE",
"504 597 CURVE SMOOTH",
"504 599 OFFCURVE",
"501 601 OFFCURVE",
"494.25 601.627 CURVE SMOOTH",
"474.876 604.058 OFFCURVE",
"405.827 609.527 OFFCURVE",
"405.827 609.527 CURVE SMOOTH",
"405.437 609.527 OFFCURVE",
"398.278 511.452 OFFCURVE",
"375.129 404.201 CURVE",
"278.883 404.382 OFFCURVE",
"182.64 404.819 OFFCURVE",
"86.395 410.117 CURVE SMOOTH",
"66.93 411.189 LINE",
"66.93 370.117 LINE",
"86.395 371.189 LINE SMOOTH",
"180.585 376.376 OFFCURVE",
"274.773 376.891 OFFCURVE",
"368.963 377.081 CURVE",
"367.447 370.633 LINE SMOOTH",
"352.865 311.332 OFFCURVE",
"329.046 246.529 OFFCURVE",
"298.576 183.222 CURVE SMOOTH",
"288.052 161.355 LINE",
"293.546 158.951 LINE SMOOTH",
"297.87 157.055 OFFCURVE",
"306.512 154.84 OFFCURVE",
"316.662 154.84 CURVE SMOOTH",
"335.822 154.84 OFFCURVE",
"351.468 162.441 OFFCURVE",
"360.728 176.232 CURVE SMOOTH",
"363.676 180.63 OFFCURVE",
"367.442 188.155 OFFCURVE",
"371.662 197.754 CURVE",
"409.415 187.993 OFFCURVE",
"450.912 176.001 OFFCURVE",
"493.34 157.979 CURVE",
"464.429 119.839 OFFCURVE",
"430.613 87.882 OFFCURVE",
"394.472 66.747 CURVE SMOOTH",
"269.289 -6.451 OFFCURVE",
"173.899 6.974 OFFCURVE",
"183.408 -27.802 CURVE SMOOTH",
"185 -34 OFFCURVE",
"194 -37 OFFCURVE",
"208 -37 CURVE SMOOTH",
"256 -37 OFFCURVE",
"362 -2 OFFCURVE",
"430.566 38 CURVE SMOOTH",
"470.875 61.468 OFFCURVE",
"508.996 94.694 OFFCURVE",
"542.118 134.471 CURVE",
"609.963 97.657 OFFCURVE",
"677.261 42.065 OFFCURVE",
"732.385 -47.566 CURVE SMOOTH"
);
},
{
closed = 1;
nodes = (
"474.867 210.242 OFFCURVE",
"429.656 223.141 OFFCURVE",
"384.801 231.023 CURVE",
"397.425 265.572 OFFCURVE",
"412.199 312.746 OFFCURVE",
"426.301 368.224 CURVE SMOOTH",
"428.489 377.252 LINE",
"582.434 377.238 LINE",
"575.684 314.043 OFFCURVE",
"552.13 249.724 OFFCURVE",
"517.778 194.09 CURVE"
);
},
{
closed = 1;
nodes = (
"876.588 585.636 OFFCURVE",
"875.78 615.693 OFFCURVE",
"930.352 623.256 CURVE",
"940 625 OFFCURVE",
"947 629 OFFCURVE",
"947 637 CURVE SMOOTH",
"947 640 OFFCURVE",
"946 642 OFFCURVE",
"945.057 645.251 CURVE",
"942.517 650.932 OFFCURVE",
"918.078 699.11 OFFCURVE",
"865.872 715.838 CURVE",
"865.872 715.838 OFFCURVE",
"859.504 693.368 OFFCURVE",
"829.998 678.24 CURVE",
"500.295 678.24 LINE",
"500.295 753.139 LINE SMOOTH",
"500.582 807.908 OFFCURVE",
"529.551 792.716 OFFCURVE",
"529.551 820.088 CURVE",
"447.01 820.088 LINE",
"447.01 678.24 LINE",
"155.986 678.24 LINE",
"138.513 713.317 OFFCURVE",
"128.788 721.633 OFFCURVE",
"128.788 721.633 CURVE SMOOTH",
"128.788 721.633 OFFCURVE",
"133.58 627.481 OFFCURVE",
"77.133 575.671 CURVE SMOOTH",
"60 560 OFFCURVE",
"53 545 OFFCURVE",
"53 533 CURVE SMOOTH",
"53 517 OFFCURVE",
"66 506 OFFCURVE",
"83 506 CURVE SMOOTH",
"103 506 OFFCURVE",
"126 520 OFFCURVE",
"140.376 554.679 CURVE SMOOTH",
"151.702 583.182 OFFCURVE",
"155.779 618.205 OFFCURVE",
"156.936 650.982 CURVE",
"847.177 650.982 LINE",
"834.368 608.349 OFFCURVE",
"827.081 595.566 OFFCURVE",
"807.443 550.916 CURVE SMOOTH",
"804 543 OFFCURVE",
"808 533 OFFCURVE",
"816 533 CURVE SMOOTH",
"820 533 OFFCURVE",
"825 535 OFFCURVE",
"829.828 539.813 CURVE SMOOTH"
);
}
);
width = 1000;
}
);
unicode = 5B89;
},
{
glyphname = uni5B9B;
lastChange = "2019-08-30 17:13:42 +0000";
layers = (
{
layerId = "CA066C67-EDFC-49EB-AE27-EC7C0259E992";
paths = (
{
closed = 1;
nodes = (
"224.394 -39.497 OFFCURVE",
"409.59 69.472 OFFCURVE",
"446.994 390.472 CURVE",
"467.736 405.118 OFFCURVE",
"486.017 392.38 OFFCURVE",
"478.165 410.478 CURVE SMOOTH",
"473.788 420.565 OFFCURVE",
"457.422 468.598 OFFCURVE",
"408.54 474.745 CURVE",
"408.54 474.745 OFFCURVE",
"407.571 449.072 OFFCURVE",
"368.233 444.883 CURVE",
"366.166 444.455 LINE",
"265.442 444.455 LINE",
"274.642 465.901 OFFCURVE",
"283.69 487.939 OFFCURVE",
"292.548 511.198 CURVE SMOOTH",
"298.799 527.614 OFFCURVE",
"309.139 538.234 OFFCURVE",
"323.816 534.723 CURVE SMOOTH",
"335 532 OFFCURVE",
"341 535 OFFCURVE",
"341 539 CURVE SMOOTH",
"341 542 OFFCURVE",
"339 545 OFFCURVE",
"334.751 547.701 CURVE",
"320.024 558.096 OFFCURVE",
"253.122 596.594 OFFCURVE",
"253.122 596.594 CURVE",
"232.805 469.337 OFFCURVE",
"168.762 329.91 OFFCURVE",
"92.648 235.805 CURVE SMOOTH",
"87 229 OFFCURVE",
"85 223 OFFCURVE",
"85 218 CURVE SMOOTH",
"85 210 OFFCURVE",
"91 205 OFFCURVE",
"98 205 CURVE SMOOTH",
"103 205 OFFCURVE",
"108 207 OFFCURVE",
"113.18 211.13 CURVE",
"171.245 263.277 OFFCURVE",
"214.885 332.5 OFFCURVE",
"253.55 417.198 CURVE",
"393.856 417.198 LINE",
"384.913 341.379 OFFCURVE",
"370.388 278.512 OFFCURVE",
"350.893 226.396 CURVE",
"321.516 261.302 OFFCURVE",
"268.184 299.055 OFFCURVE",
"231.375 308.927 CURVE",
"228 310 OFFCURVE",
"224 310 OFFCURVE",
"222 310 CURVE SMOOTH",
"211 310 OFFCURVE",
"206 305 OFFCURVE",
"206 299 CURVE SMOOTH",
"206 295 OFFCURVE",
"208 290 OFFCURVE",
"214.239 285.866 CURVE",
"251.704 258.815 OFFCURVE",
"287.931 221.416 OFFCURVE",
"308.626 179.565 CURVE SMOOTH",
"311.891 172.962 OFFCURVE",
"317.251 168.179 OFFCURVE",
"323.462 165.031 CURVE",
"263.104 53.424 OFFCURVE",
"172.552 4.036 OFFCURVE",
"63.842 -25.695 CURVE SMOOTH",
"53 -29 OFFCURVE",
"47 -37 OFFCURVE",
"47 -44 CURVE SMOOTH",
"47 -51 OFFCURVE",
"54 -58 OFFCURVE",
"70.685 -56.604 CURVE SMOOTH"
);
},
{
closed = 1;
nodes = (
"626 -42 OFFCURVE",
"675 -47 OFFCURVE",
"724 -47 CURVE SMOOTH",
"791 -47 OFFCURVE",
"859 -38 OFFCURVE",
"891.126 -23.765 CURVE SMOOTH",
"914.566 -13.052 OFFCURVE",
"922.423 3.248 OFFCURVE",
"922.371 15.9 CURVE SMOOTH",
"922.364 16.929 OFFCURVE",
"903.893 22.892 OFFCURVE",
"902.954 42.944 CURVE SMOOTH",
"902 59 OFFCURVE",
"902 76 OFFCURVE",
"902 92 CURVE SMOOTH",
"902 140 LINE SMOOTH",
"902 184 OFFCURVE",
"900 218 OFFCURVE",
"882.668 218.805 CURVE SMOOTH",
"853.782 220.397 OFFCURVE",
"861.284 154.053 OFFCURVE",
"856.543 71.361 CURVE SMOOTH",
"854 19 OFFCURVE",
"777 5 OFFCURVE",
"711 5 CURVE SMOOTH",
"673 5 OFFCURVE",
"639 10 OFFCURVE",
"624.613 14.149 CURVE SMOOTH",
"593.416 23.729 OFFCURVE",
"567.304 39.681 OFFCURVE",
"567.023 90.16 CURVE SMOOTH",
"566.847 454.473 LINE",
"739.969 454.473 LINE",
"740 427 OFFCURVE",
"741 362 OFFCURVE",
"741 308 CURVE SMOOTH",
"741 272 OFFCURVE",
"741 242 OFFCURVE",
"739.776 230.129 CURVE SMOOTH",
"738 214 OFFCURVE",
"727 209 OFFCURVE",
"712 209 CURVE SMOOTH",
"685 209 OFFCURVE",
"646 224 OFFCURVE",
"625 224 CURVE SMOOTH",
"617 224 OFFCURVE",
"612 223 OFFCURVE",
"609.366 217.976 CURVE SMOOTH",
"594.483 187.054 OFFCURVE",
"712.531 183.352 OFFCURVE",
"717 160.248 CURVE SMOOTH",
"719 151 OFFCURVE",
"727 147 OFFCURVE",
"737 147 CURVE SMOOTH",
"761 147 OFFCURVE",
"798 170 OFFCURVE",
"797.585 204.727 CURVE",
"797.585 403.524 LINE",
"802 452 OFFCURVE",
"832 444 OFFCURVE",
"832 456 CURVE SMOOTH",
"832 459 OFFCURVE",
"831 461 OFFCURVE",
"828.822 465.519 CURVE",
"825.833 470.879 OFFCURVE",
"803.748 502.052 OFFCURVE",
"755.223 518.753 CURVE",
"755.223 518.753 OFFCURVE",
"749.378 496.825 OFFCURVE",
"722.728 481.73 CURVE",
"566.605 481.73 LINE",
"549.372 519.789 OFFCURVE",
"509.032 530.688 OFFCURVE",
"509.032 530.688 CURVE",
"509.032 73.597 LINE SMOOTH",
"508.233 15.527 OFFCURVE",
"551.396 -19.151 OFFCURVE",
"592.218 -31.863 CURVE SMOOTH"
);
},
{
closed = 1;
nodes = (
"882.96 583.605 OFFCURVE",
"882.15 613.661 OFFCURVE",
"936.729 621.227 CURVE",
"946 623 OFFCURVE",
"953 627 OFFCURVE",
"953 635 CURVE SMOOTH",
"953 638 OFFCURVE",
"953 640 OFFCURVE",
"951.427 643.221 CURVE SMOOTH",
"948.89 648.9 OFFCURVE",
"924.45 697.078 OFFCURVE",
"872.244 713.806 CURVE",
"872.244 713.806 OFFCURVE",
"865.877 691.35 OFFCURVE",
"836.395 676.222 CURVE",
"506.668 676.222 LINE",
"506.668 751.074 LINE SMOOTH",
"506.941 805.888 OFFCURVE",
"535.926 790.68 OFFCURVE",
"535.926 818.056 CURVE",
"453.383 818.056 LINE",
"453.383 676.222 LINE",
"162.349 676.222 LINE",
"144.883 711.289 OFFCURVE",
"135.16 719.603 OFFCURVE",
"135.16 719.603 CURVE SMOOTH",
"135.16 719.603 OFFCURVE",
"139.95 625.449 OFFCURVE",
"83.506 573.64 CURVE SMOOTH",
"66 558 OFFCURVE",
"59 543 OFFCURVE",
"59 532 CURVE SMOOTH",
"59 515 OFFCURVE",
"73 504 OFFCURVE",
"90 504 CURVE SMOOTH",
"109 504 OFFCURVE",
"133 518 OFFCURVE",
"146.748 552.645 CURVE SMOOTH",
"158.074 581.155 OFFCURVE",
"162.154 616.182 OFFCURVE",
"163.311 648.964 CURVE",
"853.552 648.964 LINE",
"840.743 606.319 OFFCURVE",
"833.453 593.539 OFFCURVE",
"813.815 548.884 CURVE",
"810 541 OFFCURVE",
"814 531 OFFCURVE",
"823 531 CURVE SMOOTH",
"826 531 OFFCURVE",
"831 533 OFFCURVE",
"836.202 537.783 CURVE SMOOTH"
);
}
);
width = 1000;
}
);
unicode = 5B9B;
},
{
glyphname = uni5C09;
lastChange = "2019-08-30 17:29:16 +0000";
layers = (
{
layerId = "CA066C67-EDFC-49EB-AE27-EC7C0259E992";
paths = (
{
closed = 1;
nodes = (
"47.58 -61.673 OFFCURVE",
"66.379 -45.273 OFFCURVE",
"80.868 -17.512 CURVE SMOOTH",
"138.651 93.189 OFFCURVE",
"146.779 215.526 OFFCURVE",
"150.438 384.594 CURVE SMOOTH",
"151 412 OFFCURVE",
"151 441 OFFCURVE",
"151 470 CURVE SMOOTH",
"151 517 OFFCURVE",
"151 566 OFFCURVE",
"149.787 609.358 CURVE",
"459.116 608.885 LINE",
"459.116 571.028 LINE SMOOTH",
"459 567 OFFCURVE",
"464 565 OFFCURVE",
"471 565 CURVE SMOOTH",
"487 565 OFFCURVE",
"514 577 OFFCURVE",
"513.62 609.976 CURVE",
"513.62 695.173 LINE",
"518 742 OFFCURVE",
"546 743 OFFCURVE",
"546 758 CURVE SMOOTH",
"546 760 OFFCURVE",
"545 763 OFFCURVE",
"543.071 767.221 CURVE",
"540.248 772.312 OFFCURVE",
"519.429 801.918 OFFCURVE",
"473.684 817.778 CURVE",
"473.684 817.778 OFFCURVE",
"468.285 797.591 OFFCURVE",
"444.131 783.28 CURVE",
"137.8 783.28 LINE",
"118.932 809.756 OFFCURVE",
"88.752 817.778 OFFCURVE",
"88.752 817.778 CURVE SMOOTH",
"88.752 817.778 OFFCURVE",
"96.381 561.163 OFFCURVE",
"95.764 418.827 CURVE SMOOTH",
"95.034 252.235 OFFCURVE",
"86.951 98.055 OFFCURVE",
"45.024 -3.534 CURVE SMOOTH",
"39 -19 OFFCURVE",
"31 -34 OFFCURVE",
"31 -45 CURVE SMOOTH",
"31 -50 OFFCURVE",
"33 -53 OFFCURVE",
"36.456 -55.276 CURVE"
);
},
{
closed = 1;
nodes = (
"194.19 54.498 OFFCURVE",
"235.44 115.83 OFFCURVE",
"255.152 167.014 CURVE SMOOTH",
"262.807 186.887 OFFCURVE",
"270.612 197.682 OFFCURVE",
"280.701 197.653 CURVE",
"288 198 OFFCURVE",
"292 203 OFFCURVE",
"292 208 CURVE SMOOTH",
"292 211 OFFCURVE",
"290 215 OFFCURVE",
"285.859 216.219 CURVE",
"273.637 220.855 OFFCURVE",
"211.951 240.909 OFFCURVE",
"211.951 240.909 CURVE",
"209.661 156.857 OFFCURVE",
"184.451 89.207 OFFCURVE",
"147.594 43.583 CURVE SMOOTH",
"143 38 OFFCURVE",
"141 33 OFFCURVE",
"141 29 CURVE SMOOTH",
"141 27 OFFCURVE",
"142 25 OFFCURVE",
"145 25 CURVE SMOOTH",
"147 25 OFFCURVE",
"151 27 OFFCURVE",
"155.231 29.462 CURVE"
);
},
{
closed = 1;
nodes = (
"341.622 -58.021 OFFCURVE",
"364.204 -49.073 OFFCURVE",
"376.84 -29.713 CURVE SMOOTH",
"383.685 -19.23 OFFCURVE",
"386.84 -6.756 OFFCURVE",
"386.947 10.297 CURVE",
"386.432 15.344 LINE",
"386.432 309.065 LINE",
"545.059 307.981 LINE",
"545.059 307.981 OFFCURVE",
"525.619 375.909 OFFCURVE",
"465.99 392.211 CURVE",
"465.99 392.211 OFFCURVE",
"442.72 336.135 OFFCURVE",
"389.119 336.135 CURVE",
"387.826 336.018 LINE",
"341.164 335.873 LINE SMOOTH",
"293.895 336.555 OFFCURVE",
"246.627 335.011 OFFCURVE",
"199.358 342.051 CURVE SMOOTH",
"179.894 344.95 LINE",
"179.894 300.224 LINE",
"199.358 303.122 LINE SMOOTH",
"243.545 309.704 OFFCURVE",
"287.729 308.825 OFFCURVE",
"331.916 309.231 CURVE",
"331.916 67.93 LINE",
"328 39 OFFCURVE",
"309 32 OFFCURVE",
"287 32 CURVE SMOOTH",
"268 32 OFFCURVE",
"246 38 OFFCURVE",
"233 38 CURVE SMOOTH",
"228 38 OFFCURVE",
"224 37 OFFCURVE",
"222.037 34.632 CURVE SMOOTH",
"211.393 21.143 OFFCURVE",
"258.352 8.142 OFFCURVE",
"289.022 -4.565 CURVE SMOOTH",
"326.903 -20.261 OFFCURVE",
"322.239 -58.037 OFFCURVE",
"323.695 -58.037 CURVE SMOOTH"
);
},
{
closed = 1;
nodes = (
"493 42 OFFCURVE",
"503 34 OFFCURVE",
"512 34 CURVE SMOOTH",
"526 34 OFFCURVE",
"541 52 OFFCURVE",
"541 82 CURVE SMOOTH",
"541 91 OFFCURVE",
"540 101 OFFCURVE",
"536.689 112.817 CURVE SMOOTH",
"517.436 179.092 OFFCURVE",
"472.13 222.713 OFFCURVE",
"436.542 236.325 CURVE",
"433 238 OFFCURVE",
"429 239 OFFCURVE",
"427 239 CURVE SMOOTH",
"422 239 OFFCURVE",
"419 236 OFFCURVE",
"419 232 CURVE SMOOTH",
"419 227 OFFCURVE",
"423 220 OFFCURVE",
"429.074 212.392 CURVE",
"462.483 173.979 OFFCURVE",
"475.086 128.894 OFFCURVE",
"489.468 60.585 CURVE SMOOTH"
);
},
{
closed = 1;
nodes = (
"220.759 442.013 LINE SMOOTH",
"259.284 449.053 OFFCURVE",
"297.808 447.511 OFFCURVE",
"336.333 448.19 CURVE SMOOTH",
"514.002 446.871 LINE",
"514.002 446.871 OFFCURVE",
"494.56 514.799 OFFCURVE",
"434.928 531.101 CURVE",
"434.928 531.101 OFFCURVE",
"411.658 475.025 OFFCURVE",
"358.057 475.025 CURVE",
"355.992 474.837 LINE",
"336.333 474.764 LINE SMOOTH",
"297.808 475.443 OFFCURVE",
"259.284 473.901 OFFCURVE",
"220.759 480.941 CURVE SMOOTH",
"201.294 484.498 LINE",
"201.294 438.456 LINE"
);
},
{
closed = 1;
nodes = (
"659 205 OFFCURVE",
"672 194 OFFCURVE",
"686 194 CURVE SMOOTH",
"701 194 OFFCURVE",
"716 209 OFFCURVE",
"716 236 CURVE SMOOTH",
"716 245 OFFCURVE",
"715 255 OFFCURVE",
"711.433 265.771 CURVE SMOOTH",
"694.371 318.652 OFFCURVE",
"645.389 368.513 OFFCURVE",
"610.284 393.124 CURVE SMOOTH",
"595 404 OFFCURVE",
"583 408 OFFCURVE",
"576 408 CURVE SMOOTH",
"572 408 OFFCURVE",
"569 406 OFFCURVE",
"569 403 CURVE SMOOTH",
"569 400 OFFCURVE",
"571 396 OFFCURVE",
"575.579 391.208 CURVE",
"607.532 354.689 OFFCURVE",
"641.046 301.554 OFFCURVE",
"654.689 228.477 CURVE SMOOTH"
);
},
{
closed = 1;
nodes = (
"149.219 636.618 LINE",
"148.01 690.943 OFFCURVE",
"146.587 734.767 OFFCURVE",
"145.85 756.061 CURVE",
"459.116 756.061 LINE",
"459.116 636.143 LINE"
);
},
{
closed = 1;
nodes = (
"789.671 -64.177 OFFCURVE",
"813.398 -52.853 OFFCURVE",
"825.971 -30.487 CURVE SMOOTH",
"831.976 -19.812 OFFCURVE",
"834.131 -7.901 OFFCURVE",
"834.582 8.242 CURVE SMOOTH",
"834.777 14.595 LINE",
"834.777 525.698 LINE",
"968.692 525.698 LINE",
"968.692 525.698 OFFCURVE",
"950.615 591.59 OFFCURVE",
"895.187 607.41 CURVE",
"895.187 607.41 OFFCURVE",
"876.635 561.994 OFFCURVE",
"834.777 554.786 CURVE",
"834.777 763.595 LINE",
"837.058 811.37 OFFCURVE",
"863.655 798.867 OFFCURVE",
"863.655 825.208 CURVE",
"780.261 825.25 LINE",
"780.261 552.92 LINE",
"741.464 552.833 LINE SMOOTH",
"677.656 553.512 OFFCURVE",
"613.847 551.97 OFFCURVE",
"550.039 559.008 CURVE SMOOTH",
"530.575 561.156 LINE",
"530.575 517.933 LINE",
"550.039 520.079 LINE SMOOTH",
"613.847 527.119 OFFCURVE",
"677.656 525.577 OFFCURVE",
"741.464 526.257 CURVE SMOOTH",
"780.261 526.169 LINE",
"780.261 101.862 LINE SMOOTH",
"779 57 OFFCURVE",
"751 46 OFFCURVE",
"718 46 CURVE SMOOTH",
"681 46 OFFCURVE",
"638 60 OFFCURVE",
"617 60 CURVE SMOOTH",
"611 60 OFFCURVE",
"607 58 OFFCURVE",
"605.275 55.109 CURVE",
"595.837 33.972 OFFCURVE",
"708.539 11.929 OFFCURVE",
"749.886 -12.047 CURVE SMOOTH",
"774.706 -26.443 OFFCURVE",
"770.204 -64.082 OFFCURVE",
"771.667 -64.091 CURVE SMOOTH"
);
}
);
width = 1000;
}
);
unicode = 5C09;
},
{
glyphname = uni5EB5;
lastChange = "2019-08-30 17:20:50 +0000";
layers = (
{
layerId = "CA066C67-EDFC-49EB-AE27-EC7C0259E992";
paths = (
{
closed = 1;
nodes = (
"56 -77 OFFCURVE",
"59 -80 OFFCURVE",
"64 -80 CURVE SMOOTH",
"71 -80 OFFCURVE",
"81 -75 OFFCURVE",
"95.301 -60.655 CURVE SMOOTH",
"216 63 OFFCURVE",
"241 280 OFFCURVE",
"241 454 CURVE SMOOTH",
"241 531 OFFCURVE",
"236 600 OFFCURVE",
"232.547 647.914 CURVE",
"948.928 647.382 LINE",
"948.928 647.382 OFFCURVE",
"927.554 713.276 OFFCURVE",
"862.002 729.094 CURVE",
"862.002 729.094 OFFCURVE",
"836.93 676.082 OFFCURVE",
"779.069 675.172 CURVE SMOOTH",
"587.83 675.172 LINE",
"587.83 773.881 LINE SMOOTH",
"588.063 828.836 OFFCURVE",
"617.096 813.568 OFFCURVE",
"617.096 840.966 CURVE",
"534.543 840.966 LINE",
"534.543 675.172 LINE",
"230.772 675.172 LINE",
"214.049 711.364 OFFCURVE",
"173.419 721.222 OFFCURVE",
"173.419 721.222 CURVE",
"176 680 OFFCURVE",
"185 586 OFFCURVE",
"185 474 CURVE SMOOTH",
"185 307 OFFCURVE",
"165 101 OFFCURVE",
"79.037 -22.18 CURVE SMOOTH",
"63 -45 OFFCURVE",
"51 -57 OFFCURVE",
"51 -67 CURVE SMOOTH",
"51 -70 OFFCURVE",
"52 -72 OFFCURVE",
"53.829 -74.847 CURVE"
);
},
{
closed = 1;
nodes = (
"440.848 118.157 LINE",
"440.848 188.031 LINE",
"535.111 188.031 LINE",
"535.261 117.979 LINE"
);
},
{
closed = 1;
nodes = (
"440.848 288.09 LINE",
"534.845 288.09 LINE",
"535.042 215.251 LINE",
"440.848 215.251 LINE"
);
},
{
closed = 1;
nodes = (
"590.035 117.877 LINE",
"589.962 188.031 LINE",
"683.249 188.031 LINE",
"683.249 117.701 LINE"
);
},
{
closed = 1;
nodes = (
"641 -64 OFFCURVE",
"681 -69 OFFCURVE",
"721 -69 CURVE SMOOTH",
"778 -69 OFFCURVE",
"833 -60 OFFCURVE",
"865.224 -46.069 CURVE SMOOTH",
"888.663 -35.895 OFFCURVE",
"896.518 -20.412 OFFCURVE",
"896.468 -8.399 CURVE SMOOTH",
"896.464 -7.423 OFFCURVE",
"877.992 -1.763 OFFCURVE",
"877.054 17.281 CURVE SMOOTH",
"873.15 96.412 OFFCURVE",
"874.039 157.11 OFFCURVE",
"854.855 159.92 CURVE SMOOTH",
"829.942 163.568 OFFCURVE",
"836.471 107.382 OFFCURVE",
"832.957 31.829 CURVE SMOOTH",
"831 -8 OFFCURVE",
"773 -20 OFFCURVE",
"720 -20 CURVE SMOOTH",
"687 -20 OFFCURVE",
"655 -15 OFFCURVE",
"640.26 -10.801 CURVE SMOOTH",
"609.065 -1.704 OFFCURVE",
"590.399 13.443 OFFCURVE",
"590.119 61.38 CURVE SMOOTH",
"590.066 90.619 LINE",
"683.249 90.443 LINE",
"683.249 59.313 LINE",
"683 56 OFFCURVE",
"688 53 OFFCURVE",
"695 53 CURVE SMOOTH",
"711 53 OFFCURVE",
"738 65 OFFCURVE",
"737.748 98.26 CURVE",
"737.748 240.427 LINE",
"742.098 291.74 OFFCURVE",
"776.087 276.63 OFFCURVE",
"768.648 295.558 CURVE",
"803.174 253.421 OFFCURVE",
"840.047 221.934 OFFCURVE",
"870.125 203.095 CURVE SMOOTH",
"881.929 195.699 OFFCURVE",
"886.463 206.818 OFFCURVE",
"887.741 210.252 CURVE SMOOTH",
"894.235 227.76 OFFCURVE",
"908.42 240.748 OFFCURVE",
"923.018 242.133 CURVE SMOOTH",
"933 243 OFFCURVE",
"939 247 OFFCURVE",
"939 251 CURVE SMOOTH",
"939 254 OFFCURVE",
"937 256 OFFCURVE",
"931.664 258.744 CURVE",
"831.432 301.557 OFFCURVE",
"754.423 374.672 OFFCURVE",
"704.41 461.452 CURVE",
"896.468 460.803 LINE",
"896.468 460.803 OFFCURVE",
"875.094 526.699 OFFCURVE",
"809.542 542.514 CURVE",
"809.542 542.514 OFFCURVE",
"784.332 489.08 OFFCURVE",
"726.046 488.531 CURVE SMOOTH",
"527.617 488.393 LINE",
"538.041 512.082 OFFCURVE",
"547.495 536.862 OFFCURVE",
"555.414 563.026 CURVE",
"558 573 OFFCURVE",
"565 576 OFFCURVE",
"572 576 CURVE SMOOTH",
"575 576 OFFCURVE",
"577 576 OFFCURVE",
"579.982 574.818 CURVE SMOOTH",
"585 573 OFFCURVE",
"590 572 OFFCURVE",
"594 572 CURVE SMOOTH",
"600 572 OFFCURVE",
"604 575 OFFCURVE",
"604 578 CURVE SMOOTH",
"604 581 OFFCURVE",
"601 584 OFFCURVE",
"595.488 587.804 CURVE",
"501.752 637.035 LINE",
"491.069 580.533 OFFCURVE",
"476.561 531.687 OFFCURVE",
"459.635 488.754 CURVE",
"404.575 489.099 OFFCURVE",
"349.516 490.08 OFFCURVE",
"294.456 494.438 CURVE SMOOTH",
"274.992 495.978 LINE",
"274.992 453.969 LINE",
"294.456 455.509 LINE SMOOTH",
"345.636 459.56 OFFCURVE",
"396.815 460.691 OFFCURVE",
"447.995 461.116 CURVE",
"392.522 337.062 OFFCURVE",
"315.543 268.982 OFFCURVE",
"251.148 222.645 CURVE SMOOTH",
"241 215 OFFCURVE",
"237 208 OFFCURVE",
"237 204 CURVE SMOOTH",
"237 197 OFFCURVE",
"243 194 OFFCURVE",
"251 194 CURVE SMOOTH",
"255 194 OFFCURVE",
"259 194 OFFCURVE",
"262.095 195.9 CURVE",
"298.476 211.523 OFFCURVE",
"342.568 241.682 OFFCURVE",
"386.346 284.132 CURVE",
"386.346 59.313 LINE",
"386 56 OFFCURVE",
"391 54 OFFCURVE",
"398 54 CURVE SMOOTH",
"412 54 OFFCURVE",
"436 64 OFFCURVE",
"439.747 90.902 CURVE",
"535.301 90.721 LINE",
"535.249 43.03 LINE SMOOTH",
"534.451 -12.118 OFFCURVE",
"567.045 -42.429 OFFCURVE",
"607.858 -54.504 CURVE SMOOTH"
);
},
{
closed = 1;
nodes = (
"589.869 288.09 LINE",
"683.249 288.09 LINE",
"683.249 215.251 LINE",
"589.933 215.251 LINE"
);
},
{
closed = 1;
nodes = (
"430.94 319.066 OFFCURVE",
"427.962 322.236 OFFCURVE",
"424.876 325.011 CURVE",
"457.655 363.215 OFFCURVE",
"488.261 409.224 OFFCURVE",
"514.19 461.501 CURVE",
"678.841 461.494 LINE",
"678.811 460.449 LINE",
"696.182 404.764 OFFCURVE",
"723.114 356.707 OFFCURVE",
"752.852 316.419 CURVE",
"741.697 327.318 OFFCURVE",
"723.941 340.771 OFFCURVE",
"697.812 349.828 CURVE",
"697.812 349.828 OFFCURVE",
"692.416 329.656 OFFCURVE",
"668.282 315.348 CURVE",
"589.843 315.348 LINE",
"589.81 350.748 LINE",
"590.183 405.223 OFFCURVE",
"619.051 390.154 OFFCURVE",
"619.051 417.483 CURVE",
"534.451 417.483 LINE",
"534.767 315.348 LINE",
"433.665 315.348 LINE"
);
}
);
width = 1000;
}
);
unicode = 5EB5;
},
{
glyphname = uni60AA;
lastChange = "2019-08-30 17:04:10 +0000";
layers = (
{
layerId = "CA066C67-EDFC-49EB-AE27-EC7C0259E992";
paths = (
{
closed = 1;
nodes = (
"138 282 LINE SMOOTH",
"250 288 OFFCURVE",
"363 288 OFFCURVE",
"475 288 CURVE SMOOTH",
"882 287 LINE",
"882 287 OFFCURVE",
"860 355 OFFCURVE",
"795 371 CURVE",
"795 371 OFFCURVE",
"769 315 OFFCURVE",
"711 315 CURVE",
"709 315 LINE",
"595 315 LINE",
"595 438 LINE",
"688 438 LINE",
"688 405 LINE",
"688 401 OFFCURVE",
"693 399 OFFCURVE",
"700 399 CURVE SMOOTH",
"716 399 OFFCURVE",
"743 411 OFFCURVE",
"743 445 CURVE",
"743 556 LINE",
"747 604 OFFCURVE",
"775 595 OFFCURVE",
"775 608 CURVE SMOOTH",
"775 610 OFFCURVE",
"774 613 OFFCURVE",
"772 617 CURVE SMOOTH",
"769 622 OFFCURVE",
"749 652 OFFCURVE",
"703 669 CURVE",
"703 669 OFFCURVE",
"697 648 OFFCURVE",
"673 633 CURVE",
"595 633 LINE",
"595 750 LINE",
"843 748 LINE",
"843 748 OFFCURVE",
"822 816 OFFCURVE",
"756 833 CURVE",
"756 833 OFFCURVE",
"731 777 OFFCURVE",
"672 777 CURVE",
"669 777 LINE",
"475 776 LINE SMOOTH",
"375 775 OFFCURVE",
"276 778 OFFCURVE",
"177 783 CURVE SMOOTH",
"157 784 LINE",
"157 742 LINE",
"177 744 LINE SMOOTH",
"248 751 OFFCURVE",
"319 749 OFFCURVE",
"390 750 CURVE",
"390 633 LINE",
"290 633 LINE",
"272 660 OFFCURVE",
"242 669 OFFCURVE",
"242 669 CURVE",
"242 405 LINE SMOOTH",
"242 401 OFFCURVE",
"247 399 OFFCURVE",
"253 399 CURVE SMOOTH",
"268 399 OFFCURVE",
"292 410 OFFCURVE",
"296 439 CURVE",
"390 439 LINE",
"390 315 LINE",
"306 315 OFFCURVE",
"222 317 OFFCURVE",
"138 321 CURVE SMOOTH",
"118 322 LINE",
"118 281 LINE"
);
},
{
closed = 1;
nodes = (
"221 -1 OFFCURVE",
"241 62 OFFCURVE",
"241 132 CURVE SMOOTH",
"241 145 OFFCURVE",
"240 158 OFFCURVE",
"239 171 CURVE SMOOTH",
"238 183 OFFCURVE",
"232 189 OFFCURVE",
"226 189 CURVE SMOOTH",
"220 189 OFFCURVE",
"214 183 OFFCURVE",
"212 171 CURVE",
"198 76 OFFCURVE",
"169 44 OFFCURVE",
"136 11 CURVE SMOOTH",
"128 3 OFFCURVE",
"125 -8 OFFCURVE",
"125 -17 CURVE SMOOTH",
"125 -38 OFFCURVE",
"142 -56 OFFCURVE",
"161 -56 CURVE SMOOTH",
"171 -56 OFFCURVE",
"180 -52 OFFCURVE",
"188 -42 CURVE SMOOTH"
);
},
{
closed = 1;
nodes = (
"786 -39 OFFCURVE",
"794 -21 OFFCURVE",
"794 -8 CURVE SMOOTH",
"794 -7 OFFCURVE",
"773 -5 OFFCURVE",
"762 12 CURVE SMOOTH",
"732 58 OFFCURVE",
"723 127 OFFCURVE",
"699 120 CURVE",
"693 118 OFFCURVE",
"690 113 OFFCURVE",
"690 106 CURVE SMOOTH",
"690 89 OFFCURVE",
"703 61 OFFCURVE",
"703 34 CURVE SMOOTH",
"703 25 OFFCURVE",
"701 15 OFFCURVE",
"697 7 CURVE",
"686 -14 OFFCURVE",
"634 -25 OFFCURVE",
"579 -25 CURVE SMOOTH",
"529 -25 OFFCURVE",
"476 -16 OFFCURVE",
"446 1 CURVE SMOOTH",
"363 48 OFFCURVE",
"365 111 OFFCURVE",
"365 161 CURVE SMOOTH",
"365 205 OFFCURVE",
"385 180 OFFCURVE",
"391 206 CURVE",
"309 230 LINE",
"309 230 OFFCURVE",
"311 173 OFFCURVE",
"310 147 CURVE SMOOTH",
"308 98 OFFCURVE",
"319 20 OFFCURVE",
"389 -26 CURVE SMOOTH",
"436 -57 OFFCURVE",
"513 -67 OFFCURVE",
"584 -67 CURVE SMOOTH",
"667 -67 OFFCURVE",
"743 -54 OFFCURVE",
"760 -48 CURVE SMOOTH"
);
},
{
closed = 1;
nodes = (
"575 104 OFFCURVE",
"587 98 OFFCURVE",
"599 98 CURVE SMOOTH",
"615 98 OFFCURVE",
"629 108 OFFCURVE",
"629 126 CURVE SMOOTH",
"629 135 OFFCURVE",
"625 145 OFFCURVE",
"618 157 CURVE SMOOTH",
"588 209 OFFCURVE",
"527 239 OFFCURVE",
"479 251 CURVE",
"475 252 OFFCURVE",
"472 252 OFFCURVE",
"469 252 CURVE SMOOTH",
"460 252 OFFCURVE",
"456 248 OFFCURVE",
"456 243 CURVE SMOOTH",
"456 238 OFFCURVE",
"460 232 OFFCURVE",
"469 226 CURVE SMOOTH",
"515 195 OFFCURVE",
"538 169 OFFCURVE",
"567 118 CURVE SMOOTH"
);
},
{
closed = 1;
nodes = (
"445 315 LINE",
"445 438 LINE",
"541 438 LINE",
"541 315 LINE"
);
},
{
closed = 1;
nodes = (
"296 466 LINE",
"296 606 LINE",
"390 606 LINE",
"390 466 LINE"
);
},
{
closed = 1;
nodes = (
"821 75 OFFCURVE",
"833 68 OFFCURVE",
"844 68 CURVE SMOOTH",
"860 68 OFFCURVE",
"875 81 OFFCURVE",
"875 103 CURVE SMOOTH",
"875 114 OFFCURVE",
"871 127 OFFCURVE",
"862 142 CURVE SMOOTH",
"831 194 OFFCURVE",
"768 235 OFFCURVE",
"727 247 CURVE",
"720 248 OFFCURVE",
"715 249 OFFCURVE",
"710 249 CURVE SMOOTH",
"700 249 OFFCURVE",
"694 245 OFFCURVE",
"694 239 CURVE SMOOTH",
"694 234 OFFCURVE",
"698 227 OFFCURVE",
"707 220 CURVE SMOOTH",
"755 183 OFFCURVE",
"780 158 OFFCURVE",
"813 91 CURVE SMOOTH"
);
},
{
closed = 1;
nodes = (
"445 466 LINE",
"445 606 LINE",
"541 606 LINE",
"541 466 LINE"
);
},
{
closed = 1;
nodes = (
"595 466 LINE",
"595 606 LINE",
"688 606 LINE",
"688 465 LINE"
);
},
{
closed = 1;
nodes = (
"445 750 LINE",
"541 750 LINE",
"541 633 LINE",
"445 633 LINE"
);
}
);
width = 1000;
}
);
unicode = 60AA;
},
{
glyphname = uni611B;
lastChange = "2019-08-30 16:32:10 +0000";
layers = (
{
layerId = "CA066C67-EDFC-49EB-AE27-EC7C0259E992";
paths = (
{
closed = 1;
nodes = (
"792 -68 OFFCURVE",
"798 -65 OFFCURVE",
"802 -59 CURVE SMOOTH",
"810 -47 OFFCURVE",
"820 -40 OFFCURVE",
"840 -31 CURVE SMOOTH",
"849 -27 OFFCURVE",
"855 -23 OFFCURVE",
"855 -19 CURVE SMOOTH",
"855 -16 OFFCURVE",
"851 -14 OFFCURVE",
"842 -14 CURVE SMOOTH",
"686 -14 OFFCURVE",
"590 33 OFFCURVE",
"529 83 CURVE",
"558 112 OFFCURVE",
"584 146 OFFCURVE",
"608 187 CURVE",
"631 220 OFFCURVE",
"656 221 OFFCURVE",
"656 221 CURVE SMOOTH",
"656 221 OFFCURVE",
"634 277 OFFCURVE",
"585 282 CURVE",
"585 282 OFFCURVE",
"584 259 OFFCURVE",
"545 254 CURVE",
"454 254 LINE",
"469 275 OFFCURVE",
"477 301 OFFCURVE",
"501 301 CURVE SMOOTH",
"513 301 OFFCURVE",
"519 301 OFFCURVE",
"519 305 CURVE SMOOTH",
"519 310 OFFCURVE",
"505 315 OFFCURVE",
"490 324 CURVE",
"544 322 OFFCURVE",
"595 330 OFFCURVE",
"625 343 CURVE SMOOTH",
"651 354 OFFCURVE",
"660 369 OFFCURVE",
"660 381 CURVE SMOOTH",
"660 382 OFFCURVE",
"637 384 OFFCURVE",
"632 403 CURVE SMOOTH",
"621 445 OFFCURVE",
"623 474 OFFCURVE",
"610 474 CURVE SMOOTH",
"601 474 OFFCURVE",
"601 462 OFFCURVE",
"601 444 CURVE SMOOTH",
"601 374 OFFCURVE",
"573 354 OFFCURVE",
"493 354 CURVE SMOOTH",
"440 354 OFFCURVE",
"389 364 OFFCURVE",
"389 424 CURVE SMOOTH",
"389 461 OFFCURVE",
"409 438 OFFCURVE",
"416 470 CURVE",
"340 490 LINE",
"341 412 LINE SMOOTH",
"342 355 OFFCURVE",
"378 341 OFFCURVE",
"431 330 CURVE",
"394 238 OFFCURVE",
"302 125 OFFCURVE",
"227 68 CURVE SMOOTH",
"219 62 OFFCURVE",
"216 56 OFFCURVE",
"216 52 CURVE SMOOTH",
"216 46 OFFCURVE",
"221 42 OFFCURVE",
"227 42 CURVE SMOOTH",
"229 42 OFFCURVE",
"231 42 OFFCURVE",
"233 43 CURVE SMOOTH",
"283 68 OFFCURVE",
"350 122 OFFCURVE",
"410 195 CURVE",
"420 165 OFFCURVE",
"438 130 OFFCURVE",
"464 95 CURVE",
"376 10 OFFCURVE",
"270 -30 OFFCURVE",
"149 -40 CURVE SMOOTH",
"137 -41 OFFCURVE",
"133 -45 OFFCURVE",
"133 -50 CURVE SMOOTH",
"133 -57 OFFCURVE",
"141 -64 OFFCURVE",
"150 -63 CURVE SMOOTH",
"284 -48 OFFCURVE",
"403 -25 OFFCURVE",
"498 55 CURVE",
"561 -10 OFFCURVE",
"654 -68 OFFCURVE",
"784 -68 CURVE SMOOTH"
);
},
{
closed = 1;
nodes = (
"283 334 OFFCURVE",
"290 392 OFFCURVE",
"290 438 CURVE SMOOTH",
"290 451 OFFCURVE",
"290 464 OFFCURVE",
"288 474 CURVE SMOOTH",
"287 480 OFFCURVE",
"285 484 OFFCURVE",
"282 484 CURVE SMOOTH",
"279 484 OFFCURVE",
"276 481 OFFCURVE",
"275 475 CURVE SMOOTH",
"262 399 OFFCURVE",
"229 376 OFFCURVE",
"200 347 CURVE SMOOTH",
"193 340 OFFCURVE",
"188 333 OFFCURVE",
"188 326 CURVE SMOOTH",
"188 309 OFFCURVE",
"206 294 OFFCURVE",
"225 294 CURVE SMOOTH",
"234 294 OFFCURVE",
"243 298 OFFCURVE",
"252 306 CURVE SMOOTH"
);
},
{
closed = 1;
nodes = (
"459 155 OFFCURVE",
"442 190 OFFCURVE",
"429 219 CURVE",
"436 227 LINE",
"562 227 LINE",
"539 186 OFFCURVE",
"515 151 OFFCURVE",
"489 121 CURVE"
);
},
{
closed = 1;
nodes = (
"499 414 OFFCURVE",
"509 410 OFFCURVE",
"518 410 CURVE SMOOTH",
"532 410 OFFCURVE",
"547 419 OFFCURVE",
"547 433 CURVE SMOOTH",
"547 438 OFFCURVE",
"545 443 OFFCURVE",
"542 449 CURVE SMOOTH",
"521 491 OFFCURVE",
"448 511 OFFCURVE",
"433 511 CURVE SMOOTH",
"428 511 OFFCURVE",
"426 510 OFFCURVE",
"426 508 CURVE SMOOTH",
"426 505 OFFCURVE",
"430 502 OFFCURVE",
"436 498 CURVE SMOOTH",
"468 477 OFFCURVE",
"480 457 OFFCURVE",
"495 423 CURVE SMOOTH"
);
},
{
closed = 1;
nodes = (
"344 570 OFFCURVE",
"353 565 OFFCURVE",
"363 565 CURVE SMOOTH",
"377 565 OFFCURVE",
"394 577 OFFCURVE",
"394 597 CURVE SMOOTH",
"394 623 OFFCURVE",
"350 675 OFFCURVE",
"307 689 CURVE SMOOTH",
"298 692 OFFCURVE",
"294 690 OFFCURVE",
"294 686 CURVE SMOOTH",
"294 683 OFFCURVE",
"296 677 OFFCURVE",
"301 671 CURVE SMOOTH",
"323 644 OFFCURVE",
"330 623 OFFCURVE",
"341 581 CURVE SMOOTH"
);
},
{
closed = 1;
nodes = (
"726 365 OFFCURVE",
"736 360 OFFCURVE",
"746 360 CURVE SMOOTH",
"762 360 OFFCURVE",
"778 371 OFFCURVE",
"778 389 CURVE SMOOTH",
"778 402 OFFCURVE",
"769 417 OFFCURVE",
"760 427 CURVE",
"780 427 OFFCURVE",
"809 484 OFFCURVE",
"852 494 CURVE",
"862 494 OFFCURVE",
"873 495 OFFCURVE",
"881 498 CURVE",
"882 498 LINE",
"887 500 OFFCURVE",
"890 504 OFFCURVE",
"890 509 CURVE SMOOTH",
"890 512 OFFCURVE",
"871 564 OFFCURVE",
"809 583 CURVE",
"809 583 OFFCURVE",
"805 568 OFFCURVE",
"786 555 CURVE",
"613 555 LINE",
"643 571 OFFCURVE",
"676 603 OFFCURVE",
"718 648 CURVE SMOOTH",
"737 668 OFFCURVE",
"750 663 OFFCURVE",
"760 663 CURVE SMOOTH",
"764 663 OFFCURVE",
"767 664 OFFCURVE",
"770 666 CURVE SMOOTH",
"784 675 OFFCURVE",
"687 739 OFFCURVE",
"687 739 CURVE",
"670 666 OFFCURVE",
"635 606 OFFCURVE",
"581 560 CURVE",
"576 555 LINE",
"205 555 LINE",
"189 582 OFFCURVE",
"181 589 OFFCURVE",
"181 589 CURVE SMOOTH",
"181 589 OFFCURVE",
"186 507 OFFCURVE",
"133 463 CURVE SMOOTH",
"116 449 OFFCURVE",
"110 436 OFFCURVE",
"110 426 CURVE SMOOTH",
"110 412 OFFCURVE",
"122 403 OFFCURVE",
"138 403 CURVE SMOOTH",
"156 403 OFFCURVE",
"179 415 OFFCURVE",
"192 445 CURVE SMOOTH",
"202 469 OFFCURVE",
"206 500 OFFCURVE",
"207 528 CURVE",
"790 528 LINE",
"777 491 OFFCURVE",
"781 472 OFFCURVE",
"751 442 CURVE SMOOTH",
"750 441 OFFCURVE",
"749 440 OFFCURVE",
"749 438 CURVE",
"725 461 OFFCURVE",
"692 478 OFFCURVE",
"665 483 CURVE SMOOTH",
"660 484 OFFCURVE",
"657 484 OFFCURVE",
"654 484 CURVE SMOOTH",
"649 484 OFFCURVE",
"646 483 OFFCURVE",
"646 480 CURVE SMOOTH",
"646 477 OFFCURVE",
"650 473 OFFCURVE",
"657 468 CURVE SMOOTH",
"692 443 OFFCURVE",
"707 418 OFFCURVE",
"722 376 CURVE SMOOTH"
);
},
{
closed = 1;
nodes = (
"488 592 OFFCURVE",
"497 587 OFFCURVE",
"507 587 CURVE SMOOTH",
"523 587 OFFCURVE",
"540 599 OFFCURVE",
"540 620 CURVE SMOOTH",
"540 645 OFFCURVE",
"516 686 OFFCURVE",
"482 709 CURVE",
"577 718 OFFCURVE",
"680 736 OFFCURVE",
"776 768 CURVE SMOOTH",
"782 769 OFFCURVE",
"787 770 OFFCURVE",
"791 770 CURVE SMOOTH",
"811 770 OFFCURVE",
"812 759 OFFCURVE",
"827 759 CURVE SMOOTH",
"832 759 OFFCURVE",
"835 761 OFFCURVE",
"835 765 CURVE SMOOTH",
"835 766 OFFCURVE",
"834 768 OFFCURVE",
"833 770 CURVE SMOOTH",
"827 782 OFFCURVE",
"762 840 OFFCURVE",
"762 840 CURVE",
"664 766 OFFCURVE",
"446 741 OFFCURVE",
"267 741 CURVE SMOOTH",
"240 741 OFFCURVE",
"213 740 OFFCURVE",
"188 742 CURVE SMOOTH",
"175 743 OFFCURVE",
"168 736 OFFCURVE",
"168 729 CURVE SMOOTH",
"168 722 OFFCURVE",
"174 715 OFFCURVE",
"184 713 CURVE SMOOTH",
"219 706 OFFCURVE",
"272 702 OFFCURVE",
"337 702 CURVE SMOOTH",
"372 702 OFFCURVE",
"410 704 OFFCURVE",
"449 706 CURVE",
"470 672 OFFCURVE",
"474 648 OFFCURVE",
"485 604 CURVE SMOOTH"
);
}
);
width = 1000;
}
);
unicode = 611B;
},
{
glyphname = uni6216;
lastChange = "2019-08-30 17:18:52 +0000";
layers = (
{
layerId = "CA066C67-EDFC-49EB-AE27-EC7C0259E992";
paths = (
{
closed = 1;
nodes = (
"521.168 -28.217 OFFCURVE",
"586.188 23.837 OFFCURVE",
"644.557 92.499 CURVE",
"719.487 -18.114 OFFCURVE",
"800.69 -47.296 OFFCURVE",
"816.072 -53.678 CURVE SMOOTH",
"828 -59 OFFCURVE",
"840 -61 OFFCURVE",
"853 -61 CURVE SMOOTH",
"878 -61 OFFCURVE",
"900 -50 OFFCURVE",
"907.399 -27.887 CURVE",
"909 -21 OFFCURVE",
"910 -17 OFFCURVE",
"910 -14 CURVE SMOOTH",
"910 -3 OFFCURVE",
"899 -8 OFFCURVE",
"891.917 23.39 CURVE SMOOTH",
"889 36 OFFCURVE",
"887 58 OFFCURVE",
"887 87 CURVE SMOOTH",
"887 108 OFFCURVE",
"888 134 OFFCURVE",
"890.77 163.176 CURVE SMOOTH",
"893 188 OFFCURVE",
"884 200 OFFCURVE",
"874 200 CURVE SMOOTH",
"864 200 OFFCURVE",
"853 188 OFFCURVE",
"851.677 164.062 CURVE SMOOTH",
"843.703 37.696 OFFCURVE",
"846.062 -2.014 OFFCURVE",
"825.586 6.585 CURVE SMOOTH",
"814.3 11.322 OFFCURVE",
"742.504 36.164 OFFCURVE",
"678.926 136.686 CURVE",
"724.926 199.22 OFFCURVE",
"766.304 272.932 OFFCURVE",
"801.381 360.388 CURVE SMOOTH",
"815.737 396.188 OFFCURVE",
"830.701 405.359 OFFCURVE",
"846.036 402.477 CURVE SMOOTH",
"861 400 OFFCURVE",
"869 408 OFFCURVE",
"869 416 CURVE SMOOTH",
"869 422 OFFCURVE",
"866 428 OFFCURVE",
"860.202 431.916 CURVE SMOOTH",
"838.63 446.863 OFFCURVE",
"771.125 477.688 OFFCURVE",
"771.125 477.688 CURVE",
"748.75 364.016 OFFCURVE",
"705.181 265.965 OFFCURVE",
"652.384 185 CURVE",
"605 283 OFFCURVE",
"579 422 OFFCURVE",
"565.797 562.438 CURVE",
"917.17 561.661 LINE",
"917.17 561.661 OFFCURVE",
"895.795 627.555 OFFCURVE",
"830.243 643.372 CURVE",
"830.243 643.372 OFFCURVE",
"805.143 590.278 OFFCURVE",
"747.199 589.439 CURVE SMOOTH",
"563.466 589.223 LINE",
"557 666 OFFCURVE",
"556 732 OFFCURVE",
"556 771 CURVE SMOOTH",
"557 821 OFFCURVE",
"586 808 OFFCURVE",
"586.397 835.1 CURVE",
"501.723 835.081 LINE",
"502 805 OFFCURVE",
"501 780 OFFCURVE",
"501 751 CURVE SMOOTH",
"501 711 OFFCURVE",
"502 654 OFFCURVE",
"506.748 589.154 CURVE",
"475.601 589.118 LINE SMOOTH",
"351.166 589.798 OFFCURVE",
"226.729 588.256 OFFCURVE",
"102.295 595.296 CURVE SMOOTH",
"82.83 596.396 LINE",
"82.83 555.265 LINE",
"102.295 556.367 LINE SMOOTH",
"226.729 563.405 OFFCURVE",
"351.166 561.863 OFFCURVE",
"475.601 562.542 CURVE SMOOTH",
"508.829 562.504 LINE",
"522 407 OFFCURVE",
"553 254 OFFCURVE",
"617.682 136.161 CURVE",
"556.421 55.856 OFFCURVE",
"487.25 -3.943 OFFCURVE",
"425.412 -40.672 CURVE SMOOTH",
"414 -48 OFFCURVE",
"408 -56 OFFCURVE",
"408 -63 CURVE SMOOTH",
"408 -69 OFFCURVE",
"414 -74 OFFCURVE",
"424 -74 CURVE SMOOTH",
"431 -74 OFFCURVE",
"440 -72 OFFCURVE",
"451.389 -65.577 CURVE SMOOTH"
);
},
{
closed = 1;
nodes = (
"147 -20 OFFCURVE",
"151 -24 OFFCURVE",
"155 -24 CURVE SMOOTH",
"160 -24 OFFCURVE",
"166 -18 OFFCURVE",
"167.212 -5.661 CURVE SMOOTH",
"168.305 5.007 OFFCURVE",
"177.12 12.75 OFFCURVE",
"185.95 17.683 CURVE",
"325.964 49.881 OFFCURVE",
"423.169 84.984 OFFCURVE",
"505.075 124.022 CURVE",
"512 127 OFFCURVE",
"516 134 OFFCURVE",
"516 139 CURVE SMOOTH",
"516 143 OFFCURVE",
"514 146 OFFCURVE",
"507 146 CURVE SMOOTH",
"504 146 OFFCURVE",
"500 145 OFFCURVE",
"495.916 144.03 CURVE",
"397.382 115.017 OFFCURVE",
"229.381 77.245 OFFCURVE",
"117.418 63.692 CURVE",
"117.418 63.692 OFFCURVE",
"140.523 -0.517 OFFCURVE",
"144.664 -13.514 CURVE"
);
},
{
closed = 1;
nodes = (
"236.057 262.556 LINE",
"236.057 430.685 LINE",
"381.135 430.685 LINE",
"381.135 262.142 LINE"
);
},
{
closed = 1;
nodes = (
"182 171 OFFCURVE",
"186 169 OFFCURVE",
"193 169 CURVE SMOOTH",
"209 169 OFFCURVE",
"236 181 OFFCURVE",
"236.057 213.657 CURVE SMOOTH",
"236.057 235.298 LINE",
"381.135 234.885 LINE",
"381.135 174.714 LINE",
"381 171 OFFCURVE",
"386 169 OFFCURVE",
"393 169 CURVE SMOOTH",
"409 169 OFFCURVE",
"436 181 OFFCURVE",
"435.634 213.657 CURVE",
"435.634 384.343 LINE",
"440 429 OFFCURVE",
"468 421 OFFCURVE",
"468 433 CURVE SMOOTH",
"468 435 OFFCURVE",
"467 438 OFFCURVE",
"464.835 441.857 CURVE SMOOTH",
"462.015 446.949 OFFCURVE",
"441.194 476.554 OFFCURVE",
"395.45 492.414 CURVE",
"395.45 492.414 OFFCURVE",
"390.057 472.254 OFFCURVE",
"365.943 457.943 CURVE",
"229.124 457.943 LINE",
"210.976 484.435 OFFCURVE",
"181.559 492.414 OFFCURVE",
"181.559 492.414 CURVE",
"181.559 174.714 LINE"
);
},
{
closed = 1;
nodes = (
"726 641 OFFCURVE",
"735 636 OFFCURVE",
"744 636 CURVE SMOOTH",
"760 636 OFFCURVE",
"779 651 OFFCURVE",
"779 675 CURVE SMOOTH",
"779 683 OFFCURVE",
"777 692 OFFCURVE",
"771.292 702.758 CURVE SMOOTH",
"747.598 745.589 OFFCURVE",
"701.142 771.471 OFFCURVE",
"660.871 779.848 CURVE",
"658 781 OFFCURVE",
"655 781 OFFCURVE",
"653 781 CURVE SMOOTH",
"643 781 OFFCURVE",
"639 777 OFFCURVE",
"639 771 CURVE SMOOTH",
"639 767 OFFCURVE",
"641 762 OFFCURVE",
"647.468 757.663 CURVE",
"683.543 730.463 OFFCURVE",
"700.828 701.252 OFFCURVE",
"722.018 650.866 CURVE SMOOTH"
);
}
);
width = 1000;
}
);
unicode = 6216;
},
{
glyphname = uni6271;
lastChange = "2019-08-30 17:13:03 +0000";
layers = (
{
layerId = "CA066C67-EDFC-49EB-AE27-EC7C0259E992";
paths = (
{
closed = 1;
nodes = (
"533.968 -6.161 OFFCURVE",
"619.022 56.783 OFFCURVE",
"683.058 127.695 CURVE",
"734.608 63.492 OFFCURVE",
"796.971 7.57 OFFCURVE",
"867.803 -38.981 CURVE",
"872 -41 OFFCURVE",
"876 -43 OFFCURVE",
"880 -43 CURVE SMOOTH",
"883 -43 OFFCURVE",
"888 -42 OFFCURVE",
"892.423 -37.03 CURVE",
"904.211 -25.644 OFFCURVE",
"918.179 -13.735 OFFCURVE",
"949.826 -11.514 CURVE SMOOTH",
"960 -11 OFFCURVE",
"967 -9 OFFCURVE",
"967 -6 CURVE SMOOTH",
"967 -3 OFFCURVE",
"963 0 OFFCURVE",
"953.718 4.168 CURVE SMOOTH",
"860.528 44.72 OFFCURVE",
"781.908 101.454 OFFCURVE",
"719.364 171.523 CURVE",
"814.526 297.59 OFFCURVE",
"851.033 439.345 OFFCURVE",
"861.799 528.339 CURVE",
"871 531 OFFCURVE",
"888 530 OFFCURVE",
"888 539 CURVE SMOOTH",
"888 541 OFFCURVE",
"888 543 OFFCURVE",
"886.581 544.931 CURVE",
"883.953 550.037 OFFCURVE",
"857.189 578.689 OFFCURVE",
"826.935 595.635 CURVE",
"822.614 587.222 LINE",
"816.293 576.722 OFFCURVE",
"792.44 559.23 OFFCURVE",
"760.367 551.294 CURVE",
"751.939 551.244 LINE SMOOTH",
"737.782 551.631 OFFCURVE",
"723.626 551.46 OFFCURVE",
"709.47 552.382 CURVE",
"725.634 617.872 OFFCURVE",
"745.726 709.501 OFFCURVE",
"752.412 740.275 CURVE",
"764 744 OFFCURVE",
"777 741 OFFCURVE",
"777 748 CURVE SMOOTH",
"777 750 OFFCURVE",
"776 752 OFFCURVE",
"774.611 755.076 CURVE",
"771.983 760.248 OFFCURVE",
"745.219 789.281 OFFCURVE",
"714.968 806.457 CURVE",
"710.646 797.932 LINE",
"704.19 787.062 OFFCURVE",
"688.318 769.346 OFFCURVE",
"657.955 761.574 CURVE",
"549.787 761.301 LINE SMOOTH",
"491.568 761.98 OFFCURVE",
"433.348 760.438 OFFCURVE",
"375.128 767.478 CURVE SMOOTH",
"355.664 769.831 LINE",
"355.664 726.195 LINE",
"375.128 728.55 LINE SMOOTH",
"416.585 733.561 OFFCURVE",
"458.044 734.186 OFFCURVE",
"499.501 734.397 CURVE",
"502 706 OFFCURVE",
"504 672 OFFCURVE",
"504 634 CURVE SMOOTH",
"504 465 OFFCURVE",
"469 217 OFFCURVE",
"318.634 20.18 CURVE SMOOTH",
"295.453 -10.179 OFFCURVE",
"275.958 -30.463 OFFCURVE",
"285.087 -41.865 CURVE",
"286 -44 OFFCURVE",
"289 -45 OFFCURVE",
"294 -45 CURVE SMOOTH",
"303 -45 OFFCURVE",
"319 -39 OFFCURVE",
"335.786 -18.73 CURVE SMOOTH",
"463.671 130.047 OFFCURVE",
"519.096 284.07 OFFCURVE",
"541.991 428.478 CURVE",
"561.285 333.318 OFFCURVE",
"598.495 247.192 OFFCURVE",
"650.435 171.452 CURVE",
"592.769 99.147 OFFCURVE",
"514.33 31.761 OFFCURVE",
"406.836 -19.333 CURVE SMOOTH",
"395 -25 OFFCURVE",
"390 -31 OFFCURVE",
"390 -36 CURVE SMOOTH",
"390 -43 OFFCURVE",
"400 -49 OFFCURVE",
"411 -49 CURVE SMOOTH",
"414 -49 OFFCURVE",
"417 -48 OFFCURVE",
"420.071 -47.023 CURVE"
);
},
{
closed = 1;
nodes = (
"231.938 -64.183 OFFCURVE",
"255.032 -46.394 OFFCURVE",
"267.606 -24.028 CURVE SMOOTH",
"273.546 -13.462 OFFCURVE",
"276.172 -6.372 OFFCURVE",
"276.78 8.248 CURVE",
"277.056 352 LINE",
"326.436 386.056 OFFCURVE",
"367.169 419.772 OFFCURVE",
"392.879 439.994 CURVE SMOOTH",
"403 448 OFFCURVE",
"408 456 OFFCURVE",
"408 461 CURVE SMOOTH",
"408 465 OFFCURVE",
"405 467 OFFCURVE",
"401 467 CURVE SMOOTH",
"397 467 OFFCURVE",
"389 465 OFFCURVE",
"379.629 458.548 CURVE",
"344.637 436.915 OFFCURVE",
"310.087 417.498 OFFCURVE",
"277.056 400.134 CURVE",
"277.056 559.489 LINE",
"401.744 559.489 LINE",
"401.744 559.489 OFFCURVE",
"383.665 625.385 OFFCURVE",
"328.237 641.2 CURVE",
"328.237 641.2 OFFCURVE",
"312.458 602.229 OFFCURVE",
"277.056 590.591 CURVE",
"277.056 763.793 LINE",
"279.406 811.321 OFFCURVE",
"305.92 798.906 OFFCURVE",
"305.92 825.206 CURVE",
"222.54 825.256 LINE",
"222.54 586.67 LINE",
"179.168 587.134 OFFCURVE",
"135.792 586.1 OFFCURVE",
"92.42 592.796 CURVE SMOOTH",
"72.956 595.802 LINE",
"72.956 550.862 LINE",
"92.42 553.867 LINE SMOOTH",
"135.792 560.565 OFFCURVE",
"179.168 559.532 OFFCURVE",
"222.54 559.995 CURVE",
"222.54 372.591 LINE",
"113.792 319.908 OFFCURVE",
"33.093 293.629 OFFCURVE",
"33.093 293.629 CURVE SMOOTH",
"33.093 293.629 OFFCURVE",
"80.839 232.197 OFFCURVE",
"92.42 220.659 CURVE SMOOTH",
"96 217 OFFCURVE",
"100 215 OFFCURVE",
"102 215 CURVE SMOOTH",
"107 215 OFFCURVE",
"110 222 OFFCURVE",
"110 233 CURVE",
"109.641 235.906 LINE",
"108.898 251.552 OFFCURVE",
"112.476 262.674 OFFCURVE",
"139.539 274.164 CURVE SMOOTH",
"168.419 286.434 OFFCURVE",
"196.231 301.166 OFFCURVE",
"222.54 316.821 CURVE",
"222.54 111.531 LINE",
"222.312 88.716 LINE SMOOTH",
"221 49 OFFCURVE",
"206 37 OFFCURVE",
"186 37 CURVE SMOOTH",
"157 37 OFFCURVE",
"116 64 OFFCURVE",
"94 64 CURVE SMOOTH",
"90 64 OFFCURVE",
"87 63 OFFCURVE",
"84.76 61.715 CURVE",
"82 60 OFFCURVE",
"81 57 OFFCURVE",
"81 55 CURVE SMOOTH",
"81 39 OFFCURVE",
"124 12 OFFCURVE",
"179.035 -10.856 CURVE SMOOTH",
"205.485 -21.99 OFFCURVE",
"212.468 -64.09 OFFCURVE",
"213.932 -64.098 CURVE SMOOTH"
);
},
{
closed = 1;
nodes = (
"609.501 315.759 OFFCURVE",
"565.236 438.466 OFFCURVE",
"555.932 579.286 CURVE",
"557 599 OFFCURVE",
"557 619 OFFCURVE",
"557 639 CURVE SMOOTH",
"557 672 OFFCURVE",
"556 704 OFFCURVE",
"555.112 734.711 CURVE",
"692.332 734.369 LINE",
"626.024 470.595 LINE",
"624 465 OFFCURVE",
"636 458 OFFCURVE",
"650 458 CURVE SMOOTH",
"665 458 OFFCURVE",
"682 465 OFFCURVE",
"691.051 486.334 CURVE SMOOTH",
"693.691 492.839 OFFCURVE",
"697.518 505.95 OFFCURVE",
"701.985 522.881 CURVE",
"718.636 524.557 OFFCURVE",
"735.288 524.219 OFFCURVE",
"751.939 524.671 CURVE SMOOTH",
"796.998 524.407 LINE",
"785.99 439.322 OFFCURVE",
"755.89 324.774 OFFCURVE",
"683.17 215.94 CURVE"
);
}
);
width = 1000;
}
);
unicode = 6271;
},
{
glyphname = uni6309;
lastChange = "2019-08-30 17:21:12 +0000";
layers = (
{
layerId = "CA066C67-EDFC-49EB-AE27-EC7C0259E992";
paths = (
{
closed = 1;
nodes = (
"850 -62 OFFCURVE",
"855 -65 OFFCURVE",
"859 -65 CURVE SMOOTH",
"870 -65 OFFCURVE",
"880 -48 OFFCURVE",
"880 -21 CURVE SMOOTH",
"880 -6 OFFCURVE",
"877 12 OFFCURVE",
"868.714 32.018 CURVE SMOOTH",
"849.49 79.292 OFFCURVE",
"791.332 128.851 OFFCURVE",
"718.657 166.986 CURVE",
"753.993 226.465 OFFCURVE",
"778.618 295.593 OFFCURVE",
"790.334 370.207 CURVE",
"951.818 369.594 LINE",
"951.818 369.594 OFFCURVE",
"930.443 435.488 OFFCURVE",
"864.891 451.305 CURVE",
"864.891 451.305 OFFCURVE",
"839.641 397.75 OFFCURVE",
"781.237 397.303 CURVE SMOOTH",
"611.938 397.189 LINE",
"623.597 442.797 OFFCURVE",
"633.823 491.277 OFFCURVE",
"643.271 544.072 CURVE SMOOTH",
"647.735 569.02 OFFCURVE",
"656.64 575.11 OFFCURVE",
"668.231 576.904 CURVE",
"679 578 OFFCURVE",
"684 582 OFFCURVE",
"684 585 CURVE SMOOTH",
"684 587 OFFCURVE",
"681 590 OFFCURVE",
"674.836 590.402 CURVE",
"655.505 593.161 OFFCURVE",
"591.338 599.476 OFFCURVE",
"591.338 599.476 CURVE",
"581.352 526.729 OFFCURVE",
"568.987 461.738 OFFCURVE",
"551.174 397.552 CURVE",
"501.99 397.904 OFFCURVE",
"452.804 398.9 OFFCURVE",
"403.621 403.226 CURVE SMOOTH",
"384.156 404.94 LINE",
"384.156 362.587 LINE",
"403.621 364.298 LINE SMOOTH",
"450.174 368.394 OFFCURVE",
"496.725 369.504 OFFCURVE",
"543.278 369.917 CURVE",
"522.424 301.523 OFFCURVE",
"494.586 233.004 OFFCURVE",
"454.928 156.006 CURVE",
"454.928 156.006 OFFCURVE",
"463.617 149.945 OFFCURVE",
"482.043 149.266 CURVE SMOOTH",
"501.187 148.553 OFFCURVE",
"519.121 154.317 OFFCURVE",
"526.869 169.01 CURVE SMOOTH",
"539.144 193.835 LINE",
"572.135 183.708 OFFCURVE",
"609.011 171.386 OFFCURVE",
"646.887 152.095 CURVE",
"623.968 117.883 OFFCURVE",
"596.803 88.299 OFFCURVE",
"564.969 65.592 CURVE SMOOTH",
"457.026 -11.41 OFFCURVE",
"376.99 -0.331 OFFCURVE",
"384.075 -34.646 CURVE",
"385 -41 OFFCURVE",
"393 -44 OFFCURVE",
"405 -44 CURVE SMOOTH",
"448 -44 OFFCURVE",
"544 -8 OFFCURVE",
"603.166 35.787 CURVE SMOOTH",
"636.437 60.445 OFFCURVE",
"665.788 91.262 OFFCURVE",
"691.501 126.045 CURVE",
"746.63 89.207 OFFCURVE",
"801.2 33.874 OFFCURVE",
"846.019 -54.542 CURVE SMOOTH"
);
},
{
closed = 1;
nodes = (
"216.3 -67.672 OFFCURVE",
"239.395 -49.888 OFFCURVE",
"251.969 -27.522 CURVE SMOOTH",
"257.911 -16.956 OFFCURVE",
"260.537 -9.866 OFFCURVE",
"261.145 4.758 CURVE",
"261.418 361.525 LINE",
"305.075 395.587 OFFCURVE",
"338.223 425.827 OFFCURVE",
"365.186 447.035 CURVE SMOOTH",
"375 455 OFFCURVE",
"380 463 OFFCURVE",
"380 469 CURVE SMOOTH",
"380 472 OFFCURVE",
"378 474 OFFCURVE",
"374 474 CURVE SMOOTH",
"369 474 OFFCURVE",
"362 472 OFFCURVE",
"351.93 465.592 CURVE SMOOTH",
"320.21 445.98 OFFCURVE",
"289.923 428.21 OFFCURVE",
"261.418 412.108 CURVE",
"261.418 556 LINE",
"374.051 556 LINE",
"374.051 556 OFFCURVE",
"355.972 621.891 OFFCURVE",
"300.544 637.706 CURVE",
"300.544 637.706 OFFCURVE",
"288.462 607.31 OFFCURVE",
"261.418 592.096 CURVE",
"261.418 760.266 LINE",
"263.759 807.834 OFFCURVE",
"290.284 795.405 OFFCURVE",
"290.284 821.712 CURVE",
"206.903 821.748 LINE",
"206.903 583.224 LINE",
"170.359 583.559 OFFCURVE",
"133.816 582.901 OFFCURVE",
"97.271 589.307 CURVE SMOOTH",
"77.806 592.719 LINE",
"77.806 546.966 LINE",
"97.271 550.378 LINE SMOOTH",
"133.816 556.784 OFFCURVE",
"170.359 556.126 OFFCURVE",
"206.903 556.461 CURVE",
"206.903 382.158 LINE",
"105.173 327.838 OFFCURVE",
"37.944 300.675 OFFCURVE",
"37.944 300.675 CURVE SMOOTH",
"37.944 300.675 OFFCURVE",
"85.69 239.236 OFFCURVE",
"97.271 227.698 CURVE SMOOTH",
"101 224 OFFCURVE",
"105 222 OFFCURVE",
"107 222 CURVE SMOOTH",
"112 222 OFFCURVE",
"115 229 OFFCURVE",
"115 240 CURVE SMOOTH",
"115 241 OFFCURVE",
"115 242 OFFCURVE",
"114.492 242.947 CURVE",
"113.753 258.591 OFFCURVE",
"119.118 266.187 OFFCURVE",
"144.39 281.211 CURVE SMOOTH",
"167.228 294.785 OFFCURVE",
"187.714 308.257 OFFCURVE",
"206.903 321.515 CURVE",
"206.903 108.039 LINE",
"206.677 85.227 LINE SMOOTH",
"206 46 OFFCURVE",
"191 34 OFFCURVE",
"171 34 CURVE SMOOTH",
"141 34 OFFCURVE",
"100 61 OFFCURVE",
"78 61 CURVE SMOOTH",
"75 61 OFFCURVE",
"72 60 OFFCURVE",
"69.122 58.226 CURVE",
"66 56 OFFCURVE",
"65 54 OFFCURVE",
"65 51 CURVE SMOOTH",
"65 35 OFFCURVE",
"109 9 OFFCURVE",
"163.4 -14.35 CURVE SMOOTH",
"189.843 -25.481 OFFCURVE",
"196.831 -67.579 OFFCURVE",
"198.294 -67.587 CURVE SMOOTH"
);
},
{
closed = 1;
nodes = (
"632.044 205.684 OFFCURVE",
"592.635 217.854 OFFCURVE",
"553.747 225.298 CURVE",
"573.827 270.903 OFFCURVE",
"590.435 318.749 OFFCURVE",
"604.703 370.307 CURVE",
"723.331 370.33 LINE",
"715.048 304.049 OFFCURVE",
"696.883 242.719 OFFCURVE",
"669.376 190.095 CURVE"
);
},
{
closed = 1;
nodes = (
"891.638 594.299 OFFCURVE",
"890.828 624.355 OFFCURVE",
"945.403 631.918 CURVE",
"955 634 OFFCURVE",
"962 638 OFFCURVE",
"962 646 CURVE SMOOTH",
"962 648 OFFCURVE",
"961 651 OFFCURVE",
"960.106 653.913 CURVE",
"957.568 659.592 OFFCURVE",
"933.128 707.768 OFFCURVE",
"880.922 724.497 CURVE",
"880.922 724.497 OFFCURVE",
"874.555 702.034 OFFCURVE",
"845.061 686.904 CURVE",
"694.481 686.904 LINE",
"694.481 761.83 LINE SMOOTH",
"694.783 816.552 OFFCURVE",
"723.734 801.381 OFFCURVE",
"723.734 828.745 CURVE",
"641.194 828.745 LINE",
"641.194 686.904 LINE",
"486.603 686.904 LINE",
"469.132 721.979 OFFCURVE",
"459.409 730.29 OFFCURVE",
"459.409 730.29 CURVE SMOOTH",
"459.409 730.29 OFFCURVE",
"464.202 636.138 OFFCURVE",
"407.755 584.329 CURVE SMOOTH",
"390 568 OFFCURVE",
"384 554 OFFCURVE",
"384 542 CURVE SMOOTH",
"384 525 OFFCURVE",
"397 514 OFFCURVE",
"414 514 CURVE SMOOTH",
"433 514 OFFCURVE",
"457 528 OFFCURVE",
"470.997 563.337 CURVE SMOOTH",
"482.324 591.842 OFFCURVE",
"486.403 626.867 OFFCURVE",
"487.56 659.646 CURVE",
"862.228 659.646 LINE",
"849.419 617.006 OFFCURVE",
"842.129 604.226 OFFCURVE",
"822.494 559.578 CURVE SMOOTH",
"819 552 OFFCURVE",
"823 541 OFFCURVE",
"831 541 CURVE SMOOTH",
"835 541 OFFCURVE",
"840 543 OFFCURVE",
"844.878 548.475 CURVE"
);
}
);
width = 1000;
}
);
unicode = 6309;
},
{
glyphname = uni6328;
lastChange = "2019-08-30 16:46:17 +0000";
layers = (
{
layerId = "CA066C67-EDFC-49EB-AE27-EC7C0259E992";
paths = (
{
closed = 1;
nodes = (
"871 -57 OFFCURVE",
"879 -59 OFFCURVE",
"886 -51 CURVE SMOOTH",
"896 -40 OFFCURVE",
"909 -25 OFFCURVE",
"944 -18 CURVE SMOOTH",
"959 -15 OFFCURVE",
"969 -5 OFFCURVE",
"945 -3 CURVE SMOOTH",
"764 12 OFFCURVE",
"683 131 OFFCURVE",
"665 205 CURVE",
"953 204 LINE",
"953 204 OFFCURVE",
"932 270 OFFCURVE",
"866 286 CURVE",
"866 286 OFFCURVE",
"841 232 OFFCURVE",
"783 232 CURVE SMOOTH",
"664 232 LINE",
"668 266 OFFCURVE",
"671 311 OFFCURVE",
"673 374 CURVE",
"700 374 LINE",
"875 374 LINE",
"875 374 OFFCURVE",
"854 439 OFFCURVE",
"788 455 CURVE",
"788 455 OFFCURVE",
"763 401 OFFCURVE",
"704 401 CURVE SMOOTH",
"621 401 OFFCURVE",
"580 401 OFFCURVE",
"536 404 CURVE",
"544 420 OFFCURVE",
"551 438 OFFCURVE",
"557 457 CURVE SMOOTH",
"563 477 OFFCURVE",
"573 485 OFFCURVE",
"585 485 CURVE SMOOTH",
"602 485 OFFCURVE",
"607 492 OFFCURVE",
"595 497 CURVE SMOOTH",
"518 533 LINE",
"507 414 OFFCURVE",
"458 342 OFFCURVE",
"426 302 CURVE SMOOTH",
"410 282 OFFCURVE",
"436 279 OFFCURVE",
"446 288 CURVE SMOOTH",
"470 310 OFFCURVE",
"496 335 OFFCURVE",
"517 369 CURVE",
"551 373 OFFCURVE",
"585 374 OFFCURVE",
"619 374 CURVE",
"618 313 OFFCURVE",
"616 268 OFFCURVE",
"610 232 CURVE",
"534 232 OFFCURVE",
"459 230 OFFCURVE",
"383 238 CURVE SMOOTH",
"363 240 LINE",
"363 197 LINE",
"383 199 LINE SMOOTH",
"457 206 OFFCURVE",
"531 205 OFFCURVE",
"605 205 CURVE",
"597 168 OFFCURVE",
"584 140 OFFCURVE",
"567 109 CURVE SMOOTH",
"517 17 OFFCURVE",
"427 -7 OFFCURVE",
"358 -26 CURVE SMOOTH",
"340 -31 OFFCURVE",
"336 -38 OFFCURVE",
"339 -46 CURVE SMOOTH",
"342 -54 OFFCURVE",
"355 -56 OFFCURVE",
"378 -53 CURVE SMOOTH",
"499 -37 OFFCURVE",
"603 35 OFFCURVE",
"647 158 CURVE",
"675 74 OFFCURVE",
"747 -32 OFFCURVE",
"856 -54 CURVE SMOOTH"
);
},
{
closed = 1;
nodes = (
"248 -73 OFFCURVE",
"284 -34 OFFCURVE",
"284 -1 CURVE",
"285 359 LINE",
"334 393 OFFCURVE",
"375 427 OFFCURVE",
"400 447 CURVE SMOOTH",
"423 465 OFFCURVE",
"421 486 OFFCURVE",
"387 465 CURVE SMOOTH",
"352 444 OFFCURVE",
"318 424 OFFCURVE",
"285 407 CURVE",
"285 566 LINE",
"409 566 LINE",
"409 566 OFFCURVE",
"391 632 OFFCURVE",
"336 648 CURVE",
"336 648 OFFCURVE",
"320 609 OFFCURVE",
"285 597 CURVE",
"285 770 LINE",
"287 818 OFFCURVE",
"313 806 OFFCURVE",
"313 832 CURVE",
"285 832 LINE",
"230 832 LINE",
"230 593 LINE",
"187 594 OFFCURVE",
"143 594 OFFCURVE",
"100 600 CURVE SMOOTH",
"80 603 LINE",
"80 558 LINE",
"100 561 LINE SMOOTH",
"143 567 OFFCURVE",
"187 566 OFFCURVE",
"230 567 CURVE",
"230 379 LINE",
"121 327 OFFCURVE",
"41 300 OFFCURVE",
"41 300 CURVE SMOOTH",
"41 300 OFFCURVE",
"88 239 OFFCURVE",
"100 227 CURVE SMOOTH",
"112 215 OFFCURVE",
"118 224 OFFCURVE",
"117 243 CURVE SMOOTH",
"116 258 OFFCURVE",
"120 269 OFFCURVE",
"147 281 CURVE SMOOTH",
"176 294 OFFCURVE",
"204 308 OFFCURVE",
"230 324 CURVE",
"230 101 LINE",
"230 80 LINE SMOOTH",
"230 -29 OFFCURVE",
"119 72 OFFCURVE",
"92 53 CURVE SMOOTH",
"73 40 OFFCURVE",
"122 6 OFFCURVE",
"186 -20 CURVE SMOOTH",
"213 -31 OFFCURVE",
"220 -73 OFFCURVE",
"221 -73 CURVE SMOOTH"
);
},
{
closed = 1;
nodes = (
"451 504 OFFCURVE",
"460 506 OFFCURVE",
"465 524 CURVE SMOOTH",
"467 532 OFFCURVE",
"477 538 OFFCURVE",
"487 541 CURVE",
"628 555 OFFCURVE",
"730 571 OFFCURVE",
"816 592 CURVE",
"828 575 OFFCURVE",
"836 553 OFFCURVE",
"843 538 CURVE SMOOTH",
"848 527 OFFCURVE",
"860 520 OFFCURVE",
"873 523 CURVE SMOOTH",
"888 526 OFFCURVE",
"897 540 OFFCURVE",
"894 555 CURVE SMOOTH",
"882 614 OFFCURVE",
"834 677 OFFCURVE",
"781 706 CURVE SMOOTH",
"766 716 OFFCURVE",
"727 736 OFFCURVE",
"718 732 CURVE SMOOTH",
"714 730 OFFCURVE",
"715 725 OFFCURVE",
"718 722 CURVE SMOOTH",
"747 693 OFFCURVE",
"771 666 OFFCURVE",
"791 634 CURVE SMOOTH",
"796 626 OFFCURVE",
"800 618 OFFCURVE",
"805 611 CURVE",
"733 603 OFFCURVE",
"638 597 OFFCURVE",
"550 594 CURVE",
"587 631 OFFCURVE",
"621 689 OFFCURVE",
"647 739 CURVE SMOOTH",
"665 774 OFFCURVE",
"674 784 OFFCURVE",
"690 784 CURVE SMOOTH",
"709 784 OFFCURVE",
"715 796 OFFCURVE",
"700 801 CURVE SMOOTH",
"681 807 OFFCURVE",
"611 832 OFFCURVE",
"611 832 CURVE",
"592 738 OFFCURVE",
"556 650 OFFCURVE",
"517 593 CURVE",
"444 592 LINE",
"448 552 OFFCURVE",
"448 542 OFFCURVE",
"450 518 CURVE SMOOTH"
);
}
);
width = 1000;
}
);
unicode = 6328;
},
{
glyphname = uni63E1;
lastChange = "2019-08-30 17:05:02 +0000";
layers = (
{
layerId = "CA066C67-EDFC-49EB-AE27-EC7C0259E992";
paths = (
{
closed = 1;
nodes = (
"315 -73 OFFCURVE",
"317 -75 OFFCURVE",
"320 -75 CURVE SMOOTH",
"330 -75 OFFCURVE",
"342 -66 OFFCURVE",
"352 -56 CURVE SMOOTH",
"420 12 OFFCURVE",
"472 144 OFFCURVE",
"484 357 CURVE SMOOTH",
"487 411 OFFCURVE",
"488 476 OFFCURVE",
"488 538 CURVE SMOOTH",
"488 566 OFFCURVE",
"488 595 OFFCURVE",
"487 621 CURVE",
"877 620 LINE",
"877 582 LINE SMOOTH",
"877 579 OFFCURVE",
"881 576 OFFCURVE",
"888 576 CURVE SMOOTH",
"904 576 OFFCURVE",
"931 588 OFFCURVE",
"931 621 CURVE SMOOTH",
"931 688 LINE",
"935 734 OFFCURVE",
"964 735 OFFCURVE",
"964 750 CURVE SMOOTH",
"964 753 OFFCURVE",
"963 756 OFFCURVE",
"960 760 CURVE SMOOTH",
"957 764 OFFCURVE",
"937 794 OFFCURVE",
"891 810 CURVE",
"891 810 OFFCURVE",
"886 790 OFFCURVE",
"862 776 CURVE",
"477 776 LINE",
"458 802 OFFCURVE",
"429 810 OFFCURVE",
"429 810 CURVE SMOOTH",
"429 810 OFFCURVE",
"433 665 OFFCURVE",
"433 531 CURVE SMOOTH",
"433 480 OFFCURVE",
"432 430 OFFCURVE",
"431 391 CURVE SMOOTH",
"426 177 OFFCURVE",
"392 44 OFFCURVE",
"325 -36 CURVE SMOOTH",
"315 -48 OFFCURVE",
"308 -56 OFFCURVE",
"308 -63 CURVE SMOOTH",
"308 -66 OFFCURVE",
"309 -69 OFFCURVE",
"312 -71 CURVE SMOOTH"
);
},
{
closed = 1;
nodes = (
"230 -75 OFFCURVE",
"252 -58 OFFCURVE",
"266 -35 CURVE SMOOTH",
"272 -25 OFFCURVE",
"275 -18 OFFCURVE",
"275 -3 CURVE SMOOTH",
"275 3 LINE",
"275 3 OFFCURVE",
"275 3 OFFCURVE",
"275 3 CURVE",
"275 356 LINE",
"324 391 OFFCURVE",
"364 425 OFFCURVE",
"391 444 CURVE SMOOTH",
"401 451 OFFCURVE",
"405 461 OFFCURVE",
"405 468 CURVE SMOOTH",
"405 474 OFFCURVE",
"401 478 OFFCURVE",
"394 478 CURVE SMOOTH",
"390 478 OFFCURVE",
"383 476 OFFCURVE",
"375 472 CURVE SMOOTH",
"339 454 OFFCURVE",
"307 431 OFFCURVE",
"275 413 CURVE",
"275 564 LINE",
"400 564 LINE",
"400 564 OFFCURVE",
"382 630 OFFCURVE",
"326 646 CURVE",
"326 646 OFFCURVE",
"311 607 OFFCURVE",
"275 595 CURVE",
"275 768 LINE",
"277 816 OFFCURVE",
"304 803 OFFCURVE",
"304 830 CURVE",
"275 830 LINE",
"221 830 LINE",
"221 591 LINE",
"177 592 OFFCURVE",
"134 590 OFFCURVE",
"90 597 CURVE SMOOTH",
"71 600 LINE",
"71 555 LINE",
"90 558 LINE SMOOTH",
"134 565 OFFCURVE",
"177 564 OFFCURVE",
"221 564 CURVE",
"221 385 LINE",
"112 329 OFFCURVE",
"31 298 OFFCURVE",
"31 298 CURVE SMOOTH",
"31 298 OFFCURVE",
"78 237 OFFCURVE",
"90 225 CURVE SMOOTH",
"94 221 OFFCURVE",
"97 219 OFFCURVE",
"100 219 CURVE SMOOTH",
"106 219 OFFCURVE",
"108 229 OFFCURVE",
"108 244 CURVE SMOOTH",
"108 258 OFFCURVE",
"113 268 OFFCURVE",
"138 279 CURVE SMOOTH",
"166 291 OFFCURVE",
"194 306 OFFCURVE",
"221 321 CURVE",
"221 98 LINE",
"220 77 LINE SMOOTH",
"218 38 OFFCURVE",
"205 26 OFFCURVE",
"185 26 CURVE SMOOTH",
"155 26 OFFCURVE",
"114 53 OFFCURVE",
"92 53 CURVE SMOOTH",
"88 53 OFFCURVE",
"85 52 OFFCURVE",
"83 50 CURVE SMOOTH",
"80 47 OFFCURVE",
"79 46 OFFCURVE",
"79 43 CURVE SMOOTH",
"79 27 OFFCURVE",
"122 0 OFFCURVE",
"177 -22 CURVE SMOOTH",
"204 -33 OFFCURVE",
"211 -75 OFFCURVE",
"212 -75 CURVE SMOOTH"
);
},
{
closed = 1;
nodes = (
"458 -43 LINE SMOOTH",
"531 -36 OFFCURVE",
"605 -37 OFFCURVE",
"679 -37 CURVE SMOOTH",
"969 -38 LINE",
"969 -38 OFFCURVE",
"947 22 OFFCURVE",
"882 36 CURVE",
"882 36 OFFCURVE",
"863 0 OFFCURVE",
"820 -10 CURVE",
"706 -10 LINE",
"705 109 LINE",
"903 109 LINE",
"903 109 OFFCURVE",
"881 169 OFFCURVE",
"816 183 CURVE",
"816 183 OFFCURVE",
"797 146 OFFCURVE",
"753 136 CURVE",
"705 135 LINE",
"705 195 LINE",
"705 250 OFFCURVE",
"734 235 OFFCURVE",
"734 262 CURVE",
"651 262 LINE",
"652 135 LINE",
"609 135 OFFCURVE",
"566 134 OFFCURVE",
"524 140 CURVE SMOOTH",
"504 143 LINE",
"504 99 LINE",
"524 101 LINE SMOOTH",
"567 105 OFFCURVE",
"609 108 OFFCURVE",
"652 108 CURVE",
"653 -10 LINE",
"588 -10 OFFCURVE",
"523 -10 OFFCURVE",
"458 -4 CURVE SMOOTH",
"438 -2 LINE",
"438 -45 LINE"
);
},
{
closed = 1;
nodes = (
"532 259 OFFCURVE",
"535 257 OFFCURVE",
"538 257 CURVE SMOOTH",
"542 257 OFFCURVE",
"545 260 OFFCURVE",
"546 265 CURVE SMOOTH",
"548 277 OFFCURVE",
"553 282 OFFCURVE",
"565 283 CURVE",
"674 297 OFFCURVE",
"755 312 OFFCURVE",
"819 334 CURVE",
"823 327 OFFCURVE",
"828 320 OFFCURVE",
"833 314 CURVE SMOOTH",
"841 304 OFFCURVE",
"847 290 OFFCURVE",
"853 281 CURVE SMOOTH",
"856 277 LINE SMOOTH",
"862 269 OFFCURVE",
"869 265 OFFCURVE",
"878 265 CURVE SMOOTH",
"881 265 OFFCURVE",
"884 265 OFFCURVE",
"886 266 CURVE SMOOTH",
"899 273 OFFCURVE",
"909 285 OFFCURVE",
"905 300 CURVE SMOOTH",
"900 319 OFFCURVE",
"891 333 OFFCURVE",
"881 347 CURVE",
"870 360 OFFCURVE",
"859 373 OFFCURVE",
"846 384 CURVE",
"832 394 OFFCURVE",
"819 404 OFFCURVE",
"804 411 CURVE",
"789 418 OFFCURVE",
"773 426 OFFCURVE",
"757 426 CURVE SMOOTH",
"755 426 OFFCURVE",
"753 426 OFFCURVE",
"751 425 CURVE SMOOTH",
"747 423 OFFCURVE",
"748 417 OFFCURVE",
"751 415 CURVE SMOOTH",
"776 399 OFFCURVE",
"789 374 OFFCURVE",
"805 353 CURVE",
"755 345 OFFCURVE",
"689 339 OFFCURVE",
"626 335 CURVE",
"657 369 OFFCURVE",
"693 422 OFFCURVE",
"714 483 CURVE",
"739 483 LINE",
"913 482 LINE",
"913 482 OFFCURVE",
"892 550 OFFCURVE",
"827 566 CURVE",
"827 566 OFFCURVE",
"801 510 OFFCURVE",
"742 510 CURVE",
"741 510 LINE",
"686 510 LINE SMOOTH",
"633 510 OFFCURVE",
"580 508 OFFCURVE",
"527 516 CURVE SMOOTH",
"508 519 LINE",
"508 475 LINE",
"527 477 LINE SMOOTH",
"569 481 OFFCURVE",
"611 483 OFFCURVE",
"653 483 CURVE",
"638 413 OFFCURVE",
"607 362 OFFCURVE",
"587 333 CURVE",
"559 332 OFFCURVE",
"533 332 OFFCURVE",
"509 332 CURVE",
"530 265 LINE"
);
},
{
closed = 1;
nodes = (
"487 648 LINE",
"486 694 OFFCURVE",
"485 730 OFFCURVE",
"484 749 CURVE",
"877 749 LINE",
"877 648 LINE"
);
}
);
width = 1000;
}
);
unicode = 63E1;
},
